%TF.GenerationSoftware,KiCad,Pcbnew,10.0.3*%
%TF.CreationDate,2026-09-02T09:09:36+02:00*%
%TF.ProjectId,wakeyclock,77616b65-7963-46c6-9f63-6b2e6b696361,rev?*%
%TF.SameCoordinates,Original*%
%TF.FileFunction,Copper,L1,Top*%
%TF.FilePolarity,Positive*%
%FSLAX46Y46*%
G04 Gerber Fmt 4.6, Leading zero omitted, Abs format (unit mm)*
G04 Created by KiCad (PCBNEW 10.0.3) date 2026-09-02 09:09:36*
%MOMM*%
%LPD*%
G01*
G04 APERTURE LIST*
%TA.AperFunction,ComponentPad*%
%ADD10C,2.200000*%
%TD*%
%TA.AperFunction,ComponentPad*%
%ADD11R,1.700000X1.700000*%
%TD*%
%TA.AperFunction,ComponentPad*%
%ADD12C,1.700000*%
%TD*%
%TA.AperFunction,ComponentPad*%
%ADD13R,2.000000X2.000000*%
%TD*%
%TA.AperFunction,ComponentPad*%
%ADD14C,2.000000*%
%TD*%
%TA.AperFunction,Conductor*%
%ADD15C,0.200000*%
%TD*%
G04 APERTURE END LIST*
D10*
%TO.P,SW1,1,1_1*%
%TO.N,GND*%
X111700000Y-122828000D03*
%TO.P,SW1,2,2_2*%
%TO.N,Net-(U1-D0)*%
X105350000Y-125368000D03*
%TD*%
%TO.P,SW2,1,1_1*%
%TO.N,GND*%
X130700000Y-122828000D03*
%TO.P,SW2,2,2_2*%
%TO.N,Net-(U1-D1)*%
X124350000Y-125368000D03*
%TD*%
%TO.P,SW4,1,1_1*%
%TO.N,GND*%
X168700000Y-122828000D03*
%TO.P,SW4,2,2_2*%
%TO.N,Net-(U1-D3)*%
X162350000Y-125368000D03*
%TD*%
%TO.P,SW3,1,1_1*%
%TO.N,GND*%
X149700000Y-122828000D03*
%TO.P,SW3,2,2_2*%
%TO.N,Net-(U1-D2)*%
X143350000Y-125368000D03*
%TD*%
D11*
%TO.P,J1,1,Pin_1_1*%
%TO.N,GND*%
X102000000Y-114500000D03*
D12*
%TO.P,J1,2,Pin_2_2*%
%TO.N,+3V3*%
X102000000Y-111960000D03*
%TO.P,J1,3,Pin_3_3*%
%TO.N,/SCL*%
X102000000Y-109420000D03*
%TO.P,J1,4,Pin_4_4*%
%TO.N,/SDA*%
X102000000Y-106880000D03*
%TO.P,J1,5,Pin_5_5*%
%TO.N,/RST*%
X102000000Y-104340000D03*
%TO.P,J1,6,Pin_6_6*%
%TO.N,/DC*%
X102000000Y-101800000D03*
%TO.P,J1,7,Pin_7_7*%
%TO.N,/CS*%
X102000000Y-99260000D03*
%TO.P,J1,8,Pin_8_8*%
%TO.N,/BL*%
X102000000Y-96720000D03*
%TD*%
D13*
%TO.P,BZ1,1,+_1*%
%TO.N,Net-(BZ1-+)*%
X170400000Y-102300000D03*
D14*
%TO.P,BZ1,2,-_2*%
%TO.N,GND*%
X170400000Y-109900000D03*
%TD*%
%TO.N,Net-(U1-D0)*%
D15*
X104570000Y-113023654D02*
X117593654Y-100000000D01*
X117593654Y-100000000D02*
X146000000Y-100000000D01*
X105350000Y-125368000D02*
X104570000Y-124588000D01*
X104570000Y-124588000D02*
X104570000Y-113023654D01*
%TO.N,Net-(U1-D1)*%
X136697686Y-125368000D02*
X146400000Y-115665686D01*
X124350000Y-125368000D02*
X136697686Y-125368000D01*
X146400000Y-115665686D02*
X146400000Y-102900000D01*
%TO.N,Net-(U1-D3)*%
X162350000Y-117718630D02*
X146731370Y-102100000D01*
X146731370Y-102100000D02*
X146068629Y-102100000D01*
X145000000Y-103168629D02*
X145000000Y-108000000D01*
X146068629Y-102100000D02*
X145000000Y-103168629D01*
X146000000Y-109018000D02*
X146000000Y-107500000D01*
X162350000Y-125368000D02*
X162350000Y-117718630D01*
%TO.N,Net-(U1-D2)*%
X146565685Y-102500000D02*
X146234315Y-102500000D01*
X146234315Y-102500000D02*
X145500000Y-103234315D01*
X145500000Y-103234315D02*
X145500000Y-105000000D01*
X143350000Y-125368000D02*
X146800000Y-121918000D01*
X146800000Y-121918000D02*
X146800000Y-102734315D01*
X146800000Y-102734315D02*
X146565685Y-102500000D01*
%TO.N,/BL*%
X145165685Y-108400000D02*
X144834315Y-108400000D01*
X141950000Y-124788101D02*
X142770101Y-123968000D01*
X160950000Y-125947899D02*
X160950000Y-124788101D01*
X145834315Y-109418000D02*
X145600000Y-109183685D01*
X145834314Y-109600000D02*
X146000000Y-109600000D01*
X144600000Y-103002943D02*
X145902944Y-101700000D01*
X145834315Y-107100000D02*
X146000000Y-107100000D01*
X147200000Y-103134316D02*
X147200000Y-122083686D01*
X146000000Y-109418000D02*
X145834315Y-109418000D01*
X129343402Y-125768000D02*
X130510000Y-126934598D01*
X142770101Y-126768000D02*
X141950000Y-125947899D01*
X143929899Y-123968000D02*
X144057107Y-124095207D01*
X146897056Y-101700000D02*
X162750000Y-117552945D01*
X136863371Y-125768000D02*
X129343402Y-125768000D01*
X123770101Y-126768000D02*
X122950000Y-125947899D01*
X145900000Y-105165685D02*
X145665685Y-105400000D01*
X145900000Y-103400001D02*
X145900000Y-105165685D01*
X146400000Y-116231372D02*
X136863371Y-125768000D01*
X145400000Y-105400000D02*
X145400000Y-108165685D01*
X163750000Y-125947899D02*
X162929899Y-126768000D01*
X125750000Y-125947899D02*
X124929899Y-126768000D01*
X145400000Y-108165685D02*
X145165685Y-108400000D01*
X130510000Y-128881402D02*
X129133402Y-130258000D01*
X125750000Y-124788101D02*
X125750000Y-124968000D01*
X122950000Y-125947899D02*
X122950000Y-124788101D01*
X144750000Y-124788101D02*
X144750000Y-125947899D01*
X124929899Y-126768000D02*
X123770101Y-126768000D01*
X161770101Y-126768000D02*
X160950000Y-125947899D01*
X122950000Y-124788101D02*
X123770101Y-123968000D01*
X117548101Y-115000000D02*
X146000000Y-115000000D01*
X125810000Y-126934598D02*
X126976598Y-125768000D01*
X124929899Y-123968000D02*
X125750000Y-124788101D01*
X127186598Y-130258000D02*
X125810000Y-128881402D01*
X125750000Y-124968000D02*
X136532000Y-124968000D01*
X146000000Y-107100000D02*
X146000000Y-103300001D01*
X136532000Y-124968000D02*
X146000000Y-115500000D01*
X162929899Y-126768000D02*
X161770101Y-126768000D01*
X104770101Y-126768000D02*
X106232000Y-126768000D01*
X146000000Y-109600000D02*
X146000000Y-109418000D01*
X145902944Y-101700000D02*
X146897056Y-101700000D01*
X144622792Y-124660894D02*
X144750000Y-124788101D01*
X106232000Y-126768000D02*
X110300000Y-122700000D01*
X144834315Y-108400000D02*
X144600000Y-108165685D01*
X110300000Y-122700000D02*
X110300000Y-122248101D01*
X146400000Y-121752314D02*
X146400000Y-116231372D01*
X161950000Y-123968000D02*
X161950000Y-117884316D01*
X162750000Y-123968000D02*
X162929899Y-123968000D01*
X160950000Y-124788101D02*
X161770101Y-123968000D01*
X125750000Y-125768000D02*
X125750000Y-125947899D01*
X161950000Y-117884316D02*
X147200000Y-103134316D01*
X141950000Y-125947899D02*
X141950000Y-124788101D01*
X110300000Y-122248101D02*
X117548101Y-115000000D01*
X129133402Y-130258000D02*
X127186598Y-130258000D01*
X147200000Y-122083686D02*
X144622792Y-124660894D01*
X144057107Y-124095207D02*
X146400000Y-121752314D01*
X144600000Y-108165685D02*
X144600000Y-103002943D01*
X143929899Y-126768000D02*
X142770101Y-126768000D01*
X126976598Y-125768000D02*
X125750000Y-125768000D01*
X161770101Y-123968000D02*
X161950000Y-123968000D01*
X142770101Y-123968000D02*
X143929899Y-123968000D01*
X125810000Y-128881402D02*
X125810000Y-126934598D01*
X145600000Y-109183685D02*
X145600000Y-107334315D01*
X130510000Y-126934598D02*
X130510000Y-128881402D01*
X146000000Y-103300001D02*
X145900000Y-103400001D01*
X144750000Y-125947899D02*
X143929899Y-126768000D01*
X162750000Y-117552945D02*
X162750000Y-123968000D01*
X145600000Y-107334315D02*
X145834315Y-107100000D01*
X123770101Y-123968000D02*
X124929899Y-123968000D01*
X162929899Y-123968000D02*
X163750000Y-124788101D01*
X163750000Y-124788101D02*
X163750000Y-125947899D01*
X103950000Y-125947899D02*
X104770101Y-126768000D01*
X103950000Y-98670000D02*
X103950000Y-125947899D01*
X145665685Y-105400000D02*
X145400000Y-105400000D01*
X102000000Y-96720000D02*
X103950000Y-98670000D01*
%TD*%
M02*
