%TF.GenerationSoftware,KiCad,Pcbnew,10.0.3*%
%TF.CreationDate,2026-09-02T09:09:36+02:00*%
%TF.ProjectId,wakeyclock,77616b65-7963-46c6-9f63-6b2e6b696361,rev?*%
%TF.SameCoordinates,Original*%
%TF.FileFunction,OtherDrawing,Comment*%
%FSLAX46Y46*%
G04 Gerber Fmt 4.6, Leading zero omitted, Abs format (unit mm)*
G04 Created by KiCad (PCBNEW 10.0.3) date 2026-09-02 09:09:36*
%MOMM*%
%LPD*%
G01*
G04 APERTURE LIST*
%ADD10C,0.150000*%
G04 APERTURE END LIST*
D10*
X104741541Y-88369819D02*
X104979636Y-89369819D01*
X104979636Y-89369819D02*
X105170112Y-88655533D01*
X105170112Y-88655533D02*
X105360588Y-89369819D01*
X105360588Y-89369819D02*
X105598684Y-88369819D01*
X105932017Y-89084104D02*
X106408207Y-89084104D01*
X105836779Y-89369819D02*
X106170112Y-88369819D01*
X106170112Y-88369819D02*
X106503445Y-89369819D01*
X106836779Y-89369819D02*
X106836779Y-88369819D01*
X107408207Y-89369819D02*
X106979636Y-88798390D01*
X107408207Y-88369819D02*
X106836779Y-88941247D01*
X107836779Y-88846009D02*
X108170112Y-88846009D01*
X108312969Y-89369819D02*
X107836779Y-89369819D01*
X107836779Y-89369819D02*
X107836779Y-88369819D01*
X107836779Y-88369819D02*
X108312969Y-88369819D01*
X108932017Y-88893628D02*
X108932017Y-89369819D01*
X108598684Y-88369819D02*
X108932017Y-88893628D01*
X108932017Y-88893628D02*
X109265350Y-88369819D01*
X110265351Y-88369819D02*
X110503446Y-89369819D01*
X110503446Y-89369819D02*
X110693922Y-88655533D01*
X110693922Y-88655533D02*
X110884398Y-89369819D01*
X110884398Y-89369819D02*
X111122494Y-88369819D01*
X111455827Y-89084104D02*
X111932017Y-89084104D01*
X111360589Y-89369819D02*
X111693922Y-88369819D01*
X111693922Y-88369819D02*
X112027255Y-89369819D01*
X112360589Y-89369819D02*
X112360589Y-88369819D01*
X112932017Y-89369819D02*
X112503446Y-88798390D01*
X112932017Y-88369819D02*
X112360589Y-88941247D01*
X113360589Y-88846009D02*
X113693922Y-88846009D01*
X113836779Y-89369819D02*
X113360589Y-89369819D01*
X113360589Y-89369819D02*
X113360589Y-88369819D01*
X113360589Y-88369819D02*
X113836779Y-88369819D01*
X114455827Y-88893628D02*
X114455827Y-89369819D01*
X114122494Y-88369819D02*
X114455827Y-88893628D01*
X114455827Y-88893628D02*
X114789160Y-88369819D01*
X116455827Y-89274580D02*
X116408208Y-89322200D01*
X116408208Y-89322200D02*
X116265351Y-89369819D01*
X116265351Y-89369819D02*
X116170113Y-89369819D01*
X116170113Y-89369819D02*
X116027256Y-89322200D01*
X116027256Y-89322200D02*
X115932018Y-89226961D01*
X115932018Y-89226961D02*
X115884399Y-89131723D01*
X115884399Y-89131723D02*
X115836780Y-88941247D01*
X115836780Y-88941247D02*
X115836780Y-88798390D01*
X115836780Y-88798390D02*
X115884399Y-88607914D01*
X115884399Y-88607914D02*
X115932018Y-88512676D01*
X115932018Y-88512676D02*
X116027256Y-88417438D01*
X116027256Y-88417438D02*
X116170113Y-88369819D01*
X116170113Y-88369819D02*
X116265351Y-88369819D01*
X116265351Y-88369819D02*
X116408208Y-88417438D01*
X116408208Y-88417438D02*
X116455827Y-88465057D01*
X117360589Y-89369819D02*
X116884399Y-89369819D01*
X116884399Y-89369819D02*
X116884399Y-88369819D01*
X117884399Y-88369819D02*
X118074875Y-88369819D01*
X118074875Y-88369819D02*
X118170113Y-88417438D01*
X118170113Y-88417438D02*
X118265351Y-88512676D01*
X118265351Y-88512676D02*
X118312970Y-88703152D01*
X118312970Y-88703152D02*
X118312970Y-89036485D01*
X118312970Y-89036485D02*
X118265351Y-89226961D01*
X118265351Y-89226961D02*
X118170113Y-89322200D01*
X118170113Y-89322200D02*
X118074875Y-89369819D01*
X118074875Y-89369819D02*
X117884399Y-89369819D01*
X117884399Y-89369819D02*
X117789161Y-89322200D01*
X117789161Y-89322200D02*
X117693923Y-89226961D01*
X117693923Y-89226961D02*
X117646304Y-89036485D01*
X117646304Y-89036485D02*
X117646304Y-88703152D01*
X117646304Y-88703152D02*
X117693923Y-88512676D01*
X117693923Y-88512676D02*
X117789161Y-88417438D01*
X117789161Y-88417438D02*
X117884399Y-88369819D01*
X119312970Y-89274580D02*
X119265351Y-89322200D01*
X119265351Y-89322200D02*
X119122494Y-89369819D01*
X119122494Y-89369819D02*
X119027256Y-89369819D01*
X119027256Y-89369819D02*
X118884399Y-89322200D01*
X118884399Y-89322200D02*
X118789161Y-89226961D01*
X118789161Y-89226961D02*
X118741542Y-89131723D01*
X118741542Y-89131723D02*
X118693923Y-88941247D01*
X118693923Y-88941247D02*
X118693923Y-88798390D01*
X118693923Y-88798390D02*
X118741542Y-88607914D01*
X118741542Y-88607914D02*
X118789161Y-88512676D01*
X118789161Y-88512676D02*
X118884399Y-88417438D01*
X118884399Y-88417438D02*
X119027256Y-88369819D01*
X119027256Y-88369819D02*
X119122494Y-88369819D01*
X119122494Y-88369819D02*
X119265351Y-88417438D01*
X119265351Y-88417438D02*
X119312970Y-88465057D01*
X119741542Y-89369819D02*
X119741542Y-88369819D01*
X120312970Y-89369819D02*
X119884399Y-88798390D01*
X120312970Y-88369819D02*
X119741542Y-88941247D01*
X120741542Y-89274580D02*
X120789161Y-89322200D01*
X120789161Y-89322200D02*
X120741542Y-89369819D01*
X120741542Y-89369819D02*
X120693923Y-89322200D01*
X120693923Y-89322200D02*
X120741542Y-89274580D01*
X120741542Y-89274580D02*
X120741542Y-89369819D01*
X120741542Y-88988866D02*
X120693923Y-88417438D01*
X120693923Y-88417438D02*
X120741542Y-88369819D01*
X120741542Y-88369819D02*
X120789161Y-88417438D01*
X120789161Y-88417438D02*
X120741542Y-88988866D01*
X120741542Y-88988866D02*
X120741542Y-88369819D01*
X108336779Y-144346009D02*
X108670112Y-144346009D01*
X108812969Y-144869819D02*
X108336779Y-144869819D01*
X108336779Y-144869819D02*
X108336779Y-143869819D01*
X108336779Y-143869819D02*
X108812969Y-143869819D01*
X109193922Y-144822200D02*
X109336779Y-144869819D01*
X109336779Y-144869819D02*
X109574874Y-144869819D01*
X109574874Y-144869819D02*
X109670112Y-144822200D01*
X109670112Y-144822200D02*
X109717731Y-144774580D01*
X109717731Y-144774580D02*
X109765350Y-144679342D01*
X109765350Y-144679342D02*
X109765350Y-144584104D01*
X109765350Y-144584104D02*
X109717731Y-144488866D01*
X109717731Y-144488866D02*
X109670112Y-144441247D01*
X109670112Y-144441247D02*
X109574874Y-144393628D01*
X109574874Y-144393628D02*
X109384398Y-144346009D01*
X109384398Y-144346009D02*
X109289160Y-144298390D01*
X109289160Y-144298390D02*
X109241541Y-144250771D01*
X109241541Y-144250771D02*
X109193922Y-144155533D01*
X109193922Y-144155533D02*
X109193922Y-144060295D01*
X109193922Y-144060295D02*
X109241541Y-143965057D01*
X109241541Y-143965057D02*
X109289160Y-143917438D01*
X109289160Y-143917438D02*
X109384398Y-143869819D01*
X109384398Y-143869819D02*
X109622493Y-143869819D01*
X109622493Y-143869819D02*
X109765350Y-143917438D01*
X110193922Y-144869819D02*
X110193922Y-143869819D01*
X110193922Y-143869819D02*
X110574874Y-143869819D01*
X110574874Y-143869819D02*
X110670112Y-143917438D01*
X110670112Y-143917438D02*
X110717731Y-143965057D01*
X110717731Y-143965057D02*
X110765350Y-144060295D01*
X110765350Y-144060295D02*
X110765350Y-144203152D01*
X110765350Y-144203152D02*
X110717731Y-144298390D01*
X110717731Y-144298390D02*
X110670112Y-144346009D01*
X110670112Y-144346009D02*
X110574874Y-144393628D01*
X110574874Y-144393628D02*
X110193922Y-144393628D01*
X111098684Y-143869819D02*
X111717731Y-143869819D01*
X111717731Y-143869819D02*
X111384398Y-144250771D01*
X111384398Y-144250771D02*
X111527255Y-144250771D01*
X111527255Y-144250771D02*
X111622493Y-144298390D01*
X111622493Y-144298390D02*
X111670112Y-144346009D01*
X111670112Y-144346009D02*
X111717731Y-144441247D01*
X111717731Y-144441247D02*
X111717731Y-144679342D01*
X111717731Y-144679342D02*
X111670112Y-144774580D01*
X111670112Y-144774580D02*
X111622493Y-144822200D01*
X111622493Y-144822200D02*
X111527255Y-144869819D01*
X111527255Y-144869819D02*
X111241541Y-144869819D01*
X111241541Y-144869819D02*
X111146303Y-144822200D01*
X111146303Y-144822200D02*
X111098684Y-144774580D01*
X112098684Y-143965057D02*
X112146303Y-143917438D01*
X112146303Y-143917438D02*
X112241541Y-143869819D01*
X112241541Y-143869819D02*
X112479636Y-143869819D01*
X112479636Y-143869819D02*
X112574874Y-143917438D01*
X112574874Y-143917438D02*
X112622493Y-143965057D01*
X112622493Y-143965057D02*
X112670112Y-144060295D01*
X112670112Y-144060295D02*
X112670112Y-144155533D01*
X112670112Y-144155533D02*
X112622493Y-144298390D01*
X112622493Y-144298390D02*
X112051065Y-144869819D01*
X112051065Y-144869819D02*
X112670112Y-144869819D01*
X113098684Y-144488866D02*
X113860589Y-144488866D01*
X114289160Y-144822200D02*
X114432017Y-144869819D01*
X114432017Y-144869819D02*
X114670112Y-144869819D01*
X114670112Y-144869819D02*
X114765350Y-144822200D01*
X114765350Y-144822200D02*
X114812969Y-144774580D01*
X114812969Y-144774580D02*
X114860588Y-144679342D01*
X114860588Y-144679342D02*
X114860588Y-144584104D01*
X114860588Y-144584104D02*
X114812969Y-144488866D01*
X114812969Y-144488866D02*
X114765350Y-144441247D01*
X114765350Y-144441247D02*
X114670112Y-144393628D01*
X114670112Y-144393628D02*
X114479636Y-144346009D01*
X114479636Y-144346009D02*
X114384398Y-144298390D01*
X114384398Y-144298390D02*
X114336779Y-144250771D01*
X114336779Y-144250771D02*
X114289160Y-144155533D01*
X114289160Y-144155533D02*
X114289160Y-144060295D01*
X114289160Y-144060295D02*
X114336779Y-143965057D01*
X114336779Y-143965057D02*
X114384398Y-143917438D01*
X114384398Y-143917438D02*
X114479636Y-143869819D01*
X114479636Y-143869819D02*
X114717731Y-143869819D01*
X114717731Y-143869819D02*
X114860588Y-143917438D01*
X115193922Y-143869819D02*
X115812969Y-143869819D01*
X115812969Y-143869819D02*
X115479636Y-144250771D01*
X115479636Y-144250771D02*
X115622493Y-144250771D01*
X115622493Y-144250771D02*
X115717731Y-144298390D01*
X115717731Y-144298390D02*
X115765350Y-144346009D01*
X115765350Y-144346009D02*
X115812969Y-144441247D01*
X115812969Y-144441247D02*
X115812969Y-144679342D01*
X115812969Y-144679342D02*
X115765350Y-144774580D01*
X115765350Y-144774580D02*
X115717731Y-144822200D01*
X115717731Y-144822200D02*
X115622493Y-144869819D01*
X115622493Y-144869819D02*
X115336779Y-144869819D01*
X115336779Y-144869819D02*
X115241541Y-144822200D01*
X115241541Y-144822200D02*
X115193922Y-144774580D01*
X135836779Y-144369819D02*
X135836779Y-143369819D01*
X136408207Y-144369819D02*
X135979636Y-143798390D01*
X136408207Y-143369819D02*
X135836779Y-143941247D01*
X137265350Y-144369819D02*
X137265350Y-143846009D01*
X137265350Y-143846009D02*
X137217731Y-143750771D01*
X137217731Y-143750771D02*
X137122493Y-143703152D01*
X137122493Y-143703152D02*
X136932017Y-143703152D01*
X136932017Y-143703152D02*
X136836779Y-143750771D01*
X137265350Y-144322200D02*
X137170112Y-144369819D01*
X137170112Y-144369819D02*
X136932017Y-144369819D01*
X136932017Y-144369819D02*
X136836779Y-144322200D01*
X136836779Y-144322200D02*
X136789160Y-144226961D01*
X136789160Y-144226961D02*
X136789160Y-144131723D01*
X136789160Y-144131723D02*
X136836779Y-144036485D01*
X136836779Y-144036485D02*
X136932017Y-143988866D01*
X136932017Y-143988866D02*
X137170112Y-143988866D01*
X137170112Y-143988866D02*
X137265350Y-143941247D01*
X137598684Y-143703152D02*
X137979636Y-143703152D01*
X137741541Y-143369819D02*
X137741541Y-144226961D01*
X137741541Y-144226961D02*
X137789160Y-144322200D01*
X137789160Y-144322200D02*
X137884398Y-144369819D01*
X137884398Y-144369819D02*
X137979636Y-144369819D01*
X138170113Y-143703152D02*
X138551065Y-143703152D01*
X138312970Y-143369819D02*
X138312970Y-144226961D01*
X138312970Y-144226961D02*
X138360589Y-144322200D01*
X138360589Y-144322200D02*
X138455827Y-144369819D01*
X138455827Y-144369819D02*
X138551065Y-144369819D01*
X139408208Y-143417438D02*
X139312970Y-143369819D01*
X139312970Y-143369819D02*
X139170113Y-143369819D01*
X139170113Y-143369819D02*
X139027256Y-143417438D01*
X139027256Y-143417438D02*
X138932018Y-143512676D01*
X138932018Y-143512676D02*
X138884399Y-143607914D01*
X138884399Y-143607914D02*
X138836780Y-143798390D01*
X138836780Y-143798390D02*
X138836780Y-143941247D01*
X138836780Y-143941247D02*
X138884399Y-144131723D01*
X138884399Y-144131723D02*
X138932018Y-144226961D01*
X138932018Y-144226961D02*
X139027256Y-144322200D01*
X139027256Y-144322200D02*
X139170113Y-144369819D01*
X139170113Y-144369819D02*
X139265351Y-144369819D01*
X139265351Y-144369819D02*
X139408208Y-144322200D01*
X139408208Y-144322200D02*
X139455827Y-144274580D01*
X139455827Y-144274580D02*
X139455827Y-143941247D01*
X139455827Y-143941247D02*
X139265351Y-143941247D01*
X140312970Y-144369819D02*
X140312970Y-143846009D01*
X140312970Y-143846009D02*
X140265351Y-143750771D01*
X140265351Y-143750771D02*
X140170113Y-143703152D01*
X140170113Y-143703152D02*
X139979637Y-143703152D01*
X139979637Y-143703152D02*
X139884399Y-143750771D01*
X140312970Y-144322200D02*
X140217732Y-144369819D01*
X140217732Y-144369819D02*
X139979637Y-144369819D01*
X139979637Y-144369819D02*
X139884399Y-144322200D01*
X139884399Y-144322200D02*
X139836780Y-144226961D01*
X139836780Y-144226961D02*
X139836780Y-144131723D01*
X139836780Y-144131723D02*
X139884399Y-144036485D01*
X139884399Y-144036485D02*
X139979637Y-143988866D01*
X139979637Y-143988866D02*
X140217732Y-143988866D01*
X140217732Y-143988866D02*
X140312970Y-143941247D01*
X140789161Y-144369819D02*
X140789161Y-143703152D01*
X140789161Y-143798390D02*
X140836780Y-143750771D01*
X140836780Y-143750771D02*
X140932018Y-143703152D01*
X140932018Y-143703152D02*
X141074875Y-143703152D01*
X141074875Y-143703152D02*
X141170113Y-143750771D01*
X141170113Y-143750771D02*
X141217732Y-143846009D01*
X141217732Y-143846009D02*
X141217732Y-144369819D01*
X141217732Y-143846009D02*
X141265351Y-143750771D01*
X141265351Y-143750771D02*
X141360589Y-143703152D01*
X141360589Y-143703152D02*
X141503446Y-143703152D01*
X141503446Y-143703152D02*
X141598685Y-143750771D01*
X141598685Y-143750771D02*
X141646304Y-143846009D01*
X141646304Y-143846009D02*
X141646304Y-144369819D01*
X142122494Y-144369819D02*
X142122494Y-143703152D01*
X142122494Y-143369819D02*
X142074875Y-143417438D01*
X142074875Y-143417438D02*
X142122494Y-143465057D01*
X142122494Y-143465057D02*
X142170113Y-143417438D01*
X142170113Y-143417438D02*
X142122494Y-143369819D01*
X142122494Y-143369819D02*
X142122494Y-143465057D01*
X142598684Y-143703152D02*
X142598684Y-144369819D01*
X142598684Y-143798390D02*
X142646303Y-143750771D01*
X142646303Y-143750771D02*
X142741541Y-143703152D01*
X142741541Y-143703152D02*
X142884398Y-143703152D01*
X142884398Y-143703152D02*
X142979636Y-143750771D01*
X142979636Y-143750771D02*
X143027255Y-143846009D01*
X143027255Y-143846009D02*
X143027255Y-144369819D01*
X143932017Y-143703152D02*
X143932017Y-144512676D01*
X143932017Y-144512676D02*
X143884398Y-144607914D01*
X143884398Y-144607914D02*
X143836779Y-144655533D01*
X143836779Y-144655533D02*
X143741541Y-144703152D01*
X143741541Y-144703152D02*
X143598684Y-144703152D01*
X143598684Y-144703152D02*
X143503446Y-144655533D01*
X143932017Y-144322200D02*
X143836779Y-144369819D01*
X143836779Y-144369819D02*
X143646303Y-144369819D01*
X143646303Y-144369819D02*
X143551065Y-144322200D01*
X143551065Y-144322200D02*
X143503446Y-144274580D01*
X143503446Y-144274580D02*
X143455827Y-144179342D01*
X143455827Y-144179342D02*
X143455827Y-143893628D01*
X143455827Y-143893628D02*
X143503446Y-143798390D01*
X143503446Y-143798390D02*
X143551065Y-143750771D01*
X143551065Y-143750771D02*
X143646303Y-143703152D01*
X143646303Y-143703152D02*
X143836779Y-143703152D01*
X143836779Y-143703152D02*
X143932017Y-143750771D01*
G36*
X93724068Y-127259516D02*
G01*
X94830000Y-127405696D01*
X94830000Y-127842219D01*
X93724068Y-128008182D01*
X93724068Y-127704893D01*
X94163743Y-127658172D01*
X94500577Y-127629727D01*
X94187392Y-127605924D01*
X93929842Y-127582588D01*
X93724068Y-127562805D01*
X93724068Y-127259516D01*
G37*
G36*
X93724068Y-126922278D02*
G01*
X94830000Y-126922278D01*
X94830000Y-127209874D01*
X93724068Y-127209874D01*
X93724068Y-126922278D01*
G37*
G36*
X94204738Y-126135877D02*
G01*
X94204738Y-126423473D01*
X94013190Y-126423473D01*
X93937347Y-126426584D01*
X93908960Y-126432693D01*
X93893883Y-126446537D01*
X93888199Y-126473360D01*
X93891398Y-126495359D01*
X93899861Y-126509662D01*
X93913478Y-126518483D01*
X93945953Y-126524905D01*
X94022716Y-126528009D01*
X94536114Y-126528009D01*
X94609792Y-126524916D01*
X94641322Y-126518483D01*
X94654613Y-126509799D01*
X94662801Y-126496083D01*
X94665868Y-126475375D01*
X94662834Y-126455623D01*
X94654618Y-126442189D01*
X94641078Y-126433365D01*
X94608020Y-126426759D01*
X94524513Y-126423473D01*
X94384501Y-126423473D01*
X94384501Y-126135877D01*
X94427793Y-126135877D01*
X94544516Y-126139379D01*
X94622888Y-126148196D01*
X94672646Y-126160118D01*
X94716954Y-126181617D01*
X94758947Y-126216483D01*
X94799164Y-126267402D01*
X94828561Y-126325019D01*
X94846954Y-126392479D01*
X94853447Y-126471955D01*
X94847798Y-126555254D01*
X94832094Y-126623845D01*
X94807651Y-126680294D01*
X94772385Y-126729693D01*
X94730437Y-126765331D01*
X94680889Y-126788921D01*
X94625760Y-126802356D01*
X94546735Y-126811878D01*
X94437257Y-126815544D01*
X94114063Y-126815544D01*
X94001985Y-126813141D01*
X93934666Y-126807362D01*
X93896052Y-126798538D01*
X93857839Y-126782484D01*
X93819567Y-126758513D01*
X93785909Y-126728599D01*
X93756892Y-126691372D01*
X93732433Y-126645795D01*
X93715146Y-126596798D01*
X93704374Y-126541897D01*
X93700621Y-126480137D01*
X93706641Y-126396594D01*
X93723432Y-126327559D01*
X93749713Y-126270455D01*
X93786654Y-126219907D01*
X93827224Y-126184483D01*
X93871957Y-126161828D01*
X93922004Y-126148820D01*
X93995641Y-126139499D01*
X94099836Y-126135877D01*
X94204738Y-126135877D01*
G37*
G36*
X93724068Y-125347461D02*
G01*
X94223422Y-125512081D01*
X94830000Y-125331769D01*
X94830000Y-125628890D01*
X94355924Y-125745027D01*
X94830000Y-125745027D01*
X94830000Y-126032623D01*
X93724068Y-126032623D01*
X93724068Y-125745027D01*
X94153752Y-125745027D01*
X93724068Y-125617288D01*
X93724068Y-125347461D01*
G37*
G36*
X93724068Y-125281332D02*
G01*
X93724068Y-124801823D01*
X93946817Y-124801823D01*
X93946817Y-124993736D01*
X94153935Y-124993736D01*
X94153935Y-124814096D01*
X94364961Y-124814096D01*
X94364961Y-124993736D01*
X94607250Y-124993736D01*
X94607250Y-124782650D01*
X94830000Y-124782650D01*
X94830000Y-125281332D01*
X93724068Y-125281332D01*
G37*
G36*
X93724068Y-124014872D02*
G01*
X94223422Y-124179492D01*
X94830000Y-123999180D01*
X94830000Y-124296301D01*
X94355924Y-124412438D01*
X94830000Y-124412438D01*
X94830000Y-124700034D01*
X93724068Y-124700034D01*
X93724068Y-124412438D01*
X94153752Y-124412438D01*
X93724068Y-124284699D01*
X93724068Y-124014872D01*
G37*
G36*
X94830000Y-123554596D02*
G01*
X94630697Y-123568885D01*
X94630697Y-123672077D01*
X94830000Y-123689113D01*
X94830000Y-123986967D01*
X93724068Y-123840788D01*
X93724068Y-123620847D01*
X93967456Y-123620847D01*
X94266871Y-123658902D01*
X94435303Y-123675497D01*
X94435303Y-123577128D01*
X94235469Y-123597940D01*
X93967456Y-123620847D01*
X93724068Y-123620847D01*
X93724068Y-123424781D01*
X94830000Y-123260162D01*
X94830000Y-123554596D01*
G37*
G36*
X93724068Y-122709028D02*
G01*
X93946817Y-122709028D01*
X93946817Y-122879815D01*
X94830000Y-122879815D01*
X94830000Y-123167411D01*
X93946817Y-123167411D01*
X93946817Y-123337526D01*
X93724068Y-123337526D01*
X93724068Y-122709028D01*
G37*
G36*
X93724068Y-122064227D02*
G01*
X93946817Y-122064227D01*
X93946817Y-122235013D01*
X94830000Y-122235013D01*
X94830000Y-122522609D01*
X93946817Y-122522609D01*
X93946817Y-122692725D01*
X93724068Y-122692725D01*
X93724068Y-122064227D01*
G37*
G36*
X132778925Y-87396273D02*
G01*
X132778925Y-91820000D01*
X131773377Y-91820000D01*
X131773377Y-88833398D01*
X131371842Y-91820000D01*
X130658653Y-91820000D01*
X130235136Y-88895924D01*
X130235136Y-91820000D01*
X129229588Y-91820000D01*
X129229588Y-87396273D01*
X130718736Y-87396273D01*
X130858199Y-88336608D01*
X131016468Y-89461835D01*
X131278785Y-87396273D01*
X132778925Y-87396273D01*
G37*
G36*
X135887892Y-91820000D02*
G01*
X134710153Y-91820000D01*
X134653000Y-91022791D01*
X134240230Y-91022791D01*
X134172086Y-91820000D01*
X132980669Y-91820000D01*
X133189349Y-90241214D01*
X134226552Y-90241214D01*
X134620027Y-90241214D01*
X134536780Y-89441878D01*
X134445150Y-88369825D01*
X134292930Y-89567484D01*
X134226552Y-90241214D01*
X133189349Y-90241214D01*
X133565387Y-87396273D01*
X135229413Y-87396273D01*
X135887892Y-91820000D01*
G37*
G36*
X137711173Y-87420431D02*
G01*
X138071912Y-87472721D01*
X138260197Y-87538234D01*
X138406657Y-87622429D01*
X138518632Y-87724047D01*
X138643768Y-87910421D01*
X138709874Y-88113614D01*
X138736028Y-88379404D01*
X138748220Y-88956496D01*
X138748220Y-90505729D01*
X138730308Y-91052557D01*
X138692044Y-91302205D01*
X138613406Y-91484089D01*
X138496650Y-91616545D01*
X138344350Y-91711289D01*
X138152512Y-91775059D01*
X137921655Y-91806765D01*
X137535066Y-91820000D01*
X136084019Y-91820000D01*
X136084019Y-91069685D01*
X137234403Y-91069685D01*
X137397423Y-91054861D01*
X137491276Y-91019072D01*
X137540439Y-90969546D01*
X137578205Y-90826994D01*
X137597836Y-90424640D01*
X137597836Y-88698332D01*
X137591466Y-88423019D01*
X137578541Y-88311451D01*
X137546591Y-88236765D01*
X137491102Y-88186399D01*
X137407216Y-88158961D01*
X137234403Y-88146587D01*
X137234403Y-91069685D01*
X136084019Y-91069685D01*
X136084019Y-87396273D01*
X136944731Y-87396273D01*
X137711173Y-87420431D01*
G37*
G36*
X139179064Y-87396273D02*
G01*
X141097103Y-87396273D01*
X141097103Y-88287271D01*
X140329448Y-88287271D01*
X140329448Y-89115743D01*
X141048011Y-89115743D01*
X141048011Y-89959846D01*
X140329448Y-89959846D01*
X140329448Y-90929002D01*
X141173796Y-90929002D01*
X141173796Y-91820000D01*
X139179064Y-91820000D01*
X139179064Y-87396273D01*
G37*
G36*
X144147303Y-87420879D02*
G01*
X144460327Y-87480537D01*
X144634295Y-87555408D01*
X144783983Y-87667720D01*
X144912665Y-87821500D01*
X145000020Y-88002444D01*
X145061167Y-88268779D01*
X145084856Y-88648995D01*
X145067697Y-88905763D01*
X145024240Y-89077138D01*
X144963224Y-89186817D01*
X144870114Y-89270994D01*
X144717625Y-89349969D01*
X144483775Y-89420558D01*
X144739841Y-89502225D01*
X144913360Y-89603555D01*
X145024773Y-89721221D01*
X145097820Y-89868926D01*
X145147853Y-90077306D01*
X145166922Y-90365045D01*
X145166922Y-90776838D01*
X145152796Y-91078798D01*
X145116205Y-91294537D01*
X145064340Y-91443866D01*
X144981891Y-91574020D01*
X144874265Y-91671671D01*
X144737787Y-91740376D01*
X144579653Y-91778048D01*
X144292733Y-91807697D01*
X143819678Y-91820000D01*
X142489043Y-91820000D01*
X142489043Y-91069685D01*
X143639427Y-91069685D01*
X143857408Y-91041147D01*
X143949616Y-90992505D01*
X143994833Y-90895649D01*
X144016538Y-90652763D01*
X144016538Y-90236085D01*
X143996286Y-89978969D01*
X143956454Y-89888283D01*
X143869404Y-89845961D01*
X143639427Y-89819162D01*
X143639427Y-91069685D01*
X142489043Y-91069685D01*
X142489043Y-89131374D01*
X143639427Y-89131374D01*
X143754221Y-89128688D01*
X143863525Y-89117105D01*
X143931008Y-89088018D01*
X143970132Y-89045401D01*
X144000479Y-88923988D01*
X144016538Y-88567906D01*
X144004796Y-88375938D01*
X143978192Y-88276524D01*
X143931961Y-88206091D01*
X143878541Y-88171256D01*
X143802527Y-88155720D01*
X143639427Y-88146587D01*
X143639427Y-89131374D01*
X142489043Y-89131374D01*
X142489043Y-87396273D01*
X143636741Y-87396273D01*
X144147303Y-87420879D01*
G37*
G36*
X148031158Y-87396273D02*
G01*
X147192184Y-90218743D01*
X147192184Y-91820000D01*
X146126552Y-91820000D01*
X146126552Y-90218743D01*
X145317864Y-87396273D01*
X146375191Y-87396273D01*
X146586282Y-88587357D01*
X146653872Y-89136748D01*
X146774000Y-88390072D01*
X146973586Y-87396273D01*
X148031158Y-87396273D01*
G37*
G36*
X149030355Y-88943796D02*
G01*
X149030355Y-89850425D01*
X148196999Y-89850425D01*
X148196999Y-88943796D01*
X149030355Y-88943796D01*
G37*
G36*
X149030355Y-90913370D02*
G01*
X149030355Y-91820000D01*
X148196999Y-91820000D01*
X148196999Y-90913370D01*
X149030355Y-90913370D01*
G37*
G36*
X153076238Y-87396273D02*
G01*
X152491521Y-91820000D01*
X150745429Y-91820000D01*
X150081577Y-87396273D01*
X151294731Y-87396273D01*
X151481616Y-89154974D01*
X151595394Y-90502309D01*
X151690606Y-89249570D01*
X151783949Y-88219371D01*
X151863084Y-87396273D01*
X153076238Y-87396273D01*
G37*
G36*
X154425191Y-87396273D02*
G01*
X154425191Y-91820000D01*
X153274808Y-91820000D01*
X153274808Y-87396273D01*
X154425191Y-87396273D01*
G37*
G36*
X157625505Y-87396273D02*
G01*
X156967027Y-89393691D01*
X157688276Y-91820000D01*
X156499790Y-91820000D01*
X156035240Y-89923698D01*
X156035240Y-91820000D01*
X154884856Y-91820000D01*
X154884856Y-87396273D01*
X156035240Y-87396273D01*
X156035240Y-89115010D01*
X156546196Y-87396273D01*
X157625505Y-87396273D01*
G37*
G36*
X160207152Y-87396273D02*
G01*
X160207152Y-88287271D01*
X159524005Y-88287271D01*
X159524005Y-91820000D01*
X158373621Y-91820000D01*
X158373621Y-88287271D01*
X157693161Y-88287271D01*
X157693161Y-87396273D01*
X160207152Y-87396273D01*
G37*
G36*
X162001629Y-87316087D02*
G01*
X162213280Y-87355368D01*
X162405094Y-87418743D01*
X162583280Y-87510246D01*
X162733919Y-87626034D01*
X162860118Y-87767278D01*
X162960295Y-87928410D01*
X163028020Y-88096191D01*
X163065038Y-88272861D01*
X163087692Y-88597480D01*
X163097766Y-89229560D01*
X163097766Y-89986713D01*
X163088147Y-90604898D01*
X163066259Y-90931200D01*
X163030508Y-91110888D01*
X162965343Y-91279129D01*
X162869644Y-91438248D01*
X162748003Y-91578059D01*
X162600217Y-91695329D01*
X162422923Y-91790935D01*
X162231601Y-91857441D01*
X162014402Y-91899167D01*
X161767131Y-91913789D01*
X161532623Y-91900212D01*
X161320971Y-91861012D01*
X161129169Y-91797773D01*
X160950958Y-91706146D01*
X160800319Y-91590352D01*
X160674145Y-91449239D01*
X160573959Y-91287952D01*
X160506236Y-91120088D01*
X160469225Y-90943412D01*
X160446571Y-90618793D01*
X160436496Y-89986713D01*
X160436496Y-89229560D01*
X160446041Y-88611373D01*
X160451226Y-88533468D01*
X161586636Y-88533468D01*
X161586636Y-90598053D01*
X161597314Y-90947493D01*
X161617899Y-91073349D01*
X161668278Y-91139717D01*
X161764200Y-91163475D01*
X161834953Y-91151209D01*
X161883111Y-91117411D01*
X161914410Y-91059672D01*
X161936380Y-90920846D01*
X161947383Y-90565324D01*
X161947383Y-88533468D01*
X161936083Y-88252135D01*
X161913189Y-88138771D01*
X161862335Y-88075169D01*
X161772505Y-88052798D01*
X161692342Y-88070505D01*
X161634508Y-88122407D01*
X161603222Y-88225686D01*
X161586636Y-88533468D01*
X160451226Y-88533468D01*
X160467759Y-88285073D01*
X160503646Y-88105383D01*
X160568894Y-87937139D01*
X160664619Y-87778025D01*
X160786268Y-87638232D01*
X160934053Y-87521046D01*
X161111339Y-87425582D01*
X161302675Y-87358940D01*
X161519873Y-87317133D01*
X161767131Y-87302484D01*
X162001629Y-87316087D01*
G37*
G36*
X165092394Y-87416090D02*
G01*
X165445917Y-87459043D01*
X165625167Y-87521879D01*
X165780471Y-87627032D01*
X165915840Y-87779246D01*
X166008530Y-87961330D01*
X166072796Y-88226049D01*
X166097557Y-88600635D01*
X166078483Y-88947408D01*
X166031662Y-89165075D01*
X165969085Y-89292819D01*
X165868550Y-89387040D01*
X165707893Y-89459934D01*
X165463747Y-89505310D01*
X165687350Y-89576720D01*
X165833406Y-89653363D01*
X165922679Y-89732700D01*
X166021812Y-89876337D01*
X166068736Y-89994284D01*
X166087612Y-90163720D01*
X166097557Y-90650321D01*
X166097557Y-91820000D01*
X165029239Y-91820000D01*
X165029239Y-90345505D01*
X165010316Y-90023268D01*
X164973063Y-89904159D01*
X164926612Y-89862722D01*
X164836805Y-89832010D01*
X164679483Y-89819162D01*
X164679483Y-91820000D01*
X163529099Y-91820000D01*
X163529099Y-89131374D01*
X164679483Y-89131374D01*
X164857255Y-89115370D01*
X164951325Y-89078129D01*
X164987427Y-89032417D01*
X165016476Y-88929722D01*
X165029239Y-88732037D01*
X165029239Y-88488527D01*
X165006392Y-88300461D01*
X164954012Y-88212288D01*
X164860489Y-88166238D01*
X164679483Y-88146587D01*
X164679483Y-89131374D01*
X163529099Y-89131374D01*
X163529099Y-87396273D01*
X164343405Y-87396273D01*
X165092394Y-87416090D01*
G37*
G36*
X170171772Y-87396273D02*
G01*
X170171772Y-91820000D01*
X169021388Y-91820000D01*
X169021388Y-89959846D01*
X168677250Y-89959846D01*
X168677250Y-91820000D01*
X167526866Y-91820000D01*
X167526866Y-87396273D01*
X168677250Y-87396273D01*
X168677250Y-88975059D01*
X169021388Y-88975059D01*
X169021388Y-87396273D01*
X170171772Y-87396273D01*
G37*
%TO.C,SW1*%
X99635000Y-118383000D02*
X118685000Y-118383000D01*
X99635000Y-137433000D02*
X99635000Y-118383000D01*
X118685000Y-118383000D02*
X118685000Y-137433000D01*
X118685000Y-137433000D02*
X99635000Y-137433000D01*
%TO.C,SW2*%
X118635000Y-118383000D02*
X137685000Y-118383000D01*
X118635000Y-137433000D02*
X118635000Y-118383000D01*
X137685000Y-118383000D02*
X137685000Y-137433000D01*
X137685000Y-137433000D02*
X118635000Y-137433000D01*
%TO.C,SW4*%
X156635000Y-118383000D02*
X175685000Y-118383000D01*
X156635000Y-137433000D02*
X156635000Y-118383000D01*
X175685000Y-118383000D02*
X175685000Y-137433000D01*
X175685000Y-137433000D02*
X156635000Y-137433000D01*
%TO.C,SW3*%
X137635000Y-118383000D02*
X156685000Y-118383000D01*
X137635000Y-137433000D02*
X137635000Y-118383000D01*
X156685000Y-118383000D02*
X156685000Y-137433000D01*
X156685000Y-137433000D02*
X137635000Y-137433000D01*
%TD*%
M02*
