%TF.GenerationSoftware,KiCad,Pcbnew,10.0.3*%
%TF.CreationDate,2026-09-02T09:09:36+02:00*%
%TF.ProjectId,wakeyclock,77616b65-7963-46c6-9f63-6b2e6b696361,rev?*%
%TF.SameCoordinates,Original*%
%TF.FileFunction,Soldermask,Bot*%
%TF.FilePolarity,Negative*%
%FSLAX46Y46*%
G04 Gerber Fmt 4.6, Leading zero omitted, Abs format (unit mm)*
G04 Created by KiCad (PCBNEW 10.0.3) date 2026-09-02 09:09:36*
%MOMM*%
%LPD*%
G01*
G04 APERTURE LIST*
G04 Aperture macros list*
%AMRoundRect*
0 Rectangle with rounded corners*
0 $1 Rounding radius*
0 $2 $3 $4 $5 $6 $7 $8 $9 X,Y pos of 4 corners*
0 Add a 4 corners polygon primitive as box body*
4,1,4,$2,$3,$4,$5,$6,$7,$8,$9,$2,$3,0*
0 Add four circle primitives for the rounded corners*
1,1,$1+$1,$2,$3*
1,1,$1+$1,$4,$5*
1,1,$1+$1,$6,$7*
1,1,$1+$1,$8,$9*
0 Add four rect primitives between the rounded corners*
20,1,$1+$1,$2,$3,$4,$5,0*
20,1,$1+$1,$4,$5,$6,$7,0*
20,1,$1+$1,$6,$7,$8,$9,0*
20,1,$1+$1,$8,$9,$2,$3,0*%
G04 Aperture macros list end*
%ADD10C,1.700000*%
%ADD11C,4.000000*%
%ADD12C,2.200000*%
%ADD13C,3.200000*%
%ADD14R,1.700000X1.700000*%
%ADD15RoundRect,0.525400X0.900400X0.525400X-0.900400X0.525400X-0.900400X-0.525400X0.900400X-0.525400X0*%
%ADD16RoundRect,0.275000X-0.975000X-0.275000X0.975000X-0.275000X0.975000X0.275000X-0.975000X0.275000X0*%
%ADD17R,2.000000X2.000000*%
%ADD18C,2.000000*%
G04 APERTURE END LIST*
D10*
%TO.C,SW1*%
X104080000Y-127908000D03*
D11*
X109160000Y-127908000D03*
D10*
X114240000Y-127908000D03*
D12*
X111700000Y-122828000D03*
X105350000Y-125368000D03*
%TD*%
D13*
%TO.C,H4*%
X95500000Y-145000000D03*
%TD*%
%TO.C,H3*%
X95000000Y-90000000D03*
%TD*%
D10*
%TO.C,SW2*%
X123080000Y-127908000D03*
D11*
X128160000Y-127908000D03*
D10*
X133240000Y-127908000D03*
D12*
X130700000Y-122828000D03*
X124350000Y-125368000D03*
%TD*%
D13*
%TO.C,H5*%
X180000000Y-145000000D03*
%TD*%
D10*
%TO.C,SW4*%
X161080000Y-127908000D03*
D11*
X166160000Y-127908000D03*
D10*
X171240000Y-127908000D03*
D12*
X168700000Y-122828000D03*
X162350000Y-125368000D03*
%TD*%
D10*
%TO.C,SW3*%
X142080000Y-127908000D03*
D11*
X147160000Y-127908000D03*
D10*
X152240000Y-127908000D03*
D12*
X149700000Y-122828000D03*
X143350000Y-125368000D03*
%TD*%
D13*
%TO.C,H2*%
X180000000Y-90000000D03*
%TD*%
D14*
%TO.C,J1*%
X102000000Y-114500000D03*
D10*
X102000000Y-111960000D03*
X102000000Y-109420000D03*
X102000000Y-106880000D03*
X102000000Y-104340000D03*
X102000000Y-101800000D03*
X102000000Y-99260000D03*
X102000000Y-96720000D03*
%TD*%
D15*
%TO.C,U1*%
X145995500Y-99920000D03*
X145995500Y-102460000D03*
X145995500Y-105000000D03*
X145995500Y-107540000D03*
X145995500Y-110080000D03*
X145995500Y-112620000D03*
X145995500Y-115160000D03*
X129830500Y-115160000D03*
X129830500Y-112620000D03*
X129830500Y-110080000D03*
X129830500Y-107540000D03*
X129830500Y-105000000D03*
X129830500Y-102460000D03*
X129830500Y-99920000D03*
D10*
X139210500Y-98908000D03*
X136670500Y-98908000D03*
X139210500Y-101448000D03*
X136670500Y-101448000D03*
X139210500Y-103988000D03*
X136670500Y-103988000D03*
D16*
X142385500Y-107158000D03*
X142385500Y-105253000D03*
%TD*%
D17*
%TO.C,BZ1*%
X170400000Y-102300000D03*
D18*
X170400000Y-109900000D03*
%TD*%
M02*
