ISO-10303-21;
HEADER;
FILE_DESCRIPTION(('FreeCAD Model'),'2;1');
FILE_NAME('Open CASCADE Shape Model','2026-09-03T09:17:13',('Author'),(
    ''),'Open CASCADE STEP processor 7.8','FreeCAD','Unknown');
FILE_SCHEMA(('AUTOMOTIVE_DESIGN { 1 0 10303 214 1 1 1 1 }'));
ENDSEC;
DATA;
#1 = APPLICATION_PROTOCOL_DEFINITION('international standard',
  'automotive_design',2000,#2);
#2 = APPLICATION_CONTEXT(
  'core data for automotive mechanical design processes');
#3 = SHAPE_DEFINITION_REPRESENTATION(#4,#10);
#4 = PRODUCT_DEFINITION_SHAPE('','',#5);
#5 = PRODUCT_DEFINITION('design','',#6,#9);
#6 = PRODUCT_DEFINITION_FORMATION('','',#7);
#7 = PRODUCT('Unnamed','Unnamed','',(#8));
#8 = PRODUCT_CONTEXT('',#2,'mechanical');
#9 = PRODUCT_DEFINITION_CONTEXT('part definition',#2,'design');
#10 = SHAPE_REPRESENTATION('',(#11,#15,#19,#23),#27);
#11 = AXIS2_PLACEMENT_3D('',#12,#13,#14);
#12 = CARTESIAN_POINT('',(0.,0.,0.));
#13 = DIRECTION('',(0.,0.,1.));
#14 = DIRECTION('',(1.,0.,-0.));
#15 = AXIS2_PLACEMENT_3D('',#16,#17,#18);
#16 = CARTESIAN_POINT('',(0.,0.,0.));
#17 = DIRECTION('',(0.,0.,1.));
#18 = DIRECTION('',(1.,0.,0.));
#19 = AXIS2_PLACEMENT_3D('',#20,#21,#22);
#20 = CARTESIAN_POINT('',(0.,0.,0.));
#21 = DIRECTION('',(0.,0.,1.));
#22 = DIRECTION('',(1.,0.,0.));
#23 = AXIS2_PLACEMENT_3D('',#24,#25,#26);
#24 = CARTESIAN_POINT('',(0.,0.,0.));
#25 = DIRECTION('',(0.,0.,1.));
#26 = DIRECTION('',(1.,0.,0.));
#27 = ( GEOMETRIC_REPRESENTATION_CONTEXT(3) 
GLOBAL_UNCERTAINTY_ASSIGNED_CONTEXT((#31)) GLOBAL_UNIT_ASSIGNED_CONTEXT(
(#28,#29,#30)) REPRESENTATION_CONTEXT('Context #1',
  '3D Context with UNIT and UNCERTAINTY') );
#28 = ( LENGTH_UNIT() NAMED_UNIT(*) SI_UNIT(.MILLI.,.METRE.) );
#29 = ( NAMED_UNIT(*) PLANE_ANGLE_UNIT() SI_UNIT($,.RADIAN.) );
#30 = ( NAMED_UNIT(*) SI_UNIT($,.STERADIAN.) SOLID_ANGLE_UNIT() );
#31 = UNCERTAINTY_MEASURE_WITH_UNIT(LENGTH_MEASURE(1.E-07),#28,
  'distance_accuracy_value','confusion accuracy');
#32 = PRODUCT_RELATED_PRODUCT_CATEGORY('part',$,(#7));
#33 = SHAPE_DEFINITION_REPRESENTATION(#34,#40);
#34 = PRODUCT_DEFINITION_SHAPE('','',#35);
#35 = PRODUCT_DEFINITION('design','',#36,#39);
#36 = PRODUCT_DEFINITION_FORMATION('','',#37);
#37 = PRODUCT('UNIDENTIFIED_PRODUCT003','UNIDENTIFIED_PRODUCT003','',(
    #38));
#38 = PRODUCT_CONTEXT('',#2,'mechanical');
#39 = PRODUCT_DEFINITION_CONTEXT('part definition',#2,'design');
#40 = ADVANCED_BREP_SHAPE_REPRESENTATION('',(#11,#41),#1469);
#41 = MANIFOLD_SOLID_BREP('',#42);
#42 = CLOSED_SHELL('',(#43,#83,#148,#179,#201,#213,#259,#290,#348,#372,
    #389,#629,#651,#668,#685,#697,#761,#784,#797,#861,#884,#897,#961,
    #984,#997,#1061,#1084,#1097,#1130,#1146,#1159,#1192,#1208,#1221,
    #1254,#1270,#1283,#1316,#1332,#1345,#1378,#1394,#1427,#1443,#1456));
#43 = ADVANCED_FACE('',(#44),#78,.T.);
#44 = FACE_BOUND('',#45,.T.);
#45 = EDGE_LOOP('',(#46,#56,#64,#72));
#46 = ORIENTED_EDGE('',*,*,#47,.T.);
#47 = EDGE_CURVE('',#48,#50,#52,.T.);
#48 = VERTEX_POINT('',#49);
#49 = CARTESIAN_POINT('',(101.00000001,-1.E-08,0.));
#50 = VERTEX_POINT('',#51);
#51 = CARTESIAN_POINT('',(101.00000001,70.99999998,0.));
#52 = LINE('',#53,#54);
#53 = CARTESIAN_POINT('',(101.00000001,-1.E-08,0.));
#54 = VECTOR('',#55,1.);
#55 = DIRECTION('',(0.,1.,0.));
#56 = ORIENTED_EDGE('',*,*,#57,.T.);
#57 = EDGE_CURVE('',#50,#58,#60,.T.);
#58 = VERTEX_POINT('',#59);
#59 = CARTESIAN_POINT('',(101.00000001,70.99999998,16.));
#60 = LINE('',#61,#62);
#61 = CARTESIAN_POINT('',(101.00000001,70.99999998,0.));
#62 = VECTOR('',#63,1.);
#63 = DIRECTION('',(0.,-0.,1.));
#64 = ORIENTED_EDGE('',*,*,#65,.F.);
#65 = EDGE_CURVE('',#66,#58,#68,.T.);
#66 = VERTEX_POINT('',#67);
#67 = CARTESIAN_POINT('',(101.00000001,-1.E-08,16.));
#68 = LINE('',#69,#70);
#69 = CARTESIAN_POINT('',(101.00000001,-1.E-08,16.));
#70 = VECTOR('',#71,1.);
#71 = DIRECTION('',(0.,1.,0.));
#72 = ORIENTED_EDGE('',*,*,#73,.F.);
#73 = EDGE_CURVE('',#48,#66,#74,.T.);
#74 = LINE('',#75,#76);
#75 = CARTESIAN_POINT('',(101.00000001,-1.E-08,0.));
#76 = VECTOR('',#77,1.);
#77 = DIRECTION('',(0.,-0.,1.));
#78 = PLANE('',#79);
#79 = AXIS2_PLACEMENT_3D('',#80,#81,#82);
#80 = CARTESIAN_POINT('',(101.00000001,35.49999999,8.));
#81 = DIRECTION('',(1.,-0.,0.));
#82 = DIRECTION('',(-0.,0.,1.));
#83 = ADVANCED_FACE('',(#84,#109),#143,.T.);
#84 = FACE_BOUND('',#85,.T.);
#85 = EDGE_LOOP('',(#86,#94,#102,#108));
#86 = ORIENTED_EDGE('',*,*,#87,.T.);
#87 = EDGE_CURVE('',#50,#88,#90,.T.);
#88 = VERTEX_POINT('',#89);
#89 = CARTESIAN_POINT('',(0.,70.99999998,0.));
#90 = LINE('',#91,#92);
#91 = CARTESIAN_POINT('',(101.00000001,70.99999998,0.));
#92 = VECTOR('',#93,1.);
#93 = DIRECTION('',(-1.,-0.,0.));
#94 = ORIENTED_EDGE('',*,*,#95,.T.);
#95 = EDGE_CURVE('',#88,#96,#98,.T.);
#96 = VERTEX_POINT('',#97);
#97 = CARTESIAN_POINT('',(0.,70.99999998,16.));
#98 = LINE('',#99,#100);
#99 = CARTESIAN_POINT('',(0.,70.99999998,0.));
#100 = VECTOR('',#101,1.);
#101 = DIRECTION('',(0.,-0.,1.));
#102 = ORIENTED_EDGE('',*,*,#103,.F.);
#103 = EDGE_CURVE('',#58,#96,#104,.T.);
#104 = LINE('',#105,#106);
#105 = CARTESIAN_POINT('',(101.00000001,70.99999998,16.));
#106 = VECTOR('',#107,1.);
#107 = DIRECTION('',(-1.,-0.,0.));
#108 = ORIENTED_EDGE('',*,*,#57,.F.);
#109 = FACE_BOUND('',#110,.T.);
#110 = EDGE_LOOP('',(#111,#121,#129,#137));
#111 = ORIENTED_EDGE('',*,*,#112,.T.);
#112 = EDGE_CURVE('',#113,#115,#117,.T.);
#113 = VERTEX_POINT('',#114);
#114 = CARTESIAN_POINT('',(57.50000001,71.,4.));
#115 = VERTEX_POINT('',#116);
#116 = CARTESIAN_POINT('',(57.50000001,71.,11.));
#117 = LINE('',#118,#119);
#118 = CARTESIAN_POINT('',(57.50000001,71.,4.));
#119 = VECTOR('',#120,1.);
#120 = DIRECTION('',(0.,-0.,1.));
#121 = ORIENTED_EDGE('',*,*,#122,.T.);
#122 = EDGE_CURVE('',#115,#123,#125,.T.);
#123 = VERTEX_POINT('',#124);
#124 = CARTESIAN_POINT('',(43.50000001,71.,11.));
#125 = LINE('',#126,#127);
#126 = CARTESIAN_POINT('',(57.50000001,71.,11.));
#127 = VECTOR('',#128,1.);
#128 = DIRECTION('',(-1.,-0.,0.));
#129 = ORIENTED_EDGE('',*,*,#130,.T.);
#130 = EDGE_CURVE('',#123,#131,#133,.T.);
#131 = VERTEX_POINT('',#132);
#132 = CARTESIAN_POINT('',(43.5,71.,4.));
#133 = LINE('',#134,#135);
#134 = CARTESIAN_POINT('',(43.50000001,71.,11.));
#135 = VECTOR('',#136,1.);
#136 = DIRECTION('',(-0.,-0.,-1.));
#137 = ORIENTED_EDGE('',*,*,#138,.T.);
#138 = EDGE_CURVE('',#131,#113,#139,.T.);
#139 = LINE('',#140,#141);
#140 = CARTESIAN_POINT('',(43.5,71.,4.));
#141 = VECTOR('',#142,1.);
#142 = DIRECTION('',(1.,-0.,0.));
#143 = PLANE('',#144);
#144 = AXIS2_PLACEMENT_3D('',#145,#146,#147);
#145 = CARTESIAN_POINT('',(50.50000001,70.99999998,8.));
#146 = DIRECTION('',(-0.,1.,0.));
#147 = DIRECTION('',(0.,0.,1.));
#148 = ADVANCED_FACE('',(#149),#174,.T.);
#149 = FACE_BOUND('',#150,.T.);
#150 = EDGE_LOOP('',(#151,#159,#167,#173));
#151 = ORIENTED_EDGE('',*,*,#152,.T.);
#152 = EDGE_CURVE('',#88,#153,#155,.T.);
#153 = VERTEX_POINT('',#154);
#154 = CARTESIAN_POINT('',(0.,-0.,0.));
#155 = LINE('',#156,#157);
#156 = CARTESIAN_POINT('',(0.,70.99999998,0.));
#157 = VECTOR('',#158,1.);
#158 = DIRECTION('',(0.,-1.,0.));
#159 = ORIENTED_EDGE('',*,*,#160,.T.);
#160 = EDGE_CURVE('',#153,#161,#163,.T.);
#161 = VERTEX_POINT('',#162);
#162 = CARTESIAN_POINT('',(0.,-0.,16.));
#163 = LINE('',#164,#165);
#164 = CARTESIAN_POINT('',(0.,-0.,0.));
#165 = VECTOR('',#166,1.);
#166 = DIRECTION('',(0.,-0.,1.));
#167 = ORIENTED_EDGE('',*,*,#168,.F.);
#168 = EDGE_CURVE('',#96,#161,#169,.T.);
#169 = LINE('',#170,#171);
#170 = CARTESIAN_POINT('',(0.,70.99999998,16.));
#171 = VECTOR('',#172,1.);
#172 = DIRECTION('',(0.,-1.,0.));
#173 = ORIENTED_EDGE('',*,*,#95,.F.);
#174 = PLANE('',#175);
#175 = AXIS2_PLACEMENT_3D('',#176,#177,#178);
#176 = CARTESIAN_POINT('',(0.,35.49999999,8.));
#177 = DIRECTION('',(-1.,-0.,0.));
#178 = DIRECTION('',(-0.,0.,-1.));
#179 = ADVANCED_FACE('',(#180),#196,.T.);
#180 = FACE_BOUND('',#181,.T.);
#181 = EDGE_LOOP('',(#182,#188,#189,#195));
#182 = ORIENTED_EDGE('',*,*,#183,.T.);
#183 = EDGE_CURVE('',#153,#48,#184,.T.);
#184 = LINE('',#185,#186);
#185 = CARTESIAN_POINT('',(0.,-0.,0.));
#186 = VECTOR('',#187,1.);
#187 = DIRECTION('',(1.,-0.,0.));
#188 = ORIENTED_EDGE('',*,*,#73,.T.);
#189 = ORIENTED_EDGE('',*,*,#190,.F.);
#190 = EDGE_CURVE('',#161,#66,#191,.T.);
#191 = LINE('',#192,#193);
#192 = CARTESIAN_POINT('',(0.,-0.,16.));
#193 = VECTOR('',#194,1.);
#194 = DIRECTION('',(1.,-0.,0.));
#195 = ORIENTED_EDGE('',*,*,#160,.F.);
#196 = PLANE('',#197);
#197 = AXIS2_PLACEMENT_3D('',#198,#199,#200);
#198 = CARTESIAN_POINT('',(50.50000001,-1.E-08,8.));
#199 = DIRECTION('',(-0.,-1.,0.));
#200 = DIRECTION('',(0.,-0.,-1.));
#201 = ADVANCED_FACE('',(#202),#208,.F.);
#202 = FACE_BOUND('',#203,.T.);
#203 = EDGE_LOOP('',(#204,#205,#206,#207));
#204 = ORIENTED_EDGE('',*,*,#183,.F.);
#205 = ORIENTED_EDGE('',*,*,#152,.F.);
#206 = ORIENTED_EDGE('',*,*,#87,.F.);
#207 = ORIENTED_EDGE('',*,*,#47,.F.);
#208 = PLANE('',#209);
#209 = AXIS2_PLACEMENT_3D('',#210,#211,#212);
#210 = CARTESIAN_POINT('',(0.,0.,0.));
#211 = DIRECTION('',(0.,-0.,1.));
#212 = DIRECTION('',(1.,0.,0.));
#213 = ADVANCED_FACE('',(#214,#220),#254,.T.);
#214 = FACE_BOUND('',#215,.T.);
#215 = EDGE_LOOP('',(#216,#217,#218,#219));
#216 = ORIENTED_EDGE('',*,*,#65,.T.);
#217 = ORIENTED_EDGE('',*,*,#103,.T.);
#218 = ORIENTED_EDGE('',*,*,#168,.T.);
#219 = ORIENTED_EDGE('',*,*,#190,.T.);
#220 = FACE_BOUND('',#221,.T.);
#221 = EDGE_LOOP('',(#222,#232,#240,#248));
#222 = ORIENTED_EDGE('',*,*,#223,.F.);
#223 = EDGE_CURVE('',#224,#226,#228,.T.);
#224 = VERTEX_POINT('',#225);
#225 = CARTESIAN_POINT('',(98.60000001,2.39999999,16.));
#226 = VERTEX_POINT('',#227);
#227 = CARTESIAN_POINT('',(98.60000001,68.59999998,16.));
#228 = LINE('',#229,#230);
#229 = CARTESIAN_POINT('',(98.60000001,2.39999999,16.));
#230 = VECTOR('',#231,1.);
#231 = DIRECTION('',(0.,1.,0.));
#232 = ORIENTED_EDGE('',*,*,#233,.F.);
#233 = EDGE_CURVE('',#234,#224,#236,.T.);
#234 = VERTEX_POINT('',#235);
#235 = CARTESIAN_POINT('',(2.4,2.4,16.));
#236 = LINE('',#237,#238);
#237 = CARTESIAN_POINT('',(2.4,2.4,16.));
#238 = VECTOR('',#239,1.);
#239 = DIRECTION('',(1.,-0.,0.));
#240 = ORIENTED_EDGE('',*,*,#241,.F.);
#241 = EDGE_CURVE('',#242,#234,#244,.T.);
#242 = VERTEX_POINT('',#243);
#243 = CARTESIAN_POINT('',(2.4,68.59999998,16.));
#244 = LINE('',#245,#246);
#245 = CARTESIAN_POINT('',(2.4,68.59999998,16.));
#246 = VECTOR('',#247,1.);
#247 = DIRECTION('',(0.,-1.,0.));
#248 = ORIENTED_EDGE('',*,*,#249,.F.);
#249 = EDGE_CURVE('',#226,#242,#250,.T.);
#250 = LINE('',#251,#252);
#251 = CARTESIAN_POINT('',(98.60000001,68.59999998,16.));
#252 = VECTOR('',#253,1.);
#253 = DIRECTION('',(-1.,-0.,0.));
#254 = PLANE('',#255);
#255 = AXIS2_PLACEMENT_3D('',#256,#257,#258);
#256 = CARTESIAN_POINT('',(0.,0.,16.));
#257 = DIRECTION('',(0.,-0.,1.));
#258 = DIRECTION('',(1.,0.,0.));
#259 = ADVANCED_FACE('',(#260),#285,.F.);
#260 = FACE_BOUND('',#261,.T.);
#261 = EDGE_LOOP('',(#262,#270,#271,#279));
#262 = ORIENTED_EDGE('',*,*,#263,.T.);
#263 = EDGE_CURVE('',#264,#224,#266,.T.);
#264 = VERTEX_POINT('',#265);
#265 = CARTESIAN_POINT('',(98.60000001,2.39999999,2.));
#266 = LINE('',#267,#268);
#267 = CARTESIAN_POINT('',(98.60000001,2.39999999,2.));
#268 = VECTOR('',#269,1.);
#269 = DIRECTION('',(0.,-0.,1.));
#270 = ORIENTED_EDGE('',*,*,#223,.T.);
#271 = ORIENTED_EDGE('',*,*,#272,.F.);
#272 = EDGE_CURVE('',#273,#226,#275,.T.);
#273 = VERTEX_POINT('',#274);
#274 = CARTESIAN_POINT('',(98.60000001,68.59999998,2.));
#275 = LINE('',#276,#277);
#276 = CARTESIAN_POINT('',(98.60000001,68.59999998,2.));
#277 = VECTOR('',#278,1.);
#278 = DIRECTION('',(0.,-0.,1.));
#279 = ORIENTED_EDGE('',*,*,#280,.F.);
#280 = EDGE_CURVE('',#264,#273,#281,.T.);
#281 = LINE('',#282,#283);
#282 = CARTESIAN_POINT('',(98.60000001,2.39999999,2.));
#283 = VECTOR('',#284,1.);
#284 = DIRECTION('',(0.,1.,0.));
#285 = PLANE('',#286);
#286 = AXIS2_PLACEMENT_3D('',#287,#288,#289);
#287 = CARTESIAN_POINT('',(98.60000001,35.49999999,10.));
#288 = DIRECTION('',(1.,-0.,0.));
#289 = DIRECTION('',(-0.,0.,1.));
#290 = ADVANCED_FACE('',(#291,#309),#343,.F.);
#291 = FACE_BOUND('',#292,.T.);
#292 = EDGE_LOOP('',(#293,#294,#295,#303));
#293 = ORIENTED_EDGE('',*,*,#272,.T.);
#294 = ORIENTED_EDGE('',*,*,#249,.T.);
#295 = ORIENTED_EDGE('',*,*,#296,.F.);
#296 = EDGE_CURVE('',#297,#242,#299,.T.);
#297 = VERTEX_POINT('',#298);
#298 = CARTESIAN_POINT('',(2.4,68.59999998,2.));
#299 = LINE('',#300,#301);
#300 = CARTESIAN_POINT('',(2.4,68.59999998,2.));
#301 = VECTOR('',#302,1.);
#302 = DIRECTION('',(0.,-0.,1.));
#303 = ORIENTED_EDGE('',*,*,#304,.F.);
#304 = EDGE_CURVE('',#273,#297,#305,.T.);
#305 = LINE('',#306,#307);
#306 = CARTESIAN_POINT('',(98.60000001,68.59999998,2.));
#307 = VECTOR('',#308,1.);
#308 = DIRECTION('',(-1.,-0.,0.));
#309 = FACE_BOUND('',#310,.T.);
#310 = EDGE_LOOP('',(#311,#321,#329,#337));
#311 = ORIENTED_EDGE('',*,*,#312,.T.);
#312 = EDGE_CURVE('',#313,#315,#317,.T.);
#313 = VERTEX_POINT('',#314);
#314 = CARTESIAN_POINT('',(57.50000001,68.59999998,4.));
#315 = VERTEX_POINT('',#316);
#316 = CARTESIAN_POINT('',(43.5,68.59999998,4.));
#317 = LINE('',#318,#319);
#318 = CARTESIAN_POINT('',(57.50000001,68.59999998,4.));
#319 = VECTOR('',#320,1.);
#320 = DIRECTION('',(-1.,-0.,0.));
#321 = ORIENTED_EDGE('',*,*,#322,.T.);
#322 = EDGE_CURVE('',#315,#323,#325,.T.);
#323 = VERTEX_POINT('',#324);
#324 = CARTESIAN_POINT('',(43.50000001,68.59999998,11.));
#325 = LINE('',#326,#327);
#326 = CARTESIAN_POINT('',(43.5,68.59999998,4.));
#327 = VECTOR('',#328,1.);
#328 = DIRECTION('',(0.,-0.,1.));
#329 = ORIENTED_EDGE('',*,*,#330,.T.);
#330 = EDGE_CURVE('',#323,#331,#333,.T.);
#331 = VERTEX_POINT('',#332);
#332 = CARTESIAN_POINT('',(57.50000001,68.59999998,11.));
#333 = LINE('',#334,#335);
#334 = CARTESIAN_POINT('',(43.50000001,68.59999998,11.));
#335 = VECTOR('',#336,1.);
#336 = DIRECTION('',(1.,0.,0.));
#337 = ORIENTED_EDGE('',*,*,#338,.T.);
#338 = EDGE_CURVE('',#331,#313,#339,.T.);
#339 = LINE('',#340,#341);
#340 = CARTESIAN_POINT('',(57.50000001,68.59999998,11.));
#341 = VECTOR('',#342,1.);
#342 = DIRECTION('',(-0.,-0.,-1.));
#343 = PLANE('',#344);
#344 = AXIS2_PLACEMENT_3D('',#345,#346,#347);
#345 = CARTESIAN_POINT('',(50.50000001,68.59999998,10.));
#346 = DIRECTION('',(-0.,1.,0.));
#347 = DIRECTION('',(0.,0.,1.));
#348 = ADVANCED_FACE('',(#349),#367,.F.);
#349 = FACE_BOUND('',#350,.T.);
#350 = EDGE_LOOP('',(#351,#352,#353,#361));
#351 = ORIENTED_EDGE('',*,*,#296,.T.);
#352 = ORIENTED_EDGE('',*,*,#241,.T.);
#353 = ORIENTED_EDGE('',*,*,#354,.F.);
#354 = EDGE_CURVE('',#355,#234,#357,.T.);
#355 = VERTEX_POINT('',#356);
#356 = CARTESIAN_POINT('',(2.4,2.4,2.));
#357 = LINE('',#358,#359);
#358 = CARTESIAN_POINT('',(2.4,2.4,2.));
#359 = VECTOR('',#360,1.);
#360 = DIRECTION('',(0.,-0.,1.));
#361 = ORIENTED_EDGE('',*,*,#362,.F.);
#362 = EDGE_CURVE('',#297,#355,#363,.T.);
#363 = LINE('',#364,#365);
#364 = CARTESIAN_POINT('',(2.4,68.59999998,2.));
#365 = VECTOR('',#366,1.);
#366 = DIRECTION('',(0.,-1.,0.));
#367 = PLANE('',#368);
#368 = AXIS2_PLACEMENT_3D('',#369,#370,#371);
#369 = CARTESIAN_POINT('',(2.4,35.49999999,10.));
#370 = DIRECTION('',(-1.,-0.,0.));
#371 = DIRECTION('',(-0.,0.,-1.));
#372 = ADVANCED_FACE('',(#373),#384,.F.);
#373 = FACE_BOUND('',#374,.T.);
#374 = EDGE_LOOP('',(#375,#376,#377,#378));
#375 = ORIENTED_EDGE('',*,*,#354,.T.);
#376 = ORIENTED_EDGE('',*,*,#233,.T.);
#377 = ORIENTED_EDGE('',*,*,#263,.F.);
#378 = ORIENTED_EDGE('',*,*,#379,.F.);
#379 = EDGE_CURVE('',#355,#264,#380,.T.);
#380 = LINE('',#381,#382);
#381 = CARTESIAN_POINT('',(2.4,2.4,2.));
#382 = VECTOR('',#383,1.);
#383 = DIRECTION('',(1.,-0.,0.));
#384 = PLANE('',#385);
#385 = AXIS2_PLACEMENT_3D('',#386,#387,#388);
#386 = CARTESIAN_POINT('',(50.50000001,2.39999999,10.));
#387 = DIRECTION('',(-0.,-1.,0.));
#388 = DIRECTION('',(0.,-0.,-1.));
#389 = ADVANCED_FACE('',(#390,#396,#434,#472,#510,#548,#586),#624,.T.);
#390 = FACE_BOUND('',#391,.T.);
#391 = EDGE_LOOP('',(#392,#393,#394,#395));
#392 = ORIENTED_EDGE('',*,*,#280,.T.);
#393 = ORIENTED_EDGE('',*,*,#304,.T.);
#394 = ORIENTED_EDGE('',*,*,#362,.T.);
#395 = ORIENTED_EDGE('',*,*,#379,.T.);
#396 = FACE_BOUND('',#397,.T.);
#397 = EDGE_LOOP('',(#398,#409,#418,#427));
#398 = ORIENTED_EDGE('',*,*,#399,.F.);
#399 = EDGE_CURVE('',#400,#402,#404,.T.);
#400 = VERTEX_POINT('',#401);
#401 = CARTESIAN_POINT('',(11.,7.,2.));
#402 = VERTEX_POINT('',#403);
#403 = CARTESIAN_POINT('',(6.99999997,11.,2.));
#404 = CIRCLE('',#405,4.);
#405 = AXIS2_PLACEMENT_3D('',#406,#407,#408);
#406 = CARTESIAN_POINT('',(7.,7.,2.));
#407 = DIRECTION('',(0.,0.,1.));
#408 = DIRECTION('',(1.,0.,-0.));
#409 = ORIENTED_EDGE('',*,*,#410,.T.);
#410 = EDGE_CURVE('',#400,#411,#413,.T.);
#411 = VERTEX_POINT('',#412);
#412 = CARTESIAN_POINT('',(7.00000002,3.,2.));
#413 = CIRCLE('',#414,4.);
#414 = AXIS2_PLACEMENT_3D('',#415,#416,#417);
#415 = CARTESIAN_POINT('',(7.,7.,2.));
#416 = DIRECTION('',(0.,-0.,-1.));
#417 = DIRECTION('',(1.,-0.,0.));
#418 = ORIENTED_EDGE('',*,*,#419,.T.);
#419 = EDGE_CURVE('',#411,#420,#422,.T.);
#420 = VERTEX_POINT('',#421);
#421 = CARTESIAN_POINT('',(3.,7.,2.));
#422 = CIRCLE('',#423,4.);
#423 = AXIS2_PLACEMENT_3D('',#424,#425,#426);
#424 = CARTESIAN_POINT('',(7.,7.,2.));
#425 = DIRECTION('',(0.,-0.,-1.));
#426 = DIRECTION('',(1.E-08,-1.,0.));
#427 = ORIENTED_EDGE('',*,*,#428,.F.);
#428 = EDGE_CURVE('',#402,#420,#429,.T.);
#429 = CIRCLE('',#430,4.);
#430 = AXIS2_PLACEMENT_3D('',#431,#432,#433);
#431 = CARTESIAN_POINT('',(7.,7.,2.));
#432 = DIRECTION('',(0.,0.,1.));
#433 = DIRECTION('',(-1.E-08,1.,0.));
#434 = FACE_BOUND('',#435,.T.);
#435 = EDGE_LOOP('',(#436,#447,#456,#465));
#436 = ORIENTED_EDGE('',*,*,#437,.F.);
#437 = EDGE_CURVE('',#438,#440,#442,.T.);
#438 = VERTEX_POINT('',#439);
#439 = CARTESIAN_POINT('',(98.00000001,7.,2.));
#440 = VERTEX_POINT('',#441);
#441 = CARTESIAN_POINT('',(93.99999998,11.,2.));
#442 = CIRCLE('',#443,4.);
#443 = AXIS2_PLACEMENT_3D('',#444,#445,#446);
#444 = CARTESIAN_POINT('',(94.,7.,2.));
#445 = DIRECTION('',(0.,-0.,1.));
#446 = DIRECTION('',(1.,0.,0.));
#447 = ORIENTED_EDGE('',*,*,#448,.T.);
#448 = EDGE_CURVE('',#438,#449,#451,.T.);
#449 = VERTEX_POINT('',#450);
#450 = CARTESIAN_POINT('',(94.00000003,3.,2.));
#451 = CIRCLE('',#452,4.);
#452 = AXIS2_PLACEMENT_3D('',#453,#454,#455);
#453 = CARTESIAN_POINT('',(94.,7.,2.));
#454 = DIRECTION('',(-0.,0.,-1.));
#455 = DIRECTION('',(1.,0.,-0.));
#456 = ORIENTED_EDGE('',*,*,#457,.T.);
#457 = EDGE_CURVE('',#449,#458,#460,.T.);
#458 = VERTEX_POINT('',#459);
#459 = CARTESIAN_POINT('',(90.,7.,2.));
#460 = CIRCLE('',#461,4.);
#461 = AXIS2_PLACEMENT_3D('',#462,#463,#464);
#462 = CARTESIAN_POINT('',(94.,7.,2.));
#463 = DIRECTION('',(0.,0.,-1.));
#464 = DIRECTION('',(1.E-08,-1.,0.));
#465 = ORIENTED_EDGE('',*,*,#466,.F.);
#466 = EDGE_CURVE('',#440,#458,#467,.T.);
#467 = CIRCLE('',#468,4.);
#468 = AXIS2_PLACEMENT_3D('',#469,#470,#471);
#469 = CARTESIAN_POINT('',(94.,7.,2.));
#470 = DIRECTION('',(0.,0.,1.));
#471 = DIRECTION('',(-1.E-08,1.,-0.));
#472 = FACE_BOUND('',#473,.T.);
#473 = EDGE_LOOP('',(#474,#485,#494,#503));
#474 = ORIENTED_EDGE('',*,*,#475,.F.);
#475 = EDGE_CURVE('',#476,#478,#480,.T.);
#476 = VERTEX_POINT('',#477);
#477 = CARTESIAN_POINT('',(98.00000001,64.,2.));
#478 = VERTEX_POINT('',#479);
#479 = CARTESIAN_POINT('',(93.99999998,68.,2.));
#480 = CIRCLE('',#481,4.);
#481 = AXIS2_PLACEMENT_3D('',#482,#483,#484);
#482 = CARTESIAN_POINT('',(94.,64.,2.));
#483 = DIRECTION('',(0.,-0.,1.));
#484 = DIRECTION('',(1.,0.,0.));
#485 = ORIENTED_EDGE('',*,*,#486,.T.);
#486 = EDGE_CURVE('',#476,#487,#489,.T.);
#487 = VERTEX_POINT('',#488);
#488 = CARTESIAN_POINT('',(94.00000003,60.,2.));
#489 = CIRCLE('',#490,4.);
#490 = AXIS2_PLACEMENT_3D('',#491,#492,#493);
#491 = CARTESIAN_POINT('',(94.,64.,2.));
#492 = DIRECTION('',(0.,-0.,-1.));
#493 = DIRECTION('',(1.,-0.,0.));
#494 = ORIENTED_EDGE('',*,*,#495,.T.);
#495 = EDGE_CURVE('',#487,#496,#498,.T.);
#496 = VERTEX_POINT('',#497);
#497 = CARTESIAN_POINT('',(90.,64.,2.));
#498 = CIRCLE('',#499,4.);
#499 = AXIS2_PLACEMENT_3D('',#500,#501,#502);
#500 = CARTESIAN_POINT('',(94.,64.,2.));
#501 = DIRECTION('',(0.,-0.,-1.));
#502 = DIRECTION('',(1.E-08,-1.,0.));
#503 = ORIENTED_EDGE('',*,*,#504,.F.);
#504 = EDGE_CURVE('',#478,#496,#505,.T.);
#505 = CIRCLE('',#506,4.);
#506 = AXIS2_PLACEMENT_3D('',#507,#508,#509);
#507 = CARTESIAN_POINT('',(94.,64.,2.));
#508 = DIRECTION('',(0.,0.,1.));
#509 = DIRECTION('',(-1.E-08,1.,0.));
#510 = FACE_BOUND('',#511,.T.);
#511 = EDGE_LOOP('',(#512,#523,#532,#541));
#512 = ORIENTED_EDGE('',*,*,#513,.F.);
#513 = EDGE_CURVE('',#514,#516,#518,.T.);
#514 = VERTEX_POINT('',#515);
#515 = CARTESIAN_POINT('',(11.,64.,2.));
#516 = VERTEX_POINT('',#517);
#517 = CARTESIAN_POINT('',(6.99999998,68.,2.));
#518 = CIRCLE('',#519,4.);
#519 = AXIS2_PLACEMENT_3D('',#520,#521,#522);
#520 = CARTESIAN_POINT('',(7.,64.,2.));
#521 = DIRECTION('',(0.,-0.,1.));
#522 = DIRECTION('',(1.,0.,0.));
#523 = ORIENTED_EDGE('',*,*,#524,.T.);
#524 = EDGE_CURVE('',#514,#525,#527,.T.);
#525 = VERTEX_POINT('',#526);
#526 = CARTESIAN_POINT('',(7.00000002,60.,2.));
#527 = CIRCLE('',#528,4.);
#528 = AXIS2_PLACEMENT_3D('',#529,#530,#531);
#529 = CARTESIAN_POINT('',(7.,64.,2.));
#530 = DIRECTION('',(0.,-0.,-1.));
#531 = DIRECTION('',(1.,-0.,0.));
#532 = ORIENTED_EDGE('',*,*,#533,.T.);
#533 = EDGE_CURVE('',#525,#534,#536,.T.);
#534 = VERTEX_POINT('',#535);
#535 = CARTESIAN_POINT('',(3.,64.,2.));
#536 = CIRCLE('',#537,4.);
#537 = AXIS2_PLACEMENT_3D('',#538,#539,#540);
#538 = CARTESIAN_POINT('',(7.,64.,2.));
#539 = DIRECTION('',(0.,0.,-1.));
#540 = DIRECTION('',(1.E-08,-1.,0.));
#541 = ORIENTED_EDGE('',*,*,#542,.F.);
#542 = EDGE_CURVE('',#516,#534,#543,.T.);
#543 = CIRCLE('',#544,4.);
#544 = AXIS2_PLACEMENT_3D('',#545,#546,#547);
#545 = CARTESIAN_POINT('',(7.,64.,2.));
#546 = DIRECTION('',(0.,0.,1.));
#547 = DIRECTION('',(-1.E-08,1.,0.));
#548 = FACE_BOUND('',#549,.T.);
#549 = EDGE_LOOP('',(#550,#561,#570,#579));
#550 = ORIENTED_EDGE('',*,*,#551,.F.);
#551 = EDGE_CURVE('',#552,#554,#556,.T.);
#552 = VERTEX_POINT('',#553);
#553 = CARTESIAN_POINT('',(6.4,35.5,2.));
#554 = VERTEX_POINT('',#555);
#555 = CARTESIAN_POINT('',(5.00000002,36.9,2.));
#556 = CIRCLE('',#557,1.4);
#557 = AXIS2_PLACEMENT_3D('',#558,#559,#560);
#558 = CARTESIAN_POINT('',(5.,35.5,2.));
#559 = DIRECTION('',(0.,0.,1.));
#560 = DIRECTION('',(1.,0.,-0.));
#561 = ORIENTED_EDGE('',*,*,#562,.T.);
#562 = EDGE_CURVE('',#552,#563,#565,.T.);
#563 = VERTEX_POINT('',#564);
#564 = CARTESIAN_POINT('',(4.99999998,34.1,2.));
#565 = CIRCLE('',#566,1.4);
#566 = AXIS2_PLACEMENT_3D('',#567,#568,#569);
#567 = CARTESIAN_POINT('',(5.,35.5,2.));
#568 = DIRECTION('',(0.,0.,-1.));
#569 = DIRECTION('',(1.,0.,0.));
#570 = ORIENTED_EDGE('',*,*,#571,.T.);
#571 = EDGE_CURVE('',#563,#572,#574,.T.);
#572 = VERTEX_POINT('',#573);
#573 = CARTESIAN_POINT('',(3.6,35.5,2.));
#574 = CIRCLE('',#575,1.4);
#575 = AXIS2_PLACEMENT_3D('',#576,#577,#578);
#576 = CARTESIAN_POINT('',(5.,35.5,2.));
#577 = DIRECTION('',(-0.,0.,-1.));
#578 = DIRECTION('',(-1.E-08,-1.,0.));
#579 = ORIENTED_EDGE('',*,*,#580,.F.);
#580 = EDGE_CURVE('',#554,#572,#581,.T.);
#581 = CIRCLE('',#582,1.4);
#582 = AXIS2_PLACEMENT_3D('',#583,#584,#585);
#583 = CARTESIAN_POINT('',(5.,35.5,2.));
#584 = DIRECTION('',(0.,-0.,1.));
#585 = DIRECTION('',(2.E-08,1.,0.));
#586 = FACE_BOUND('',#587,.T.);
#587 = EDGE_LOOP('',(#588,#599,#608,#617));
#588 = ORIENTED_EDGE('',*,*,#589,.F.);
#589 = EDGE_CURVE('',#590,#592,#594,.T.);
#590 = VERTEX_POINT('',#591);
#591 = CARTESIAN_POINT('',(97.4,35.5,2.));
#592 = VERTEX_POINT('',#593);
#593 = CARTESIAN_POINT('',(96.00000002,36.9,2.));
#594 = CIRCLE('',#595,1.4);
#595 = AXIS2_PLACEMENT_3D('',#596,#597,#598);
#596 = CARTESIAN_POINT('',(96.,35.5,2.));
#597 = DIRECTION('',(0.,0.,1.));
#598 = DIRECTION('',(1.,0.,-0.));
#599 = ORIENTED_EDGE('',*,*,#600,.T.);
#600 = EDGE_CURVE('',#590,#601,#603,.T.);
#601 = VERTEX_POINT('',#602);
#602 = CARTESIAN_POINT('',(95.99999998,34.1,2.));
#603 = CIRCLE('',#604,1.4);
#604 = AXIS2_PLACEMENT_3D('',#605,#606,#607);
#605 = CARTESIAN_POINT('',(96.,35.5,2.));
#606 = DIRECTION('',(0.,0.,-1.));
#607 = DIRECTION('',(1.,0.,0.));
#608 = ORIENTED_EDGE('',*,*,#609,.T.);
#609 = EDGE_CURVE('',#601,#610,#612,.T.);
#610 = VERTEX_POINT('',#611);
#611 = CARTESIAN_POINT('',(94.6,35.5,2.));
#612 = CIRCLE('',#613,1.4);
#613 = AXIS2_PLACEMENT_3D('',#614,#615,#616);
#614 = CARTESIAN_POINT('',(96.,35.5,2.));
#615 = DIRECTION('',(-0.,0.,-1.));
#616 = DIRECTION('',(-1.E-08,-1.,0.));
#617 = ORIENTED_EDGE('',*,*,#618,.F.);
#618 = EDGE_CURVE('',#592,#610,#619,.T.);
#619 = CIRCLE('',#620,1.4);
#620 = AXIS2_PLACEMENT_3D('',#621,#622,#623);
#621 = CARTESIAN_POINT('',(96.,35.5,2.));
#622 = DIRECTION('',(0.,-0.,1.));
#623 = DIRECTION('',(2.E-08,1.,0.));
#624 = PLANE('',#625);
#625 = AXIS2_PLACEMENT_3D('',#626,#627,#628);
#626 = CARTESIAN_POINT('',(0.,0.,2.));
#627 = DIRECTION('',(0.,-0.,1.));
#628 = DIRECTION('',(1.,0.,0.));
#629 = ADVANCED_FACE('',(#630),#646,.F.);
#630 = FACE_BOUND('',#631,.T.);
#631 = EDGE_LOOP('',(#632,#638,#639,#645));
#632 = ORIENTED_EDGE('',*,*,#633,.T.);
#633 = EDGE_CURVE('',#113,#313,#634,.T.);
#634 = LINE('',#635,#636);
#635 = CARTESIAN_POINT('',(57.50000001,71.,4.));
#636 = VECTOR('',#637,1.);
#637 = DIRECTION('',(0.,-1.,0.));
#638 = ORIENTED_EDGE('',*,*,#338,.F.);
#639 = ORIENTED_EDGE('',*,*,#640,.F.);
#640 = EDGE_CURVE('',#115,#331,#641,.T.);
#641 = LINE('',#642,#643);
#642 = CARTESIAN_POINT('',(57.50000001,71.,11.));
#643 = VECTOR('',#644,1.);
#644 = DIRECTION('',(-0.,-1.,0.));
#645 = ORIENTED_EDGE('',*,*,#112,.F.);
#646 = PLANE('',#647);
#647 = AXIS2_PLACEMENT_3D('',#648,#649,#650);
#648 = CARTESIAN_POINT('',(57.50000001,69.3,7.5));
#649 = DIRECTION('',(1.,-0.,-0.));
#650 = DIRECTION('',(0.,0.,1.));
#651 = ADVANCED_FACE('',(#652),#663,.F.);
#652 = FACE_BOUND('',#653,.T.);
#653 = EDGE_LOOP('',(#654,#655,#656,#662));
#654 = ORIENTED_EDGE('',*,*,#640,.T.);
#655 = ORIENTED_EDGE('',*,*,#330,.F.);
#656 = ORIENTED_EDGE('',*,*,#657,.F.);
#657 = EDGE_CURVE('',#123,#323,#658,.T.);
#658 = LINE('',#659,#660);
#659 = CARTESIAN_POINT('',(43.50000001,71.,11.));
#660 = VECTOR('',#661,1.);
#661 = DIRECTION('',(0.,-1.,0.));
#662 = ORIENTED_EDGE('',*,*,#122,.F.);
#663 = PLANE('',#664);
#664 = AXIS2_PLACEMENT_3D('',#665,#666,#667);
#665 = CARTESIAN_POINT('',(50.50000001,69.3,11.));
#666 = DIRECTION('',(0.,0.,1.));
#667 = DIRECTION('',(1.,0.,-0.));
#668 = ADVANCED_FACE('',(#669),#680,.F.);
#669 = FACE_BOUND('',#670,.T.);
#670 = EDGE_LOOP('',(#671,#672,#673,#679));
#671 = ORIENTED_EDGE('',*,*,#657,.T.);
#672 = ORIENTED_EDGE('',*,*,#322,.F.);
#673 = ORIENTED_EDGE('',*,*,#674,.F.);
#674 = EDGE_CURVE('',#131,#315,#675,.T.);
#675 = LINE('',#676,#677);
#676 = CARTESIAN_POINT('',(43.5,71.,4.));
#677 = VECTOR('',#678,1.);
#678 = DIRECTION('',(0.,-1.,0.));
#679 = ORIENTED_EDGE('',*,*,#130,.F.);
#680 = PLANE('',#681);
#681 = AXIS2_PLACEMENT_3D('',#682,#683,#684);
#682 = CARTESIAN_POINT('',(43.50000001,69.3,7.5));
#683 = DIRECTION('',(-1.,0.,0.));
#684 = DIRECTION('',(0.,0.,-1.));
#685 = ADVANCED_FACE('',(#686),#692,.F.);
#686 = FACE_BOUND('',#687,.T.);
#687 = EDGE_LOOP('',(#688,#689,#690,#691));
#688 = ORIENTED_EDGE('',*,*,#674,.T.);
#689 = ORIENTED_EDGE('',*,*,#312,.F.);
#690 = ORIENTED_EDGE('',*,*,#633,.F.);
#691 = ORIENTED_EDGE('',*,*,#138,.F.);
#692 = PLANE('',#693);
#693 = AXIS2_PLACEMENT_3D('',#694,#695,#696);
#694 = CARTESIAN_POINT('',(50.5,69.3,4.));
#695 = DIRECTION('',(0.,-0.,-1.));
#696 = DIRECTION('',(-1.,0.,-0.));
#697 = ADVANCED_FACE('',(#698,#718),#756,.T.);
#698 = FACE_BOUND('',#699,.T.);
#699 = EDGE_LOOP('',(#700,#711));
#700 = ORIENTED_EDGE('',*,*,#701,.T.);
#701 = EDGE_CURVE('',#702,#704,#706,.T.);
#702 = VERTEX_POINT('',#703);
#703 = CARTESIAN_POINT('',(11.,7.,8.));
#704 = VERTEX_POINT('',#705);
#705 = CARTESIAN_POINT('',(3.,7.,8.));
#706 = CIRCLE('',#707,4.);
#707 = AXIS2_PLACEMENT_3D('',#708,#709,#710);
#708 = CARTESIAN_POINT('',(7.,7.,8.));
#709 = DIRECTION('',(0.,-0.,1.));
#710 = DIRECTION('',(1.,0.,0.));
#711 = ORIENTED_EDGE('',*,*,#712,.T.);
#712 = EDGE_CURVE('',#704,#702,#713,.T.);
#713 = CIRCLE('',#714,4.);
#714 = AXIS2_PLACEMENT_3D('',#715,#716,#717);
#715 = CARTESIAN_POINT('',(7.,7.,8.));
#716 = DIRECTION('',(0.,0.,1.));
#717 = DIRECTION('',(-1.,0.,0.));
#718 = FACE_BOUND('',#719,.T.);
#719 = EDGE_LOOP('',(#720,#731,#740,#749));
#720 = ORIENTED_EDGE('',*,*,#721,.F.);
#721 = EDGE_CURVE('',#722,#724,#726,.T.);
#722 = VERTEX_POINT('',#723);
#723 = CARTESIAN_POINT('',(8.6,7.,8.));
#724 = VERTEX_POINT('',#725);
#725 = CARTESIAN_POINT('',(7.,8.6,8.));
#726 = CIRCLE('',#727,1.6);
#727 = AXIS2_PLACEMENT_3D('',#728,#729,#730);
#728 = CARTESIAN_POINT('',(7.,7.,8.));
#729 = DIRECTION('',(0.,0.,1.));
#730 = DIRECTION('',(1.,0.,-0.));
#731 = ORIENTED_EDGE('',*,*,#732,.T.);
#732 = EDGE_CURVE('',#722,#733,#735,.T.);
#733 = VERTEX_POINT('',#734);
#734 = CARTESIAN_POINT('',(7.,5.4,8.));
#735 = CIRCLE('',#736,1.6);
#736 = AXIS2_PLACEMENT_3D('',#737,#738,#739);
#737 = CARTESIAN_POINT('',(7.,7.,8.));
#738 = DIRECTION('',(0.,-0.,-1.));
#739 = DIRECTION('',(1.,-0.,0.));
#740 = ORIENTED_EDGE('',*,*,#741,.T.);
#741 = EDGE_CURVE('',#733,#742,#744,.T.);
#742 = VERTEX_POINT('',#743);
#743 = CARTESIAN_POINT('',(5.4,7.,8.));
#744 = CIRCLE('',#745,1.6);
#745 = AXIS2_PLACEMENT_3D('',#746,#747,#748);
#746 = CARTESIAN_POINT('',(7.,7.,8.));
#747 = DIRECTION('',(-0.,0.,-1.));
#748 = DIRECTION('',(0.,-1.,-0.));
#749 = ORIENTED_EDGE('',*,*,#750,.F.);
#750 = EDGE_CURVE('',#724,#742,#751,.T.);
#751 = CIRCLE('',#752,1.6);
#752 = AXIS2_PLACEMENT_3D('',#753,#754,#755);
#753 = CARTESIAN_POINT('',(7.,7.,8.));
#754 = DIRECTION('',(0.,-0.,1.));
#755 = DIRECTION('',(0.,1.,0.));
#756 = PLANE('',#757);
#757 = AXIS2_PLACEMENT_3D('',#758,#759,#760);
#758 = CARTESIAN_POINT('',(0.,0.,8.));
#759 = DIRECTION('',(0.,-0.,1.));
#760 = DIRECTION('',(1.,0.,0.));
#761 = ADVANCED_FACE('',(#762),#779,.T.);
#762 = FACE_BOUND('',#763,.T.);
#763 = EDGE_LOOP('',(#764,#770,#771,#772,#778));
#764 = ORIENTED_EDGE('',*,*,#765,.F.);
#765 = EDGE_CURVE('',#420,#704,#766,.T.);
#766 = LINE('',#767,#768);
#767 = CARTESIAN_POINT('',(3.,7.,2.));
#768 = VECTOR('',#769,1.);
#769 = DIRECTION('',(0.,-0.,1.));
#770 = ORIENTED_EDGE('',*,*,#419,.F.);
#771 = ORIENTED_EDGE('',*,*,#410,.F.);
#772 = ORIENTED_EDGE('',*,*,#773,.T.);
#773 = EDGE_CURVE('',#400,#702,#774,.T.);
#774 = LINE('',#775,#776);
#775 = CARTESIAN_POINT('',(11.,7.,2.));
#776 = VECTOR('',#777,1.);
#777 = DIRECTION('',(0.,-0.,1.));
#778 = ORIENTED_EDGE('',*,*,#712,.F.);
#779 = CYLINDRICAL_SURFACE('',#780,4.);
#780 = AXIS2_PLACEMENT_3D('',#781,#782,#783);
#781 = CARTESIAN_POINT('',(7.,7.,4.75));
#782 = DIRECTION('',(0.,-0.,1.));
#783 = DIRECTION('',(1.,0.,0.));
#784 = ADVANCED_FACE('',(#785),#792,.T.);
#785 = FACE_BOUND('',#786,.T.);
#786 = EDGE_LOOP('',(#787,#788,#789,#790,#791));
#787 = ORIENTED_EDGE('',*,*,#765,.T.);
#788 = ORIENTED_EDGE('',*,*,#701,.F.);
#789 = ORIENTED_EDGE('',*,*,#773,.F.);
#790 = ORIENTED_EDGE('',*,*,#399,.T.);
#791 = ORIENTED_EDGE('',*,*,#428,.T.);
#792 = CYLINDRICAL_SURFACE('',#793,4.);
#793 = AXIS2_PLACEMENT_3D('',#794,#795,#796);
#794 = CARTESIAN_POINT('',(7.,7.,4.75));
#795 = DIRECTION('',(0.,-0.,1.));
#796 = DIRECTION('',(1.,0.,0.));
#797 = ADVANCED_FACE('',(#798,#818),#856,.T.);
#798 = FACE_BOUND('',#799,.T.);
#799 = EDGE_LOOP('',(#800,#811));
#800 = ORIENTED_EDGE('',*,*,#801,.T.);
#801 = EDGE_CURVE('',#802,#804,#806,.T.);
#802 = VERTEX_POINT('',#803);
#803 = CARTESIAN_POINT('',(98.00000001,7.,8.));
#804 = VERTEX_POINT('',#805);
#805 = CARTESIAN_POINT('',(90.,7.,8.));
#806 = CIRCLE('',#807,4.);
#807 = AXIS2_PLACEMENT_3D('',#808,#809,#810);
#808 = CARTESIAN_POINT('',(94.,7.,8.));
#809 = DIRECTION('',(0.,-0.,1.));
#810 = DIRECTION('',(1.,0.,0.));
#811 = ORIENTED_EDGE('',*,*,#812,.T.);
#812 = EDGE_CURVE('',#804,#802,#813,.T.);
#813 = CIRCLE('',#814,4.);
#814 = AXIS2_PLACEMENT_3D('',#815,#816,#817);
#815 = CARTESIAN_POINT('',(94.,7.,8.));
#816 = DIRECTION('',(0.,0.,1.));
#817 = DIRECTION('',(-1.,0.,0.));
#818 = FACE_BOUND('',#819,.T.);
#819 = EDGE_LOOP('',(#820,#831,#840,#849));
#820 = ORIENTED_EDGE('',*,*,#821,.F.);
#821 = EDGE_CURVE('',#822,#824,#826,.T.);
#822 = VERTEX_POINT('',#823);
#823 = CARTESIAN_POINT('',(95.60000001,7.,8.));
#824 = VERTEX_POINT('',#825);
#825 = CARTESIAN_POINT('',(94.00000001,8.6,8.));
#826 = CIRCLE('',#827,1.6);
#827 = AXIS2_PLACEMENT_3D('',#828,#829,#830);
#828 = CARTESIAN_POINT('',(94.,7.,8.));
#829 = DIRECTION('',(0.,-0.,1.));
#830 = DIRECTION('',(1.,0.,0.));
#831 = ORIENTED_EDGE('',*,*,#832,.T.);
#832 = EDGE_CURVE('',#822,#833,#835,.T.);
#833 = VERTEX_POINT('',#834);
#834 = CARTESIAN_POINT('',(94.,5.4,8.));
#835 = CIRCLE('',#836,1.6);
#836 = AXIS2_PLACEMENT_3D('',#837,#838,#839);
#837 = CARTESIAN_POINT('',(94.,7.,8.));
#838 = DIRECTION('',(-0.,0.,-1.));
#839 = DIRECTION('',(1.,0.,-0.));
#840 = ORIENTED_EDGE('',*,*,#841,.T.);
#841 = EDGE_CURVE('',#833,#842,#844,.T.);
#842 = VERTEX_POINT('',#843);
#843 = CARTESIAN_POINT('',(92.4,7.,8.));
#844 = CIRCLE('',#845,1.6);
#845 = AXIS2_PLACEMENT_3D('',#846,#847,#848);
#846 = CARTESIAN_POINT('',(94.,7.,8.));
#847 = DIRECTION('',(0.,0.,-1.));
#848 = DIRECTION('',(0.,-1.,0.));
#849 = ORIENTED_EDGE('',*,*,#850,.F.);
#850 = EDGE_CURVE('',#824,#842,#851,.T.);
#851 = CIRCLE('',#852,1.6);
#852 = AXIS2_PLACEMENT_3D('',#853,#854,#855);
#853 = CARTESIAN_POINT('',(94.,7.,8.));
#854 = DIRECTION('',(0.,-0.,1.));
#855 = DIRECTION('',(0.,1.,0.));
#856 = PLANE('',#857);
#857 = AXIS2_PLACEMENT_3D('',#858,#859,#860);
#858 = CARTESIAN_POINT('',(0.,0.,8.));
#859 = DIRECTION('',(0.,-0.,1.));
#860 = DIRECTION('',(1.,0.,0.));
#861 = ADVANCED_FACE('',(#862),#879,.T.);
#862 = FACE_BOUND('',#863,.T.);
#863 = EDGE_LOOP('',(#864,#870,#871,#872,#878));
#864 = ORIENTED_EDGE('',*,*,#865,.F.);
#865 = EDGE_CURVE('',#458,#804,#866,.T.);
#866 = LINE('',#867,#868);
#867 = CARTESIAN_POINT('',(90.,7.,2.));
#868 = VECTOR('',#869,1.);
#869 = DIRECTION('',(0.,-0.,1.));
#870 = ORIENTED_EDGE('',*,*,#457,.F.);
#871 = ORIENTED_EDGE('',*,*,#448,.F.);
#872 = ORIENTED_EDGE('',*,*,#873,.T.);
#873 = EDGE_CURVE('',#438,#802,#874,.T.);
#874 = LINE('',#875,#876);
#875 = CARTESIAN_POINT('',(98.00000001,7.,2.));
#876 = VECTOR('',#877,1.);
#877 = DIRECTION('',(0.,-0.,1.));
#878 = ORIENTED_EDGE('',*,*,#812,.F.);
#879 = CYLINDRICAL_SURFACE('',#880,4.);
#880 = AXIS2_PLACEMENT_3D('',#881,#882,#883);
#881 = CARTESIAN_POINT('',(94.,7.,4.75));
#882 = DIRECTION('',(0.,-0.,1.));
#883 = DIRECTION('',(1.,0.,0.));
#884 = ADVANCED_FACE('',(#885),#892,.T.);
#885 = FACE_BOUND('',#886,.T.);
#886 = EDGE_LOOP('',(#887,#888,#889,#890,#891));
#887 = ORIENTED_EDGE('',*,*,#865,.T.);
#888 = ORIENTED_EDGE('',*,*,#801,.F.);
#889 = ORIENTED_EDGE('',*,*,#873,.F.);
#890 = ORIENTED_EDGE('',*,*,#437,.T.);
#891 = ORIENTED_EDGE('',*,*,#466,.T.);
#892 = CYLINDRICAL_SURFACE('',#893,4.);
#893 = AXIS2_PLACEMENT_3D('',#894,#895,#896);
#894 = CARTESIAN_POINT('',(94.,7.,4.75));
#895 = DIRECTION('',(0.,-0.,1.));
#896 = DIRECTION('',(1.,0.,0.));
#897 = ADVANCED_FACE('',(#898,#918),#956,.T.);
#898 = FACE_BOUND('',#899,.T.);
#899 = EDGE_LOOP('',(#900,#911));
#900 = ORIENTED_EDGE('',*,*,#901,.T.);
#901 = EDGE_CURVE('',#902,#904,#906,.T.);
#902 = VERTEX_POINT('',#903);
#903 = CARTESIAN_POINT('',(98.00000001,64.,8.));
#904 = VERTEX_POINT('',#905);
#905 = CARTESIAN_POINT('',(90.,64.,8.));
#906 = CIRCLE('',#907,4.);
#907 = AXIS2_PLACEMENT_3D('',#908,#909,#910);
#908 = CARTESIAN_POINT('',(94.,64.,8.));
#909 = DIRECTION('',(0.,-0.,1.));
#910 = DIRECTION('',(1.,0.,0.));
#911 = ORIENTED_EDGE('',*,*,#912,.T.);
#912 = EDGE_CURVE('',#904,#902,#913,.T.);
#913 = CIRCLE('',#914,4.);
#914 = AXIS2_PLACEMENT_3D('',#915,#916,#917);
#915 = CARTESIAN_POINT('',(94.,64.,8.));
#916 = DIRECTION('',(0.,0.,1.));
#917 = DIRECTION('',(-1.,0.,0.));
#918 = FACE_BOUND('',#919,.T.);
#919 = EDGE_LOOP('',(#920,#931,#940,#949));
#920 = ORIENTED_EDGE('',*,*,#921,.F.);
#921 = EDGE_CURVE('',#922,#924,#926,.T.);
#922 = VERTEX_POINT('',#923);
#923 = CARTESIAN_POINT('',(95.60000001,64.,8.));
#924 = VERTEX_POINT('',#925);
#925 = CARTESIAN_POINT('',(94.00000001,65.6,8.));
#926 = CIRCLE('',#927,1.6);
#927 = AXIS2_PLACEMENT_3D('',#928,#929,#930);
#928 = CARTESIAN_POINT('',(94.,64.,8.));
#929 = DIRECTION('',(0.,0.,1.));
#930 = DIRECTION('',(1.,0.,-0.));
#931 = ORIENTED_EDGE('',*,*,#932,.T.);
#932 = EDGE_CURVE('',#922,#933,#935,.T.);
#933 = VERTEX_POINT('',#934);
#934 = CARTESIAN_POINT('',(94.,62.4,8.));
#935 = CIRCLE('',#936,1.6);
#936 = AXIS2_PLACEMENT_3D('',#937,#938,#939);
#937 = CARTESIAN_POINT('',(94.,64.,8.));
#938 = DIRECTION('',(0.,-0.,-1.));
#939 = DIRECTION('',(1.,-0.,0.));
#940 = ORIENTED_EDGE('',*,*,#941,.T.);
#941 = EDGE_CURVE('',#933,#942,#944,.T.);
#942 = VERTEX_POINT('',#943);
#943 = CARTESIAN_POINT('',(92.4,64.,8.));
#944 = CIRCLE('',#945,1.6);
#945 = AXIS2_PLACEMENT_3D('',#946,#947,#948);
#946 = CARTESIAN_POINT('',(94.,64.,8.));
#947 = DIRECTION('',(-0.,0.,-1.));
#948 = DIRECTION('',(-0.,-1.,0.));
#949 = ORIENTED_EDGE('',*,*,#950,.F.);
#950 = EDGE_CURVE('',#924,#942,#951,.T.);
#951 = CIRCLE('',#952,1.6);
#952 = AXIS2_PLACEMENT_3D('',#953,#954,#955);
#953 = CARTESIAN_POINT('',(94.,64.,8.));
#954 = DIRECTION('',(0.,0.,1.));
#955 = DIRECTION('',(0.,1.,-0.));
#956 = PLANE('',#957);
#957 = AXIS2_PLACEMENT_3D('',#958,#959,#960);
#958 = CARTESIAN_POINT('',(0.,0.,8.));
#959 = DIRECTION('',(0.,-0.,1.));
#960 = DIRECTION('',(1.,0.,0.));
#961 = ADVANCED_FACE('',(#962),#979,.T.);
#962 = FACE_BOUND('',#963,.T.);
#963 = EDGE_LOOP('',(#964,#970,#971,#972,#978));
#964 = ORIENTED_EDGE('',*,*,#965,.F.);
#965 = EDGE_CURVE('',#496,#904,#966,.T.);
#966 = LINE('',#967,#968);
#967 = CARTESIAN_POINT('',(90.,64.,2.));
#968 = VECTOR('',#969,1.);
#969 = DIRECTION('',(0.,-0.,1.));
#970 = ORIENTED_EDGE('',*,*,#495,.F.);
#971 = ORIENTED_EDGE('',*,*,#486,.F.);
#972 = ORIENTED_EDGE('',*,*,#973,.T.);
#973 = EDGE_CURVE('',#476,#902,#974,.T.);
#974 = LINE('',#975,#976);
#975 = CARTESIAN_POINT('',(98.00000001,64.,2.));
#976 = VECTOR('',#977,1.);
#977 = DIRECTION('',(0.,-0.,1.));
#978 = ORIENTED_EDGE('',*,*,#912,.F.);
#979 = CYLINDRICAL_SURFACE('',#980,4.);
#980 = AXIS2_PLACEMENT_3D('',#981,#982,#983);
#981 = CARTESIAN_POINT('',(94.,64.,4.75));
#982 = DIRECTION('',(0.,-0.,1.));
#983 = DIRECTION('',(1.,0.,0.));
#984 = ADVANCED_FACE('',(#985),#992,.T.);
#985 = FACE_BOUND('',#986,.T.);
#986 = EDGE_LOOP('',(#987,#988,#989,#990,#991));
#987 = ORIENTED_EDGE('',*,*,#965,.T.);
#988 = ORIENTED_EDGE('',*,*,#901,.F.);
#989 = ORIENTED_EDGE('',*,*,#973,.F.);
#990 = ORIENTED_EDGE('',*,*,#475,.T.);
#991 = ORIENTED_EDGE('',*,*,#504,.T.);
#992 = CYLINDRICAL_SURFACE('',#993,4.);
#993 = AXIS2_PLACEMENT_3D('',#994,#995,#996);
#994 = CARTESIAN_POINT('',(94.,64.,4.75));
#995 = DIRECTION('',(0.,-0.,1.));
#996 = DIRECTION('',(1.,0.,0.));
#997 = ADVANCED_FACE('',(#998,#1018),#1056,.T.);
#998 = FACE_BOUND('',#999,.T.);
#999 = EDGE_LOOP('',(#1000,#1011));
#1000 = ORIENTED_EDGE('',*,*,#1001,.T.);
#1001 = EDGE_CURVE('',#1002,#1004,#1006,.T.);
#1002 = VERTEX_POINT('',#1003);
#1003 = CARTESIAN_POINT('',(11.,64.,8.));
#1004 = VERTEX_POINT('',#1005);
#1005 = CARTESIAN_POINT('',(3.,64.,8.));
#1006 = CIRCLE('',#1007,4.);
#1007 = AXIS2_PLACEMENT_3D('',#1008,#1009,#1010);
#1008 = CARTESIAN_POINT('',(7.,64.,8.));
#1009 = DIRECTION('',(0.,-0.,1.));
#1010 = DIRECTION('',(1.,0.,0.));
#1011 = ORIENTED_EDGE('',*,*,#1012,.T.);
#1012 = EDGE_CURVE('',#1004,#1002,#1013,.T.);
#1013 = CIRCLE('',#1014,4.);
#1014 = AXIS2_PLACEMENT_3D('',#1015,#1016,#1017);
#1015 = CARTESIAN_POINT('',(7.,64.,8.));
#1016 = DIRECTION('',(0.,0.,1.));
#1017 = DIRECTION('',(-1.,0.,0.));
#1018 = FACE_BOUND('',#1019,.T.);
#1019 = EDGE_LOOP('',(#1020,#1031,#1040,#1049));
#1020 = ORIENTED_EDGE('',*,*,#1021,.F.);
#1021 = EDGE_CURVE('',#1022,#1024,#1026,.T.);
#1022 = VERTEX_POINT('',#1023);
#1023 = CARTESIAN_POINT('',(8.6,64.,8.));
#1024 = VERTEX_POINT('',#1025);
#1025 = CARTESIAN_POINT('',(7.,65.6,8.));
#1026 = CIRCLE('',#1027,1.6);
#1027 = AXIS2_PLACEMENT_3D('',#1028,#1029,#1030);
#1028 = CARTESIAN_POINT('',(7.,64.,8.));
#1029 = DIRECTION('',(0.,0.,1.));
#1030 = DIRECTION('',(1.,0.,-0.));
#1031 = ORIENTED_EDGE('',*,*,#1032,.T.);
#1032 = EDGE_CURVE('',#1022,#1033,#1035,.T.);
#1033 = VERTEX_POINT('',#1034);
#1034 = CARTESIAN_POINT('',(7.,62.4,8.));
#1035 = CIRCLE('',#1036,1.6);
#1036 = AXIS2_PLACEMENT_3D('',#1037,#1038,#1039);
#1037 = CARTESIAN_POINT('',(7.,64.,8.));
#1038 = DIRECTION('',(0.,-0.,-1.));
#1039 = DIRECTION('',(1.,-0.,0.));
#1040 = ORIENTED_EDGE('',*,*,#1041,.T.);
#1041 = EDGE_CURVE('',#1033,#1042,#1044,.T.);
#1042 = VERTEX_POINT('',#1043);
#1043 = CARTESIAN_POINT('',(5.4,64.,8.));
#1044 = CIRCLE('',#1045,1.6);
#1045 = AXIS2_PLACEMENT_3D('',#1046,#1047,#1048);
#1046 = CARTESIAN_POINT('',(7.,64.,8.));
#1047 = DIRECTION('',(-0.,0.,-1.));
#1048 = DIRECTION('',(-0.,-1.,0.));
#1049 = ORIENTED_EDGE('',*,*,#1050,.F.);
#1050 = EDGE_CURVE('',#1024,#1042,#1051,.T.);
#1051 = CIRCLE('',#1052,1.6);
#1052 = AXIS2_PLACEMENT_3D('',#1053,#1054,#1055);
#1053 = CARTESIAN_POINT('',(7.,64.,8.));
#1054 = DIRECTION('',(0.,-0.,1.));
#1055 = DIRECTION('',(0.,1.,0.));
#1056 = PLANE('',#1057);
#1057 = AXIS2_PLACEMENT_3D('',#1058,#1059,#1060);
#1058 = CARTESIAN_POINT('',(0.,0.,8.));
#1059 = DIRECTION('',(0.,-0.,1.));
#1060 = DIRECTION('',(1.,0.,0.));
#1061 = ADVANCED_FACE('',(#1062),#1079,.T.);
#1062 = FACE_BOUND('',#1063,.T.);
#1063 = EDGE_LOOP('',(#1064,#1070,#1071,#1072,#1078));
#1064 = ORIENTED_EDGE('',*,*,#1065,.F.);
#1065 = EDGE_CURVE('',#534,#1004,#1066,.T.);
#1066 = LINE('',#1067,#1068);
#1067 = CARTESIAN_POINT('',(3.,64.,2.));
#1068 = VECTOR('',#1069,1.);
#1069 = DIRECTION('',(0.,-0.,1.));
#1070 = ORIENTED_EDGE('',*,*,#533,.F.);
#1071 = ORIENTED_EDGE('',*,*,#524,.F.);
#1072 = ORIENTED_EDGE('',*,*,#1073,.T.);
#1073 = EDGE_CURVE('',#514,#1002,#1074,.T.);
#1074 = LINE('',#1075,#1076);
#1075 = CARTESIAN_POINT('',(11.,64.,2.));
#1076 = VECTOR('',#1077,1.);
#1077 = DIRECTION('',(0.,-0.,1.));
#1078 = ORIENTED_EDGE('',*,*,#1012,.F.);
#1079 = CYLINDRICAL_SURFACE('',#1080,4.);
#1080 = AXIS2_PLACEMENT_3D('',#1081,#1082,#1083);
#1081 = CARTESIAN_POINT('',(7.,64.,4.75));
#1082 = DIRECTION('',(0.,-0.,1.));
#1083 = DIRECTION('',(1.,0.,0.));
#1084 = ADVANCED_FACE('',(#1085),#1092,.T.);
#1085 = FACE_BOUND('',#1086,.T.);
#1086 = EDGE_LOOP('',(#1087,#1088,#1089,#1090,#1091));
#1087 = ORIENTED_EDGE('',*,*,#1065,.T.);
#1088 = ORIENTED_EDGE('',*,*,#1001,.F.);
#1089 = ORIENTED_EDGE('',*,*,#1073,.F.);
#1090 = ORIENTED_EDGE('',*,*,#513,.T.);
#1091 = ORIENTED_EDGE('',*,*,#542,.T.);
#1092 = CYLINDRICAL_SURFACE('',#1093,4.);
#1093 = AXIS2_PLACEMENT_3D('',#1094,#1095,#1096);
#1094 = CARTESIAN_POINT('',(7.,64.,4.75));
#1095 = DIRECTION('',(0.,-0.,1.));
#1096 = DIRECTION('',(1.,0.,0.));
#1097 = ADVANCED_FACE('',(#1098),#1125,.F.);
#1098 = FACE_BOUND('',#1099,.F.);
#1099 = EDGE_LOOP('',(#1100,#1108,#1109,#1110,#1118));
#1100 = ORIENTED_EDGE('',*,*,#1101,.T.);
#1101 = EDGE_CURVE('',#1102,#742,#1104,.T.);
#1102 = VERTEX_POINT('',#1103);
#1103 = CARTESIAN_POINT('',(5.4,7.,1.5));
#1104 = LINE('',#1105,#1106);
#1105 = CARTESIAN_POINT('',(5.4,7.,1.5));
#1106 = VECTOR('',#1107,1.);
#1107 = DIRECTION('',(0.,-0.,1.));
#1108 = ORIENTED_EDGE('',*,*,#750,.F.);
#1109 = ORIENTED_EDGE('',*,*,#721,.F.);
#1110 = ORIENTED_EDGE('',*,*,#1111,.F.);
#1111 = EDGE_CURVE('',#1112,#722,#1114,.T.);
#1112 = VERTEX_POINT('',#1113);
#1113 = CARTESIAN_POINT('',(8.6,7.,1.5));
#1114 = LINE('',#1115,#1116);
#1115 = CARTESIAN_POINT('',(8.6,7.,1.5));
#1116 = VECTOR('',#1117,1.);
#1117 = DIRECTION('',(0.,-0.,1.));
#1118 = ORIENTED_EDGE('',*,*,#1119,.T.);
#1119 = EDGE_CURVE('',#1112,#1102,#1120,.T.);
#1120 = CIRCLE('',#1121,1.6);
#1121 = AXIS2_PLACEMENT_3D('',#1122,#1123,#1124);
#1122 = CARTESIAN_POINT('',(7.,7.,1.5));
#1123 = DIRECTION('',(0.,-0.,1.));
#1124 = DIRECTION('',(1.,0.,0.));
#1125 = CYLINDRICAL_SURFACE('',#1126,1.6);
#1126 = AXIS2_PLACEMENT_3D('',#1127,#1128,#1129);
#1127 = CARTESIAN_POINT('',(7.,7.,5.));
#1128 = DIRECTION('',(0.,-0.,1.));
#1129 = DIRECTION('',(1.,0.,0.));
#1130 = ADVANCED_FACE('',(#1131),#1141,.T.);
#1131 = FACE_BOUND('',#1132,.T.);
#1132 = EDGE_LOOP('',(#1133,#1134));
#1133 = ORIENTED_EDGE('',*,*,#1119,.T.);
#1134 = ORIENTED_EDGE('',*,*,#1135,.T.);
#1135 = EDGE_CURVE('',#1102,#1112,#1136,.T.);
#1136 = CIRCLE('',#1137,1.6);
#1137 = AXIS2_PLACEMENT_3D('',#1138,#1139,#1140);
#1138 = CARTESIAN_POINT('',(7.,7.,1.5));
#1139 = DIRECTION('',(0.,0.,1.));
#1140 = DIRECTION('',(-1.,0.,0.));
#1141 = PLANE('',#1142);
#1142 = AXIS2_PLACEMENT_3D('',#1143,#1144,#1145);
#1143 = CARTESIAN_POINT('',(0.,0.,1.5));
#1144 = DIRECTION('',(0.,-0.,1.));
#1145 = DIRECTION('',(1.,0.,0.));
#1146 = ADVANCED_FACE('',(#1147),#1154,.F.);
#1147 = FACE_BOUND('',#1148,.F.);
#1148 = EDGE_LOOP('',(#1149,#1150,#1151,#1152,#1153));
#1149 = ORIENTED_EDGE('',*,*,#1101,.F.);
#1150 = ORIENTED_EDGE('',*,*,#1135,.T.);
#1151 = ORIENTED_EDGE('',*,*,#1111,.T.);
#1152 = ORIENTED_EDGE('',*,*,#732,.T.);
#1153 = ORIENTED_EDGE('',*,*,#741,.T.);
#1154 = CYLINDRICAL_SURFACE('',#1155,1.6);
#1155 = AXIS2_PLACEMENT_3D('',#1156,#1157,#1158);
#1156 = CARTESIAN_POINT('',(7.,7.,5.));
#1157 = DIRECTION('',(0.,-0.,1.));
#1158 = DIRECTION('',(1.,0.,0.));
#1159 = ADVANCED_FACE('',(#1160),#1187,.F.);
#1160 = FACE_BOUND('',#1161,.F.);
#1161 = EDGE_LOOP('',(#1162,#1170,#1171,#1172,#1180));
#1162 = ORIENTED_EDGE('',*,*,#1163,.T.);
#1163 = EDGE_CURVE('',#1164,#842,#1166,.T.);
#1164 = VERTEX_POINT('',#1165);
#1165 = CARTESIAN_POINT('',(92.4,7.,1.5));
#1166 = LINE('',#1167,#1168);
#1167 = CARTESIAN_POINT('',(92.4,7.,1.5));
#1168 = VECTOR('',#1169,1.);
#1169 = DIRECTION('',(0.,-0.,1.));
#1170 = ORIENTED_EDGE('',*,*,#850,.F.);
#1171 = ORIENTED_EDGE('',*,*,#821,.F.);
#1172 = ORIENTED_EDGE('',*,*,#1173,.F.);
#1173 = EDGE_CURVE('',#1174,#822,#1176,.T.);
#1174 = VERTEX_POINT('',#1175);
#1175 = CARTESIAN_POINT('',(95.60000001,7.,1.5));
#1176 = LINE('',#1177,#1178);
#1177 = CARTESIAN_POINT('',(95.60000001,7.,1.5));
#1178 = VECTOR('',#1179,1.);
#1179 = DIRECTION('',(0.,-0.,1.));
#1180 = ORIENTED_EDGE('',*,*,#1181,.T.);
#1181 = EDGE_CURVE('',#1174,#1164,#1182,.T.);
#1182 = CIRCLE('',#1183,1.6);
#1183 = AXIS2_PLACEMENT_3D('',#1184,#1185,#1186);
#1184 = CARTESIAN_POINT('',(94.,7.,1.5));
#1185 = DIRECTION('',(0.,-0.,1.));
#1186 = DIRECTION('',(1.,0.,0.));
#1187 = CYLINDRICAL_SURFACE('',#1188,1.6);
#1188 = AXIS2_PLACEMENT_3D('',#1189,#1190,#1191);
#1189 = CARTESIAN_POINT('',(94.,7.,5.));
#1190 = DIRECTION('',(0.,-0.,1.));
#1191 = DIRECTION('',(1.,0.,0.));
#1192 = ADVANCED_FACE('',(#1193),#1203,.T.);
#1193 = FACE_BOUND('',#1194,.T.);
#1194 = EDGE_LOOP('',(#1195,#1196));
#1195 = ORIENTED_EDGE('',*,*,#1181,.T.);
#1196 = ORIENTED_EDGE('',*,*,#1197,.T.);
#1197 = EDGE_CURVE('',#1164,#1174,#1198,.T.);
#1198 = CIRCLE('',#1199,1.6);
#1199 = AXIS2_PLACEMENT_3D('',#1200,#1201,#1202);
#1200 = CARTESIAN_POINT('',(94.,7.,1.5));
#1201 = DIRECTION('',(0.,0.,1.));
#1202 = DIRECTION('',(-1.,0.,0.));
#1203 = PLANE('',#1204);
#1204 = AXIS2_PLACEMENT_3D('',#1205,#1206,#1207);
#1205 = CARTESIAN_POINT('',(0.,0.,1.5));
#1206 = DIRECTION('',(0.,-0.,1.));
#1207 = DIRECTION('',(1.,0.,0.));
#1208 = ADVANCED_FACE('',(#1209),#1216,.F.);
#1209 = FACE_BOUND('',#1210,.F.);
#1210 = EDGE_LOOP('',(#1211,#1212,#1213,#1214,#1215));
#1211 = ORIENTED_EDGE('',*,*,#1163,.F.);
#1212 = ORIENTED_EDGE('',*,*,#1197,.T.);
#1213 = ORIENTED_EDGE('',*,*,#1173,.T.);
#1214 = ORIENTED_EDGE('',*,*,#832,.T.);
#1215 = ORIENTED_EDGE('',*,*,#841,.T.);
#1216 = CYLINDRICAL_SURFACE('',#1217,1.6);
#1217 = AXIS2_PLACEMENT_3D('',#1218,#1219,#1220);
#1218 = CARTESIAN_POINT('',(94.,7.,5.));
#1219 = DIRECTION('',(0.,-0.,1.));
#1220 = DIRECTION('',(1.,0.,0.));
#1221 = ADVANCED_FACE('',(#1222),#1249,.F.);
#1222 = FACE_BOUND('',#1223,.F.);
#1223 = EDGE_LOOP('',(#1224,#1232,#1233,#1234,#1242));
#1224 = ORIENTED_EDGE('',*,*,#1225,.T.);
#1225 = EDGE_CURVE('',#1226,#942,#1228,.T.);
#1226 = VERTEX_POINT('',#1227);
#1227 = CARTESIAN_POINT('',(92.4,64.,1.5));
#1228 = LINE('',#1229,#1230);
#1229 = CARTESIAN_POINT('',(92.4,64.,1.5));
#1230 = VECTOR('',#1231,1.);
#1231 = DIRECTION('',(0.,-0.,1.));
#1232 = ORIENTED_EDGE('',*,*,#950,.F.);
#1233 = ORIENTED_EDGE('',*,*,#921,.F.);
#1234 = ORIENTED_EDGE('',*,*,#1235,.F.);
#1235 = EDGE_CURVE('',#1236,#922,#1238,.T.);
#1236 = VERTEX_POINT('',#1237);
#1237 = CARTESIAN_POINT('',(95.60000001,64.,1.5));
#1238 = LINE('',#1239,#1240);
#1239 = CARTESIAN_POINT('',(95.60000001,64.,1.5));
#1240 = VECTOR('',#1241,1.);
#1241 = DIRECTION('',(0.,-0.,1.));
#1242 = ORIENTED_EDGE('',*,*,#1243,.T.);
#1243 = EDGE_CURVE('',#1236,#1226,#1244,.T.);
#1244 = CIRCLE('',#1245,1.6);
#1245 = AXIS2_PLACEMENT_3D('',#1246,#1247,#1248);
#1246 = CARTESIAN_POINT('',(94.,64.,1.5));
#1247 = DIRECTION('',(0.,-0.,1.));
#1248 = DIRECTION('',(1.,0.,0.));
#1249 = CYLINDRICAL_SURFACE('',#1250,1.6);
#1250 = AXIS2_PLACEMENT_3D('',#1251,#1252,#1253);
#1251 = CARTESIAN_POINT('',(94.,64.,5.));
#1252 = DIRECTION('',(0.,-0.,1.));
#1253 = DIRECTION('',(1.,0.,0.));
#1254 = ADVANCED_FACE('',(#1255),#1265,.T.);
#1255 = FACE_BOUND('',#1256,.T.);
#1256 = EDGE_LOOP('',(#1257,#1258));
#1257 = ORIENTED_EDGE('',*,*,#1243,.T.);
#1258 = ORIENTED_EDGE('',*,*,#1259,.T.);
#1259 = EDGE_CURVE('',#1226,#1236,#1260,.T.);
#1260 = CIRCLE('',#1261,1.6);
#1261 = AXIS2_PLACEMENT_3D('',#1262,#1263,#1264);
#1262 = CARTESIAN_POINT('',(94.,64.,1.5));
#1263 = DIRECTION('',(0.,0.,1.));
#1264 = DIRECTION('',(-1.,0.,0.));
#1265 = PLANE('',#1266);
#1266 = AXIS2_PLACEMENT_3D('',#1267,#1268,#1269);
#1267 = CARTESIAN_POINT('',(0.,0.,1.5));
#1268 = DIRECTION('',(0.,-0.,1.));
#1269 = DIRECTION('',(1.,0.,0.));
#1270 = ADVANCED_FACE('',(#1271),#1278,.F.);
#1271 = FACE_BOUND('',#1272,.F.);
#1272 = EDGE_LOOP('',(#1273,#1274,#1275,#1276,#1277));
#1273 = ORIENTED_EDGE('',*,*,#1225,.F.);
#1274 = ORIENTED_EDGE('',*,*,#1259,.T.);
#1275 = ORIENTED_EDGE('',*,*,#1235,.T.);
#1276 = ORIENTED_EDGE('',*,*,#932,.T.);
#1277 = ORIENTED_EDGE('',*,*,#941,.T.);
#1278 = CYLINDRICAL_SURFACE('',#1279,1.6);
#1279 = AXIS2_PLACEMENT_3D('',#1280,#1281,#1282);
#1280 = CARTESIAN_POINT('',(94.,64.,5.));
#1281 = DIRECTION('',(0.,-0.,1.));
#1282 = DIRECTION('',(1.,0.,0.));
#1283 = ADVANCED_FACE('',(#1284),#1311,.F.);
#1284 = FACE_BOUND('',#1285,.F.);
#1285 = EDGE_LOOP('',(#1286,#1294,#1295,#1296,#1304));
#1286 = ORIENTED_EDGE('',*,*,#1287,.T.);
#1287 = EDGE_CURVE('',#1288,#1042,#1290,.T.);
#1288 = VERTEX_POINT('',#1289);
#1289 = CARTESIAN_POINT('',(5.4,64.,1.5));
#1290 = LINE('',#1291,#1292);
#1291 = CARTESIAN_POINT('',(5.4,64.,1.5));
#1292 = VECTOR('',#1293,1.);
#1293 = DIRECTION('',(0.,-0.,1.));
#1294 = ORIENTED_EDGE('',*,*,#1050,.F.);
#1295 = ORIENTED_EDGE('',*,*,#1021,.F.);
#1296 = ORIENTED_EDGE('',*,*,#1297,.F.);
#1297 = EDGE_CURVE('',#1298,#1022,#1300,.T.);
#1298 = VERTEX_POINT('',#1299);
#1299 = CARTESIAN_POINT('',(8.6,64.,1.5));
#1300 = LINE('',#1301,#1302);
#1301 = CARTESIAN_POINT('',(8.6,64.,1.5));
#1302 = VECTOR('',#1303,1.);
#1303 = DIRECTION('',(0.,-0.,1.));
#1304 = ORIENTED_EDGE('',*,*,#1305,.T.);
#1305 = EDGE_CURVE('',#1298,#1288,#1306,.T.);
#1306 = CIRCLE('',#1307,1.6);
#1307 = AXIS2_PLACEMENT_3D('',#1308,#1309,#1310);
#1308 = CARTESIAN_POINT('',(7.,64.,1.5));
#1309 = DIRECTION('',(0.,-0.,1.));
#1310 = DIRECTION('',(1.,0.,0.));
#1311 = CYLINDRICAL_SURFACE('',#1312,1.6);
#1312 = AXIS2_PLACEMENT_3D('',#1313,#1314,#1315);
#1313 = CARTESIAN_POINT('',(7.,64.,5.));
#1314 = DIRECTION('',(0.,-0.,1.));
#1315 = DIRECTION('',(1.,0.,0.));
#1316 = ADVANCED_FACE('',(#1317),#1327,.T.);
#1317 = FACE_BOUND('',#1318,.T.);
#1318 = EDGE_LOOP('',(#1319,#1320));
#1319 = ORIENTED_EDGE('',*,*,#1305,.T.);
#1320 = ORIENTED_EDGE('',*,*,#1321,.T.);
#1321 = EDGE_CURVE('',#1288,#1298,#1322,.T.);
#1322 = CIRCLE('',#1323,1.6);
#1323 = AXIS2_PLACEMENT_3D('',#1324,#1325,#1326);
#1324 = CARTESIAN_POINT('',(7.,64.,1.5));
#1325 = DIRECTION('',(0.,0.,1.));
#1326 = DIRECTION('',(-1.,0.,0.));
#1327 = PLANE('',#1328);
#1328 = AXIS2_PLACEMENT_3D('',#1329,#1330,#1331);
#1329 = CARTESIAN_POINT('',(0.,0.,1.5));
#1330 = DIRECTION('',(0.,-0.,1.));
#1331 = DIRECTION('',(1.,0.,0.));
#1332 = ADVANCED_FACE('',(#1333),#1340,.F.);
#1333 = FACE_BOUND('',#1334,.F.);
#1334 = EDGE_LOOP('',(#1335,#1336,#1337,#1338,#1339));
#1335 = ORIENTED_EDGE('',*,*,#1287,.F.);
#1336 = ORIENTED_EDGE('',*,*,#1321,.T.);
#1337 = ORIENTED_EDGE('',*,*,#1297,.T.);
#1338 = ORIENTED_EDGE('',*,*,#1032,.T.);
#1339 = ORIENTED_EDGE('',*,*,#1041,.T.);
#1340 = CYLINDRICAL_SURFACE('',#1341,1.6);
#1341 = AXIS2_PLACEMENT_3D('',#1342,#1343,#1344);
#1342 = CARTESIAN_POINT('',(7.,64.,5.));
#1343 = DIRECTION('',(0.,-0.,1.));
#1344 = DIRECTION('',(1.,0.,0.));
#1345 = ADVANCED_FACE('',(#1346),#1373,.F.);
#1346 = FACE_BOUND('',#1347,.F.);
#1347 = EDGE_LOOP('',(#1348,#1356,#1357,#1358,#1366));
#1348 = ORIENTED_EDGE('',*,*,#1349,.T.);
#1349 = EDGE_CURVE('',#1350,#572,#1352,.T.);
#1350 = VERTEX_POINT('',#1351);
#1351 = CARTESIAN_POINT('',(3.6,35.5,1.5));
#1352 = LINE('',#1353,#1354);
#1353 = CARTESIAN_POINT('',(3.6,35.5,1.5));
#1354 = VECTOR('',#1355,1.);
#1355 = DIRECTION('',(0.,-0.,1.));
#1356 = ORIENTED_EDGE('',*,*,#580,.F.);
#1357 = ORIENTED_EDGE('',*,*,#551,.F.);
#1358 = ORIENTED_EDGE('',*,*,#1359,.F.);
#1359 = EDGE_CURVE('',#1360,#552,#1362,.T.);
#1360 = VERTEX_POINT('',#1361);
#1361 = CARTESIAN_POINT('',(6.4,35.5,1.5));
#1362 = LINE('',#1363,#1364);
#1363 = CARTESIAN_POINT('',(6.4,35.5,1.5));
#1364 = VECTOR('',#1365,1.);
#1365 = DIRECTION('',(0.,-0.,1.));
#1366 = ORIENTED_EDGE('',*,*,#1367,.T.);
#1367 = EDGE_CURVE('',#1360,#1350,#1368,.T.);
#1368 = CIRCLE('',#1369,1.4);
#1369 = AXIS2_PLACEMENT_3D('',#1370,#1371,#1372);
#1370 = CARTESIAN_POINT('',(5.,35.5,1.5));
#1371 = DIRECTION('',(0.,-0.,1.));
#1372 = DIRECTION('',(1.,0.,0.));
#1373 = CYLINDRICAL_SURFACE('',#1374,1.4);
#1374 = AXIS2_PLACEMENT_3D('',#1375,#1376,#1377);
#1375 = CARTESIAN_POINT('',(5.,35.5,9.));
#1376 = DIRECTION('',(0.,-0.,1.));
#1377 = DIRECTION('',(1.,0.,0.));
#1378 = ADVANCED_FACE('',(#1379),#1389,.T.);
#1379 = FACE_BOUND('',#1380,.T.);
#1380 = EDGE_LOOP('',(#1381,#1382));
#1381 = ORIENTED_EDGE('',*,*,#1367,.T.);
#1382 = ORIENTED_EDGE('',*,*,#1383,.T.);
#1383 = EDGE_CURVE('',#1350,#1360,#1384,.T.);
#1384 = CIRCLE('',#1385,1.4);
#1385 = AXIS2_PLACEMENT_3D('',#1386,#1387,#1388);
#1386 = CARTESIAN_POINT('',(5.,35.5,1.5));
#1387 = DIRECTION('',(0.,0.,1.));
#1388 = DIRECTION('',(-1.,0.,0.));
#1389 = PLANE('',#1390);
#1390 = AXIS2_PLACEMENT_3D('',#1391,#1392,#1393);
#1391 = CARTESIAN_POINT('',(0.,0.,1.5));
#1392 = DIRECTION('',(0.,-0.,1.));
#1393 = DIRECTION('',(1.,0.,0.));
#1394 = ADVANCED_FACE('',(#1395),#1422,.F.);
#1395 = FACE_BOUND('',#1396,.F.);
#1396 = EDGE_LOOP('',(#1397,#1405,#1406,#1407,#1415));
#1397 = ORIENTED_EDGE('',*,*,#1398,.T.);
#1398 = EDGE_CURVE('',#1399,#610,#1401,.T.);
#1399 = VERTEX_POINT('',#1400);
#1400 = CARTESIAN_POINT('',(94.6,35.5,1.5));
#1401 = LINE('',#1402,#1403);
#1402 = CARTESIAN_POINT('',(94.6,35.5,1.5));
#1403 = VECTOR('',#1404,1.);
#1404 = DIRECTION('',(-0.,-0.,1.));
#1405 = ORIENTED_EDGE('',*,*,#618,.F.);
#1406 = ORIENTED_EDGE('',*,*,#589,.F.);
#1407 = ORIENTED_EDGE('',*,*,#1408,.F.);
#1408 = EDGE_CURVE('',#1409,#590,#1411,.T.);
#1409 = VERTEX_POINT('',#1410);
#1410 = CARTESIAN_POINT('',(97.4,35.5,1.5));
#1411 = LINE('',#1412,#1413);
#1412 = CARTESIAN_POINT('',(97.4,35.5,1.5));
#1413 = VECTOR('',#1414,1.);
#1414 = DIRECTION('',(0.,-0.,1.));
#1415 = ORIENTED_EDGE('',*,*,#1416,.T.);
#1416 = EDGE_CURVE('',#1409,#1399,#1417,.T.);
#1417 = CIRCLE('',#1418,1.4);
#1418 = AXIS2_PLACEMENT_3D('',#1419,#1420,#1421);
#1419 = CARTESIAN_POINT('',(96.,35.5,1.5));
#1420 = DIRECTION('',(0.,-0.,1.));
#1421 = DIRECTION('',(1.,0.,0.));
#1422 = CYLINDRICAL_SURFACE('',#1423,1.4);
#1423 = AXIS2_PLACEMENT_3D('',#1424,#1425,#1426);
#1424 = CARTESIAN_POINT('',(96.,35.5,9.));
#1425 = DIRECTION('',(-0.,-0.,1.));
#1426 = DIRECTION('',(1.,0.,0.));
#1427 = ADVANCED_FACE('',(#1428),#1438,.T.);
#1428 = FACE_BOUND('',#1429,.T.);
#1429 = EDGE_LOOP('',(#1430,#1431));
#1430 = ORIENTED_EDGE('',*,*,#1416,.T.);
#1431 = ORIENTED_EDGE('',*,*,#1432,.T.);
#1432 = EDGE_CURVE('',#1399,#1409,#1433,.T.);
#1433 = CIRCLE('',#1434,1.4);
#1434 = AXIS2_PLACEMENT_3D('',#1435,#1436,#1437);
#1435 = CARTESIAN_POINT('',(96.,35.5,1.5));
#1436 = DIRECTION('',(0.,0.,1.));
#1437 = DIRECTION('',(-1.,0.,0.));
#1438 = PLANE('',#1439);
#1439 = AXIS2_PLACEMENT_3D('',#1440,#1441,#1442);
#1440 = CARTESIAN_POINT('',(0.,0.,1.5));
#1441 = DIRECTION('',(0.,-0.,1.));
#1442 = DIRECTION('',(1.,0.,0.));
#1443 = ADVANCED_FACE('',(#1444),#1451,.F.);
#1444 = FACE_BOUND('',#1445,.F.);
#1445 = EDGE_LOOP('',(#1446,#1447,#1448,#1449,#1450));
#1446 = ORIENTED_EDGE('',*,*,#1398,.F.);
#1447 = ORIENTED_EDGE('',*,*,#1432,.T.);
#1448 = ORIENTED_EDGE('',*,*,#1408,.T.);
#1449 = ORIENTED_EDGE('',*,*,#600,.T.);
#1450 = ORIENTED_EDGE('',*,*,#609,.T.);
#1451 = CYLINDRICAL_SURFACE('',#1452,1.4);
#1452 = AXIS2_PLACEMENT_3D('',#1453,#1454,#1455);
#1453 = CARTESIAN_POINT('',(96.,35.5,9.));
#1454 = DIRECTION('',(-0.,-0.,1.));
#1455 = DIRECTION('',(1.,0.,0.));
#1456 = ADVANCED_FACE('',(#1457),#1464,.F.);
#1457 = FACE_BOUND('',#1458,.F.);
#1458 = EDGE_LOOP('',(#1459,#1460,#1461,#1462,#1463));
#1459 = ORIENTED_EDGE('',*,*,#1349,.F.);
#1460 = ORIENTED_EDGE('',*,*,#1383,.T.);
#1461 = ORIENTED_EDGE('',*,*,#1359,.T.);
#1462 = ORIENTED_EDGE('',*,*,#562,.T.);
#1463 = ORIENTED_EDGE('',*,*,#571,.T.);
#1464 = CYLINDRICAL_SURFACE('',#1465,1.4);
#1465 = AXIS2_PLACEMENT_3D('',#1466,#1467,#1468);
#1466 = CARTESIAN_POINT('',(5.,35.5,9.));
#1467 = DIRECTION('',(0.,-0.,1.));
#1468 = DIRECTION('',(1.,0.,0.));
#1469 = ( GEOMETRIC_REPRESENTATION_CONTEXT(3) 
GLOBAL_UNCERTAINTY_ASSIGNED_CONTEXT((#1473)) 
GLOBAL_UNIT_ASSIGNED_CONTEXT((#1470,#1471,#1472)) REPRESENTATION_CONTEXT
('Context #1','3D Context with UNIT and UNCERTAINTY') );
#1470 = ( LENGTH_UNIT() NAMED_UNIT(*) SI_UNIT(.MILLI.,.METRE.) );
#1471 = ( NAMED_UNIT(*) PLANE_ANGLE_UNIT() SI_UNIT($,.RADIAN.) );
#1472 = ( NAMED_UNIT(*) SI_UNIT($,.STERADIAN.) SOLID_ANGLE_UNIT() );
#1473 = UNCERTAINTY_MEASURE_WITH_UNIT(LENGTH_MEASURE(1.E-07),#1470,
  'distance_accuracy_value','confusion accuracy');
#1474 = CONTEXT_DEPENDENT_SHAPE_REPRESENTATION(#1475,#1477);
#1475 = ( REPRESENTATION_RELATIONSHIP('','',#40,#10) 
REPRESENTATION_RELATIONSHIP_WITH_TRANSFORMATION(#1476) 
SHAPE_REPRESENTATION_RELATIONSHIP() );
#1476 = ITEM_DEFINED_TRANSFORMATION('','',#11,#15);
#1477 = PRODUCT_DEFINITION_SHAPE('Placement','Placement of an item',
  #1478);
#1478 = NEXT_ASSEMBLY_USAGE_OCCURRENCE('1','UNIDENTIFIED_PRODUCT003','',
  #5,#35,$);
#1479 = PRODUCT_RELATED_PRODUCT_CATEGORY('part',$,(#37));
#1480 = SHAPE_DEFINITION_REPRESENTATION(#1481,#1487);
#1481 = PRODUCT_DEFINITION_SHAPE('','',#1482);
#1482 = PRODUCT_DEFINITION('design','',#1483,#1486);
#1483 = PRODUCT_DEFINITION_FORMATION('','',#1484);
#1484 = PRODUCT('UNIDENTIFIED_PRODUCT002','UNIDENTIFIED_PRODUCT002','',(
    #1485));
#1485 = PRODUCT_CONTEXT('',#2,'mechanical');
#1486 = PRODUCT_DEFINITION_CONTEXT('part definition',#2,'design');
#1487 = ADVANCED_BREP_SHAPE_REPRESENTATION('',(#11,#1488),#1690);
#1488 = MANIFOLD_SOLID_BREP('',#1489);
#1489 = CLOSED_SHELL('',(#1490,#1532,#1586,#1640,#1652,#1676));
#1490 = ADVANCED_FACE('',(#1491),#1527,.T.);
#1491 = FACE_BOUND('',#1492,.T.);
#1492 = EDGE_LOOP('',(#1493,#1503,#1512,#1520));
#1493 = ORIENTED_EDGE('',*,*,#1494,.T.);
#1494 = EDGE_CURVE('',#1495,#1497,#1499,.T.);
#1495 = VERTEX_POINT('',#1496);
#1496 = CARTESIAN_POINT('',(1.5,35.5,1.5));
#1497 = VERTEX_POINT('',#1498);
#1498 = CARTESIAN_POINT('',(1.5,35.5,16.));
#1499 = LINE('',#1500,#1501);
#1500 = CARTESIAN_POINT('',(1.5,35.5,1.5));
#1501 = VECTOR('',#1502,1.);
#1502 = DIRECTION('',(0.,-0.,1.));
#1503 = ORIENTED_EDGE('',*,*,#1504,.F.);
#1504 = EDGE_CURVE('',#1505,#1497,#1507,.T.);
#1505 = VERTEX_POINT('',#1506);
#1506 = CARTESIAN_POINT('',(8.5,35.5,16.));
#1507 = CIRCLE('',#1508,3.5);
#1508 = AXIS2_PLACEMENT_3D('',#1509,#1510,#1511);
#1509 = CARTESIAN_POINT('',(5.,35.5,16.));
#1510 = DIRECTION('',(0.,-0.,1.));
#1511 = DIRECTION('',(1.,0.,0.));
#1512 = ORIENTED_EDGE('',*,*,#1513,.F.);
#1513 = EDGE_CURVE('',#1514,#1505,#1516,.T.);
#1514 = VERTEX_POINT('',#1515);
#1515 = CARTESIAN_POINT('',(8.5,35.5,1.5));
#1516 = LINE('',#1517,#1518);
#1517 = CARTESIAN_POINT('',(8.5,35.5,1.5));
#1518 = VECTOR('',#1519,1.);
#1519 = DIRECTION('',(0.,-0.,1.));
#1520 = ORIENTED_EDGE('',*,*,#1521,.T.);
#1521 = EDGE_CURVE('',#1514,#1495,#1522,.T.);
#1522 = CIRCLE('',#1523,3.5);
#1523 = AXIS2_PLACEMENT_3D('',#1524,#1525,#1526);
#1524 = CARTESIAN_POINT('',(5.,35.5,1.5));
#1525 = DIRECTION('',(0.,-0.,1.));
#1526 = DIRECTION('',(1.,0.,0.));
#1527 = CYLINDRICAL_SURFACE('',#1528,3.5);
#1528 = AXIS2_PLACEMENT_3D('',#1529,#1530,#1531);
#1529 = CARTESIAN_POINT('',(5.,35.5,8.75));
#1530 = DIRECTION('',(0.,-0.,1.));
#1531 = DIRECTION('',(1.,0.,0.));
#1532 = ADVANCED_FACE('',(#1533,#1543),#1581,.F.);
#1533 = FACE_BOUND('',#1534,.T.);
#1534 = EDGE_LOOP('',(#1535,#1542));
#1535 = ORIENTED_EDGE('',*,*,#1536,.F.);
#1536 = EDGE_CURVE('',#1495,#1514,#1537,.T.);
#1537 = CIRCLE('',#1538,3.5);
#1538 = AXIS2_PLACEMENT_3D('',#1539,#1540,#1541);
#1539 = CARTESIAN_POINT('',(5.,35.5,1.5));
#1540 = DIRECTION('',(0.,0.,1.));
#1541 = DIRECTION('',(-1.,0.,0.));
#1542 = ORIENTED_EDGE('',*,*,#1521,.F.);
#1543 = FACE_BOUND('',#1544,.T.);
#1544 = EDGE_LOOP('',(#1545,#1556,#1565,#1574));
#1545 = ORIENTED_EDGE('',*,*,#1546,.T.);
#1546 = EDGE_CURVE('',#1547,#1549,#1551,.T.);
#1547 = VERTEX_POINT('',#1548);
#1548 = CARTESIAN_POINT('',(5.,36.9,1.5));
#1549 = VERTEX_POINT('',#1550);
#1550 = CARTESIAN_POINT('',(3.6,35.5,1.5));
#1551 = CIRCLE('',#1552,1.4);
#1552 = AXIS2_PLACEMENT_3D('',#1553,#1554,#1555);
#1553 = CARTESIAN_POINT('',(5.,35.5,1.5));
#1554 = DIRECTION('',(0.,0.,1.));
#1555 = DIRECTION('',(-0.,1.,0.));
#1556 = ORIENTED_EDGE('',*,*,#1557,.T.);
#1557 = EDGE_CURVE('',#1549,#1558,#1560,.T.);
#1558 = VERTEX_POINT('',#1559);
#1559 = CARTESIAN_POINT('',(5.,34.1,1.5));
#1560 = CIRCLE('',#1561,1.4);
#1561 = AXIS2_PLACEMENT_3D('',#1562,#1563,#1564);
#1562 = CARTESIAN_POINT('',(5.,35.5,1.5));
#1563 = DIRECTION('',(0.,0.,1.));
#1564 = DIRECTION('',(-1.,-0.,0.));
#1565 = ORIENTED_EDGE('',*,*,#1566,.T.);
#1566 = EDGE_CURVE('',#1558,#1567,#1569,.T.);
#1567 = VERTEX_POINT('',#1568);
#1568 = CARTESIAN_POINT('',(6.4,35.5,1.5));
#1569 = CIRCLE('',#1570,1.4);
#1570 = AXIS2_PLACEMENT_3D('',#1571,#1572,#1573);
#1571 = CARTESIAN_POINT('',(5.,35.5,1.5));
#1572 = DIRECTION('',(-0.,0.,1.));
#1573 = DIRECTION('',(0.,-1.,0.));
#1574 = ORIENTED_EDGE('',*,*,#1575,.T.);
#1575 = EDGE_CURVE('',#1567,#1547,#1576,.T.);
#1576 = CIRCLE('',#1577,1.4);
#1577 = AXIS2_PLACEMENT_3D('',#1578,#1579,#1580);
#1578 = CARTESIAN_POINT('',(5.,35.5,1.5));
#1579 = DIRECTION('',(0.,-0.,1.));
#1580 = DIRECTION('',(1.,0.,0.));
#1581 = PLANE('',#1582);
#1582 = AXIS2_PLACEMENT_3D('',#1583,#1584,#1585);
#1583 = CARTESIAN_POINT('',(0.,0.,1.5));
#1584 = DIRECTION('',(0.,-0.,1.));
#1585 = DIRECTION('',(1.,0.,0.));
#1586 = ADVANCED_FACE('',(#1587,#1597),#1635,.T.);
#1587 = FACE_BOUND('',#1588,.T.);
#1588 = EDGE_LOOP('',(#1589,#1590));
#1589 = ORIENTED_EDGE('',*,*,#1504,.T.);
#1590 = ORIENTED_EDGE('',*,*,#1591,.T.);
#1591 = EDGE_CURVE('',#1497,#1505,#1592,.T.);
#1592 = CIRCLE('',#1593,3.5);
#1593 = AXIS2_PLACEMENT_3D('',#1594,#1595,#1596);
#1594 = CARTESIAN_POINT('',(5.,35.5,16.));
#1595 = DIRECTION('',(0.,0.,1.));
#1596 = DIRECTION('',(-1.,0.,0.));
#1597 = FACE_BOUND('',#1598,.T.);
#1598 = EDGE_LOOP('',(#1599,#1610,#1619,#1628));
#1599 = ORIENTED_EDGE('',*,*,#1600,.F.);
#1600 = EDGE_CURVE('',#1601,#1603,#1605,.T.);
#1601 = VERTEX_POINT('',#1602);
#1602 = CARTESIAN_POINT('',(6.4,35.5,16.));
#1603 = VERTEX_POINT('',#1604);
#1604 = CARTESIAN_POINT('',(5.,36.9,16.));
#1605 = CIRCLE('',#1606,1.4);
#1606 = AXIS2_PLACEMENT_3D('',#1607,#1608,#1609);
#1607 = CARTESIAN_POINT('',(5.,35.5,16.));
#1608 = DIRECTION('',(0.,0.,1.));
#1609 = DIRECTION('',(1.,0.,-0.));
#1610 = ORIENTED_EDGE('',*,*,#1611,.T.);
#1611 = EDGE_CURVE('',#1601,#1612,#1614,.T.);
#1612 = VERTEX_POINT('',#1613);
#1613 = CARTESIAN_POINT('',(5.,34.1,16.));
#1614 = CIRCLE('',#1615,1.4);
#1615 = AXIS2_PLACEMENT_3D('',#1616,#1617,#1618);
#1616 = CARTESIAN_POINT('',(5.,35.5,16.));
#1617 = DIRECTION('',(0.,-0.,-1.));
#1618 = DIRECTION('',(1.,-0.,0.));
#1619 = ORIENTED_EDGE('',*,*,#1620,.T.);
#1620 = EDGE_CURVE('',#1612,#1621,#1623,.T.);
#1621 = VERTEX_POINT('',#1622);
#1622 = CARTESIAN_POINT('',(3.6,35.5,16.));
#1623 = CIRCLE('',#1624,1.4);
#1624 = AXIS2_PLACEMENT_3D('',#1625,#1626,#1627);
#1625 = CARTESIAN_POINT('',(5.,35.5,16.));
#1626 = DIRECTION('',(0.,-0.,-1.));
#1627 = DIRECTION('',(0.,-1.,0.));
#1628 = ORIENTED_EDGE('',*,*,#1629,.F.);
#1629 = EDGE_CURVE('',#1603,#1621,#1630,.T.);
#1630 = CIRCLE('',#1631,1.4);
#1631 = AXIS2_PLACEMENT_3D('',#1632,#1633,#1634);
#1632 = CARTESIAN_POINT('',(5.,35.5,16.));
#1633 = DIRECTION('',(0.,0.,1.));
#1634 = DIRECTION('',(-0.,1.,0.));
#1635 = PLANE('',#1636);
#1636 = AXIS2_PLACEMENT_3D('',#1637,#1638,#1639);
#1637 = CARTESIAN_POINT('',(0.,0.,16.));
#1638 = DIRECTION('',(0.,-0.,1.));
#1639 = DIRECTION('',(1.,0.,0.));
#1640 = ADVANCED_FACE('',(#1641),#1647,.T.);
#1641 = FACE_BOUND('',#1642,.T.);
#1642 = EDGE_LOOP('',(#1643,#1644,#1645,#1646));
#1643 = ORIENTED_EDGE('',*,*,#1494,.F.);
#1644 = ORIENTED_EDGE('',*,*,#1536,.T.);
#1645 = ORIENTED_EDGE('',*,*,#1513,.T.);
#1646 = ORIENTED_EDGE('',*,*,#1591,.F.);
#1647 = CYLINDRICAL_SURFACE('',#1648,3.5);
#1648 = AXIS2_PLACEMENT_3D('',#1649,#1650,#1651);
#1649 = CARTESIAN_POINT('',(5.,35.5,8.75));
#1650 = DIRECTION('',(0.,-0.,1.));
#1651 = DIRECTION('',(1.,0.,0.));
#1652 = ADVANCED_FACE('',(#1653),#1671,.F.);
#1653 = FACE_BOUND('',#1654,.F.);
#1654 = EDGE_LOOP('',(#1655,#1661,#1662,#1663,#1669,#1670));
#1655 = ORIENTED_EDGE('',*,*,#1656,.T.);
#1656 = EDGE_CURVE('',#1549,#1621,#1657,.T.);
#1657 = LINE('',#1658,#1659);
#1658 = CARTESIAN_POINT('',(3.6,35.5,1.5));
#1659 = VECTOR('',#1660,1.);
#1660 = DIRECTION('',(0.,-0.,1.));
#1661 = ORIENTED_EDGE('',*,*,#1629,.F.);
#1662 = ORIENTED_EDGE('',*,*,#1600,.F.);
#1663 = ORIENTED_EDGE('',*,*,#1664,.F.);
#1664 = EDGE_CURVE('',#1567,#1601,#1665,.T.);
#1665 = LINE('',#1666,#1667);
#1666 = CARTESIAN_POINT('',(6.4,35.5,1.5));
#1667 = VECTOR('',#1668,1.);
#1668 = DIRECTION('',(0.,-0.,1.));
#1669 = ORIENTED_EDGE('',*,*,#1575,.T.);
#1670 = ORIENTED_EDGE('',*,*,#1546,.T.);
#1671 = CYLINDRICAL_SURFACE('',#1672,1.4);
#1672 = AXIS2_PLACEMENT_3D('',#1673,#1674,#1675);
#1673 = CARTESIAN_POINT('',(5.,35.5,9.));
#1674 = DIRECTION('',(0.,-0.,1.));
#1675 = DIRECTION('',(1.,0.,0.));
#1676 = ADVANCED_FACE('',(#1677),#1685,.F.);
#1677 = FACE_BOUND('',#1678,.F.);
#1678 = EDGE_LOOP('',(#1679,#1680,#1681,#1682,#1683,#1684));
#1679 = ORIENTED_EDGE('',*,*,#1656,.F.);
#1680 = ORIENTED_EDGE('',*,*,#1557,.T.);
#1681 = ORIENTED_EDGE('',*,*,#1566,.T.);
#1682 = ORIENTED_EDGE('',*,*,#1664,.T.);
#1683 = ORIENTED_EDGE('',*,*,#1611,.T.);
#1684 = ORIENTED_EDGE('',*,*,#1620,.T.);
#1685 = CYLINDRICAL_SURFACE('',#1686,1.4);
#1686 = AXIS2_PLACEMENT_3D('',#1687,#1688,#1689);
#1687 = CARTESIAN_POINT('',(5.,35.5,9.));
#1688 = DIRECTION('',(0.,-0.,1.));
#1689 = DIRECTION('',(1.,0.,0.));
#1690 = ( GEOMETRIC_REPRESENTATION_CONTEXT(3) 
GLOBAL_UNCERTAINTY_ASSIGNED_CONTEXT((#1694)) 
GLOBAL_UNIT_ASSIGNED_CONTEXT((#1691,#1692,#1693)) REPRESENTATION_CONTEXT
('Context #1','3D Context with UNIT and UNCERTAINTY') );
#1691 = ( LENGTH_UNIT() NAMED_UNIT(*) SI_UNIT(.MILLI.,.METRE.) );
#1692 = ( NAMED_UNIT(*) PLANE_ANGLE_UNIT() SI_UNIT($,.RADIAN.) );
#1693 = ( NAMED_UNIT(*) SI_UNIT($,.STERADIAN.) SOLID_ANGLE_UNIT() );
#1694 = UNCERTAINTY_MEASURE_WITH_UNIT(LENGTH_MEASURE(1.E-07),#1691,
  'distance_accuracy_value','confusion accuracy');
#1695 = CONTEXT_DEPENDENT_SHAPE_REPRESENTATION(#1696,#1698);
#1696 = ( REPRESENTATION_RELATIONSHIP('','',#1487,#10) 
REPRESENTATION_RELATIONSHIP_WITH_TRANSFORMATION(#1697) 
SHAPE_REPRESENTATION_RELATIONSHIP() );
#1697 = ITEM_DEFINED_TRANSFORMATION('','',#11,#19);
#1698 = PRODUCT_DEFINITION_SHAPE('Placement','Placement of an item',
  #1699);
#1699 = NEXT_ASSEMBLY_USAGE_OCCURRENCE('2','UNIDENTIFIED_PRODUCT002','',
  #5,#1482,$);
#1700 = PRODUCT_RELATED_PRODUCT_CATEGORY('part',$,(#1484));
#1701 = SHAPE_DEFINITION_REPRESENTATION(#1702,#1708);
#1702 = PRODUCT_DEFINITION_SHAPE('','',#1703);
#1703 = PRODUCT_DEFINITION('design','',#1704,#1707);
#1704 = PRODUCT_DEFINITION_FORMATION('','',#1705);
#1705 = PRODUCT('UNIDENTIFIED_PRODUCT001','UNIDENTIFIED_PRODUCT001','',(
    #1706));
#1706 = PRODUCT_CONTEXT('',#2,'mechanical');
#1707 = PRODUCT_DEFINITION_CONTEXT('part definition',#2,'design');
#1708 = ADVANCED_BREP_SHAPE_REPRESENTATION('',(#11,#1709),#1911);
#1709 = MANIFOLD_SOLID_BREP('',#1710);
#1710 = CLOSED_SHELL('',(#1711,#1753,#1807,#1861,#1873,#1897));
#1711 = ADVANCED_FACE('',(#1712),#1748,.T.);
#1712 = FACE_BOUND('',#1713,.T.);
#1713 = EDGE_LOOP('',(#1714,#1724,#1733,#1741));
#1714 = ORIENTED_EDGE('',*,*,#1715,.T.);
#1715 = EDGE_CURVE('',#1716,#1718,#1720,.T.);
#1716 = VERTEX_POINT('',#1717);
#1717 = CARTESIAN_POINT('',(92.5,35.5,1.5));
#1718 = VERTEX_POINT('',#1719);
#1719 = CARTESIAN_POINT('',(92.5,35.5,16.));
#1720 = LINE('',#1721,#1722);
#1721 = CARTESIAN_POINT('',(92.5,35.5,1.5));
#1722 = VECTOR('',#1723,1.);
#1723 = DIRECTION('',(0.,-0.,1.));
#1724 = ORIENTED_EDGE('',*,*,#1725,.F.);
#1725 = EDGE_CURVE('',#1726,#1718,#1728,.T.);
#1726 = VERTEX_POINT('',#1727);
#1727 = CARTESIAN_POINT('',(99.5,35.5,16.));
#1728 = CIRCLE('',#1729,3.5);
#1729 = AXIS2_PLACEMENT_3D('',#1730,#1731,#1732);
#1730 = CARTESIAN_POINT('',(96.,35.5,16.));
#1731 = DIRECTION('',(0.,-0.,1.));
#1732 = DIRECTION('',(1.,0.,0.));
#1733 = ORIENTED_EDGE('',*,*,#1734,.F.);
#1734 = EDGE_CURVE('',#1735,#1726,#1737,.T.);
#1735 = VERTEX_POINT('',#1736);
#1736 = CARTESIAN_POINT('',(99.5,35.5,1.5));
#1737 = LINE('',#1738,#1739);
#1738 = CARTESIAN_POINT('',(99.5,35.5,1.5));
#1739 = VECTOR('',#1740,1.);
#1740 = DIRECTION('',(0.,-0.,1.));
#1741 = ORIENTED_EDGE('',*,*,#1742,.T.);
#1742 = EDGE_CURVE('',#1735,#1716,#1743,.T.);
#1743 = CIRCLE('',#1744,3.5);
#1744 = AXIS2_PLACEMENT_3D('',#1745,#1746,#1747);
#1745 = CARTESIAN_POINT('',(96.,35.5,1.5));
#1746 = DIRECTION('',(0.,-0.,1.));
#1747 = DIRECTION('',(1.,0.,0.));
#1748 = CYLINDRICAL_SURFACE('',#1749,3.5);
#1749 = AXIS2_PLACEMENT_3D('',#1750,#1751,#1752);
#1750 = CARTESIAN_POINT('',(96.,35.5,8.75));
#1751 = DIRECTION('',(0.,-0.,1.));
#1752 = DIRECTION('',(1.,0.,0.));
#1753 = ADVANCED_FACE('',(#1754,#1764),#1802,.F.);
#1754 = FACE_BOUND('',#1755,.T.);
#1755 = EDGE_LOOP('',(#1756,#1763));
#1756 = ORIENTED_EDGE('',*,*,#1757,.F.);
#1757 = EDGE_CURVE('',#1716,#1735,#1758,.T.);
#1758 = CIRCLE('',#1759,3.5);
#1759 = AXIS2_PLACEMENT_3D('',#1760,#1761,#1762);
#1760 = CARTESIAN_POINT('',(96.,35.5,1.5));
#1761 = DIRECTION('',(0.,0.,1.));
#1762 = DIRECTION('',(-1.,-0.,0.));
#1763 = ORIENTED_EDGE('',*,*,#1742,.F.);
#1764 = FACE_BOUND('',#1765,.T.);
#1765 = EDGE_LOOP('',(#1766,#1777,#1786,#1795));
#1766 = ORIENTED_EDGE('',*,*,#1767,.T.);
#1767 = EDGE_CURVE('',#1768,#1770,#1772,.T.);
#1768 = VERTEX_POINT('',#1769);
#1769 = CARTESIAN_POINT('',(96.,36.9,1.5));
#1770 = VERTEX_POINT('',#1771);
#1771 = CARTESIAN_POINT('',(94.6,35.5,1.5));
#1772 = CIRCLE('',#1773,1.4);
#1773 = AXIS2_PLACEMENT_3D('',#1774,#1775,#1776);
#1774 = CARTESIAN_POINT('',(96.,35.5,1.5));
#1775 = DIRECTION('',(0.,0.,1.));
#1776 = DIRECTION('',(-0.,1.,0.));
#1777 = ORIENTED_EDGE('',*,*,#1778,.T.);
#1778 = EDGE_CURVE('',#1770,#1779,#1781,.T.);
#1779 = VERTEX_POINT('',#1780);
#1780 = CARTESIAN_POINT('',(96.,34.1,1.5));
#1781 = CIRCLE('',#1782,1.4);
#1782 = AXIS2_PLACEMENT_3D('',#1783,#1784,#1785);
#1783 = CARTESIAN_POINT('',(96.,35.5,1.5));
#1784 = DIRECTION('',(0.,0.,1.));
#1785 = DIRECTION('',(-1.,-0.,0.));
#1786 = ORIENTED_EDGE('',*,*,#1787,.T.);
#1787 = EDGE_CURVE('',#1779,#1788,#1790,.T.);
#1788 = VERTEX_POINT('',#1789);
#1789 = CARTESIAN_POINT('',(97.4,35.5,1.5));
#1790 = CIRCLE('',#1791,1.4);
#1791 = AXIS2_PLACEMENT_3D('',#1792,#1793,#1794);
#1792 = CARTESIAN_POINT('',(96.,35.5,1.5));
#1793 = DIRECTION('',(-0.,0.,1.));
#1794 = DIRECTION('',(0.,-1.,0.));
#1795 = ORIENTED_EDGE('',*,*,#1796,.T.);
#1796 = EDGE_CURVE('',#1788,#1768,#1797,.T.);
#1797 = CIRCLE('',#1798,1.4);
#1798 = AXIS2_PLACEMENT_3D('',#1799,#1800,#1801);
#1799 = CARTESIAN_POINT('',(96.,35.5,1.5));
#1800 = DIRECTION('',(0.,-0.,1.));
#1801 = DIRECTION('',(1.,0.,0.));
#1802 = PLANE('',#1803);
#1803 = AXIS2_PLACEMENT_3D('',#1804,#1805,#1806);
#1804 = CARTESIAN_POINT('',(0.,0.,1.5));
#1805 = DIRECTION('',(0.,-0.,1.));
#1806 = DIRECTION('',(1.,0.,0.));
#1807 = ADVANCED_FACE('',(#1808,#1818),#1856,.T.);
#1808 = FACE_BOUND('',#1809,.T.);
#1809 = EDGE_LOOP('',(#1810,#1811));
#1810 = ORIENTED_EDGE('',*,*,#1725,.T.);
#1811 = ORIENTED_EDGE('',*,*,#1812,.T.);
#1812 = EDGE_CURVE('',#1718,#1726,#1813,.T.);
#1813 = CIRCLE('',#1814,3.5);
#1814 = AXIS2_PLACEMENT_3D('',#1815,#1816,#1817);
#1815 = CARTESIAN_POINT('',(96.,35.5,16.));
#1816 = DIRECTION('',(0.,0.,1.));
#1817 = DIRECTION('',(-1.,-0.,0.));
#1818 = FACE_BOUND('',#1819,.T.);
#1819 = EDGE_LOOP('',(#1820,#1831,#1840,#1849));
#1820 = ORIENTED_EDGE('',*,*,#1821,.F.);
#1821 = EDGE_CURVE('',#1822,#1824,#1826,.T.);
#1822 = VERTEX_POINT('',#1823);
#1823 = CARTESIAN_POINT('',(97.4,35.5,16.));
#1824 = VERTEX_POINT('',#1825);
#1825 = CARTESIAN_POINT('',(96.,36.9,16.));
#1826 = CIRCLE('',#1827,1.4);
#1827 = AXIS2_PLACEMENT_3D('',#1828,#1829,#1830);
#1828 = CARTESIAN_POINT('',(96.,35.5,16.));
#1829 = DIRECTION('',(0.,-0.,1.));
#1830 = DIRECTION('',(1.,0.,0.));
#1831 = ORIENTED_EDGE('',*,*,#1832,.T.);
#1832 = EDGE_CURVE('',#1822,#1833,#1835,.T.);
#1833 = VERTEX_POINT('',#1834);
#1834 = CARTESIAN_POINT('',(96.,34.1,16.));
#1835 = CIRCLE('',#1836,1.4);
#1836 = AXIS2_PLACEMENT_3D('',#1837,#1838,#1839);
#1837 = CARTESIAN_POINT('',(96.,35.5,16.));
#1838 = DIRECTION('',(0.,-0.,-1.));
#1839 = DIRECTION('',(1.,-0.,0.));
#1840 = ORIENTED_EDGE('',*,*,#1841,.T.);
#1841 = EDGE_CURVE('',#1833,#1842,#1844,.T.);
#1842 = VERTEX_POINT('',#1843);
#1843 = CARTESIAN_POINT('',(94.6,35.5,16.));
#1844 = CIRCLE('',#1845,1.4);
#1845 = AXIS2_PLACEMENT_3D('',#1846,#1847,#1848);
#1846 = CARTESIAN_POINT('',(96.,35.5,16.));
#1847 = DIRECTION('',(-0.,-0.,-1.));
#1848 = DIRECTION('',(0.,-1.,0.));
#1849 = ORIENTED_EDGE('',*,*,#1850,.F.);
#1850 = EDGE_CURVE('',#1824,#1842,#1851,.T.);
#1851 = CIRCLE('',#1852,1.4);
#1852 = AXIS2_PLACEMENT_3D('',#1853,#1854,#1855);
#1853 = CARTESIAN_POINT('',(96.,35.5,16.));
#1854 = DIRECTION('',(0.,0.,1.));
#1855 = DIRECTION('',(-0.,1.,0.));
#1856 = PLANE('',#1857);
#1857 = AXIS2_PLACEMENT_3D('',#1858,#1859,#1860);
#1858 = CARTESIAN_POINT('',(0.,0.,16.));
#1859 = DIRECTION('',(0.,-0.,1.));
#1860 = DIRECTION('',(1.,0.,0.));
#1861 = ADVANCED_FACE('',(#1862),#1868,.T.);
#1862 = FACE_BOUND('',#1863,.T.);
#1863 = EDGE_LOOP('',(#1864,#1865,#1866,#1867));
#1864 = ORIENTED_EDGE('',*,*,#1715,.F.);
#1865 = ORIENTED_EDGE('',*,*,#1757,.T.);
#1866 = ORIENTED_EDGE('',*,*,#1734,.T.);
#1867 = ORIENTED_EDGE('',*,*,#1812,.F.);
#1868 = CYLINDRICAL_SURFACE('',#1869,3.5);
#1869 = AXIS2_PLACEMENT_3D('',#1870,#1871,#1872);
#1870 = CARTESIAN_POINT('',(96.,35.5,8.75));
#1871 = DIRECTION('',(0.,-0.,1.));
#1872 = DIRECTION('',(1.,0.,0.));
#1873 = ADVANCED_FACE('',(#1874),#1892,.F.);
#1874 = FACE_BOUND('',#1875,.F.);
#1875 = EDGE_LOOP('',(#1876,#1882,#1883,#1884,#1890,#1891));
#1876 = ORIENTED_EDGE('',*,*,#1877,.T.);
#1877 = EDGE_CURVE('',#1770,#1842,#1878,.T.);
#1878 = LINE('',#1879,#1880);
#1879 = CARTESIAN_POINT('',(94.6,35.5,1.5));
#1880 = VECTOR('',#1881,1.);
#1881 = DIRECTION('',(0.,-0.,1.));
#1882 = ORIENTED_EDGE('',*,*,#1850,.F.);
#1883 = ORIENTED_EDGE('',*,*,#1821,.F.);
#1884 = ORIENTED_EDGE('',*,*,#1885,.F.);
#1885 = EDGE_CURVE('',#1788,#1822,#1886,.T.);
#1886 = LINE('',#1887,#1888);
#1887 = CARTESIAN_POINT('',(97.4,35.5,1.5));
#1888 = VECTOR('',#1889,1.);
#1889 = DIRECTION('',(0.,-0.,1.));
#1890 = ORIENTED_EDGE('',*,*,#1796,.T.);
#1891 = ORIENTED_EDGE('',*,*,#1767,.T.);
#1892 = CYLINDRICAL_SURFACE('',#1893,1.4);
#1893 = AXIS2_PLACEMENT_3D('',#1894,#1895,#1896);
#1894 = CARTESIAN_POINT('',(96.,35.5,9.));
#1895 = DIRECTION('',(-0.,-0.,1.));
#1896 = DIRECTION('',(1.,0.,0.));
#1897 = ADVANCED_FACE('',(#1898),#1906,.F.);
#1898 = FACE_BOUND('',#1899,.F.);
#1899 = EDGE_LOOP('',(#1900,#1901,#1902,#1903,#1904,#1905));
#1900 = ORIENTED_EDGE('',*,*,#1877,.F.);
#1901 = ORIENTED_EDGE('',*,*,#1778,.T.);
#1902 = ORIENTED_EDGE('',*,*,#1787,.T.);
#1903 = ORIENTED_EDGE('',*,*,#1885,.T.);
#1904 = ORIENTED_EDGE('',*,*,#1832,.T.);
#1905 = ORIENTED_EDGE('',*,*,#1841,.T.);
#1906 = CYLINDRICAL_SURFACE('',#1907,1.4);
#1907 = AXIS2_PLACEMENT_3D('',#1908,#1909,#1910);
#1908 = CARTESIAN_POINT('',(96.,35.5,9.));
#1909 = DIRECTION('',(-0.,-0.,1.));
#1910 = DIRECTION('',(1.,0.,0.));
#1911 = ( GEOMETRIC_REPRESENTATION_CONTEXT(3) 
GLOBAL_UNCERTAINTY_ASSIGNED_CONTEXT((#1915)) 
GLOBAL_UNIT_ASSIGNED_CONTEXT((#1912,#1913,#1914)) REPRESENTATION_CONTEXT
('Context #1','3D Context with UNIT and UNCERTAINTY') );
#1912 = ( LENGTH_UNIT() NAMED_UNIT(*) SI_UNIT(.MILLI.,.METRE.) );
#1913 = ( NAMED_UNIT(*) PLANE_ANGLE_UNIT() SI_UNIT($,.RADIAN.) );
#1914 = ( NAMED_UNIT(*) SI_UNIT($,.STERADIAN.) SOLID_ANGLE_UNIT() );
#1915 = UNCERTAINTY_MEASURE_WITH_UNIT(LENGTH_MEASURE(1.E-07),#1912,
  'distance_accuracy_value','confusion accuracy');
#1916 = CONTEXT_DEPENDENT_SHAPE_REPRESENTATION(#1917,#1919);
#1917 = ( REPRESENTATION_RELATIONSHIP('','',#1708,#10) 
REPRESENTATION_RELATIONSHIP_WITH_TRANSFORMATION(#1918) 
SHAPE_REPRESENTATION_RELATIONSHIP() );
#1918 = ITEM_DEFINED_TRANSFORMATION('','',#11,#23);
#1919 = PRODUCT_DEFINITION_SHAPE('Placement','Placement of an item',
  #1920);
#1920 = NEXT_ASSEMBLY_USAGE_OCCURRENCE('3','UNIDENTIFIED_PRODUCT001','',
  #5,#1703,$);
#1921 = PRODUCT_RELATED_PRODUCT_CATEGORY('part',$,(#1705));
#1922 = MECHANICAL_DESIGN_GEOMETRIC_PRESENTATION_REPRESENTATION('',(
    #1923),#1469);
#1923 = STYLED_ITEM('color',(#1924),#41);
#1924 = PRESENTATION_STYLE_ASSIGNMENT((#1925,#1931));
#1925 = SURFACE_STYLE_USAGE(.BOTH.,#1926);
#1926 = SURFACE_SIDE_STYLE('',(#1927));
#1927 = SURFACE_STYLE_FILL_AREA(#1928);
#1928 = FILL_AREA_STYLE('',(#1929));
#1929 = FILL_AREA_STYLE_COLOUR('',#1930);
#1930 = COLOUR_RGB('',0.899999968064,0.899999968064,0.899999968064);
#1931 = CURVE_STYLE('',#1932,POSITIVE_LENGTH_MEASURE(0.1),#1933);
#1932 = DRAUGHTING_PRE_DEFINED_CURVE_FONT('continuous');
#1933 = COLOUR_RGB('',9.803921802644E-02,9.803921802644E-02,
  9.803921802644E-02);
#1934 = MECHANICAL_DESIGN_GEOMETRIC_PRESENTATION_REPRESENTATION('',(
    #1935),#1690);
#1935 = STYLED_ITEM('color',(#1936),#1488);
#1936 = PRESENTATION_STYLE_ASSIGNMENT((#1937,#1942));
#1937 = SURFACE_STYLE_USAGE(.BOTH.,#1938);
#1938 = SURFACE_SIDE_STYLE('',(#1939));
#1939 = SURFACE_STYLE_FILL_AREA(#1940);
#1940 = FILL_AREA_STYLE('',(#1941));
#1941 = FILL_AREA_STYLE_COLOUR('',#1930);
#1942 = CURVE_STYLE('',#1943,POSITIVE_LENGTH_MEASURE(0.1),#1933);
#1943 = DRAUGHTING_PRE_DEFINED_CURVE_FONT('continuous');
#1944 = MECHANICAL_DESIGN_GEOMETRIC_PRESENTATION_REPRESENTATION('',(
    #1945),#1911);
#1945 = STYLED_ITEM('color',(#1946),#1709);
#1946 = PRESENTATION_STYLE_ASSIGNMENT((#1947,#1952));
#1947 = SURFACE_STYLE_USAGE(.BOTH.,#1948);
#1948 = SURFACE_SIDE_STYLE('',(#1949));
#1949 = SURFACE_STYLE_FILL_AREA(#1950);
#1950 = FILL_AREA_STYLE('',(#1951));
#1951 = FILL_AREA_STYLE_COLOUR('',#1930);
#1952 = CURVE_STYLE('',#1953,POSITIVE_LENGTH_MEASURE(0.1),#1933);
#1953 = DRAUGHTING_PRE_DEFINED_CURVE_FONT('continuous');
ENDSEC;
END-ISO-10303-21;
