ISO-10303-21;
HEADER;
FILE_DESCRIPTION(('FreeCAD Model'),'2;1');
FILE_NAME('Open CASCADE Shape Model','2026-09-03T09:17:58',('Author'),(
    ''),'Open CASCADE STEP processor 7.8','FreeCAD','Unknown');
FILE_SCHEMA(('AUTOMOTIVE_DESIGN { 1 0 10303 214 1 1 1 1 }'));
ENDSEC;
DATA;
#1 = APPLICATION_PROTOCOL_DEFINITION('international standard',
  'automotive_design',2000,#2);
#2 = APPLICATION_CONTEXT(
  'core data for automotive mechanical design processes');
#3 = SHAPE_DEFINITION_REPRESENTATION(#4,#10);
#4 = PRODUCT_DEFINITION_SHAPE('','',#5);
#5 = PRODUCT_DEFINITION('design','',#6,#9);
#6 = PRODUCT_DEFINITION_FORMATION('','',#7);
#7 = PRODUCT('UNIDENTIFIED_PRODUCT','UNIDENTIFIED_PRODUCT','',(#8));
#8 = PRODUCT_CONTEXT('',#2,'mechanical');
#9 = PRODUCT_DEFINITION_CONTEXT('part definition',#2,'design');
#10 = ADVANCED_BREP_SHAPE_REPRESENTATION('',(#11,#15),#1073);
#11 = AXIS2_PLACEMENT_3D('',#12,#13,#14);
#12 = CARTESIAN_POINT('',(0.,0.,0.));
#13 = DIRECTION('',(0.,0.,1.));
#14 = DIRECTION('',(1.,0.,-0.));
#15 = MANIFOLD_SOLID_BREP('',#16);
#16 = CLOSED_SHELL('',(#17,#57,#88,#119,#141,#399,#657,#679,#696,#713,
    #725,#747,#764,#781,#793,#815,#832,#849,#861,#883,#900,#917,#929,
    #951,#968,#985,#997,#1021,#1035,#1059));
#17 = ADVANCED_FACE('',(#18),#52,.T.);
#18 = FACE_BOUND('',#19,.T.);
#19 = EDGE_LOOP('',(#20,#30,#38,#46));
#20 = ORIENTED_EDGE('',*,*,#21,.T.);
#21 = EDGE_CURVE('',#22,#24,#26,.T.);
#22 = VERTEX_POINT('',#23);
#23 = CARTESIAN_POINT('',(101.00000001,-1.E-08,16.));
#24 = VERTEX_POINT('',#25);
#25 = CARTESIAN_POINT('',(101.00000001,70.99999998,16.));
#26 = LINE('',#27,#28);
#27 = CARTESIAN_POINT('',(101.00000001,-1.E-08,16.));
#28 = VECTOR('',#29,1.);
#29 = DIRECTION('',(0.,1.,0.));
#30 = ORIENTED_EDGE('',*,*,#31,.T.);
#31 = EDGE_CURVE('',#24,#32,#34,.T.);
#32 = VERTEX_POINT('',#33);
#33 = CARTESIAN_POINT('',(101.00000001,70.99999998,18.5));
#34 = LINE('',#35,#36);
#35 = CARTESIAN_POINT('',(101.00000001,70.99999998,16.));
#36 = VECTOR('',#37,1.);
#37 = DIRECTION('',(0.,-0.,1.));
#38 = ORIENTED_EDGE('',*,*,#39,.F.);
#39 = EDGE_CURVE('',#40,#32,#42,.T.);
#40 = VERTEX_POINT('',#41);
#41 = CARTESIAN_POINT('',(101.00000001,-1.E-08,18.5));
#42 = LINE('',#43,#44);
#43 = CARTESIAN_POINT('',(101.00000001,-1.E-08,18.5));
#44 = VECTOR('',#45,1.);
#45 = DIRECTION('',(0.,1.,0.));
#46 = ORIENTED_EDGE('',*,*,#47,.F.);
#47 = EDGE_CURVE('',#22,#40,#48,.T.);
#48 = LINE('',#49,#50);
#49 = CARTESIAN_POINT('',(101.00000001,-1.E-08,16.));
#50 = VECTOR('',#51,1.);
#51 = DIRECTION('',(0.,-0.,1.));
#52 = PLANE('',#53);
#53 = AXIS2_PLACEMENT_3D('',#54,#55,#56);
#54 = CARTESIAN_POINT('',(101.00000001,35.49999999,17.25));
#55 = DIRECTION('',(1.,-0.,0.));
#56 = DIRECTION('',(-0.,0.,1.));
#57 = ADVANCED_FACE('',(#58),#83,.T.);
#58 = FACE_BOUND('',#59,.T.);
#59 = EDGE_LOOP('',(#60,#68,#76,#82));
#60 = ORIENTED_EDGE('',*,*,#61,.T.);
#61 = EDGE_CURVE('',#24,#62,#64,.T.);
#62 = VERTEX_POINT('',#63);
#63 = CARTESIAN_POINT('',(0.,70.99999998,16.));
#64 = LINE('',#65,#66);
#65 = CARTESIAN_POINT('',(101.00000001,70.99999998,16.));
#66 = VECTOR('',#67,1.);
#67 = DIRECTION('',(-1.,-0.,0.));
#68 = ORIENTED_EDGE('',*,*,#69,.T.);
#69 = EDGE_CURVE('',#62,#70,#72,.T.);
#70 = VERTEX_POINT('',#71);
#71 = CARTESIAN_POINT('',(0.,70.99999998,18.5));
#72 = LINE('',#73,#74);
#73 = CARTESIAN_POINT('',(0.,70.99999998,16.));
#74 = VECTOR('',#75,1.);
#75 = DIRECTION('',(0.,-0.,1.));
#76 = ORIENTED_EDGE('',*,*,#77,.F.);
#77 = EDGE_CURVE('',#32,#70,#78,.T.);
#78 = LINE('',#79,#80);
#79 = CARTESIAN_POINT('',(101.00000001,70.99999998,18.5));
#80 = VECTOR('',#81,1.);
#81 = DIRECTION('',(-1.,-0.,0.));
#82 = ORIENTED_EDGE('',*,*,#31,.F.);
#83 = PLANE('',#84);
#84 = AXIS2_PLACEMENT_3D('',#85,#86,#87);
#85 = CARTESIAN_POINT('',(50.50000001,70.99999998,17.25));
#86 = DIRECTION('',(-0.,1.,0.));
#87 = DIRECTION('',(0.,0.,1.));
#88 = ADVANCED_FACE('',(#89),#114,.T.);
#89 = FACE_BOUND('',#90,.T.);
#90 = EDGE_LOOP('',(#91,#99,#107,#113));
#91 = ORIENTED_EDGE('',*,*,#92,.T.);
#92 = EDGE_CURVE('',#62,#93,#95,.T.);
#93 = VERTEX_POINT('',#94);
#94 = CARTESIAN_POINT('',(0.,-0.,16.));
#95 = LINE('',#96,#97);
#96 = CARTESIAN_POINT('',(0.,70.99999998,16.));
#97 = VECTOR('',#98,1.);
#98 = DIRECTION('',(0.,-1.,0.));
#99 = ORIENTED_EDGE('',*,*,#100,.T.);
#100 = EDGE_CURVE('',#93,#101,#103,.T.);
#101 = VERTEX_POINT('',#102);
#102 = CARTESIAN_POINT('',(0.,-0.,18.5));
#103 = LINE('',#104,#105);
#104 = CARTESIAN_POINT('',(0.,-0.,16.));
#105 = VECTOR('',#106,1.);
#106 = DIRECTION('',(0.,-0.,1.));
#107 = ORIENTED_EDGE('',*,*,#108,.F.);
#108 = EDGE_CURVE('',#70,#101,#109,.T.);
#109 = LINE('',#110,#111);
#110 = CARTESIAN_POINT('',(0.,70.99999998,18.5));
#111 = VECTOR('',#112,1.);
#112 = DIRECTION('',(0.,-1.,0.));
#113 = ORIENTED_EDGE('',*,*,#69,.F.);
#114 = PLANE('',#115);
#115 = AXIS2_PLACEMENT_3D('',#116,#117,#118);
#116 = CARTESIAN_POINT('',(0.,35.49999999,17.25));
#117 = DIRECTION('',(-1.,-0.,0.));
#118 = DIRECTION('',(-0.,0.,-1.));
#119 = ADVANCED_FACE('',(#120),#136,.T.);
#120 = FACE_BOUND('',#121,.T.);
#121 = EDGE_LOOP('',(#122,#128,#129,#135));
#122 = ORIENTED_EDGE('',*,*,#123,.T.);
#123 = EDGE_CURVE('',#93,#22,#124,.T.);
#124 = LINE('',#125,#126);
#125 = CARTESIAN_POINT('',(0.,-0.,16.));
#126 = VECTOR('',#127,1.);
#127 = DIRECTION('',(1.,-0.,0.));
#128 = ORIENTED_EDGE('',*,*,#47,.T.);
#129 = ORIENTED_EDGE('',*,*,#130,.F.);
#130 = EDGE_CURVE('',#101,#40,#131,.T.);
#131 = LINE('',#132,#133);
#132 = CARTESIAN_POINT('',(0.,-0.,18.5));
#133 = VECTOR('',#134,1.);
#134 = DIRECTION('',(1.,-0.,0.));
#135 = ORIENTED_EDGE('',*,*,#100,.F.);
#136 = PLANE('',#137);
#137 = AXIS2_PLACEMENT_3D('',#138,#139,#140);
#138 = CARTESIAN_POINT('',(50.50000001,-1.E-08,17.25));
#139 = DIRECTION('',(-0.,-1.,0.));
#140 = DIRECTION('',(0.,-0.,-1.));
#141 = ADVANCED_FACE('',(#142,#148,#182,#216,#250,#284,#318,#356),#394,
  .F.);
#142 = FACE_BOUND('',#143,.T.);
#143 = EDGE_LOOP('',(#144,#145,#146,#147));
#144 = ORIENTED_EDGE('',*,*,#123,.F.);
#145 = ORIENTED_EDGE('',*,*,#92,.F.);
#146 = ORIENTED_EDGE('',*,*,#61,.F.);
#147 = ORIENTED_EDGE('',*,*,#21,.F.);
#148 = FACE_BOUND('',#149,.T.);
#149 = EDGE_LOOP('',(#150,#160,#168,#176));
#150 = ORIENTED_EDGE('',*,*,#151,.T.);
#151 = EDGE_CURVE('',#152,#154,#156,.T.);
#152 = VERTEX_POINT('',#153);
#153 = CARTESIAN_POINT('',(79.50000001,61.,16.));
#154 = VERTEX_POINT('',#155);
#155 = CARTESIAN_POINT('',(21.50000001,61.,16.));
#156 = LINE('',#157,#158);
#157 = CARTESIAN_POINT('',(79.50000001,61.,16.));
#158 = VECTOR('',#159,1.);
#159 = DIRECTION('',(-1.,-0.,0.));
#160 = ORIENTED_EDGE('',*,*,#161,.T.);
#161 = EDGE_CURVE('',#154,#162,#164,.T.);
#162 = VERTEX_POINT('',#163);
#163 = CARTESIAN_POINT('',(21.5,40.,16.));
#164 = LINE('',#165,#166);
#165 = CARTESIAN_POINT('',(21.50000001,61.,16.));
#166 = VECTOR('',#167,1.);
#167 = DIRECTION('',(-0.,-1.,0.));
#168 = ORIENTED_EDGE('',*,*,#169,.T.);
#169 = EDGE_CURVE('',#162,#170,#172,.T.);
#170 = VERTEX_POINT('',#171);
#171 = CARTESIAN_POINT('',(79.50000001,40.,16.));
#172 = LINE('',#173,#174);
#173 = CARTESIAN_POINT('',(21.5,40.,16.));
#174 = VECTOR('',#175,1.);
#175 = DIRECTION('',(1.,-0.,0.));
#176 = ORIENTED_EDGE('',*,*,#177,.T.);
#177 = EDGE_CURVE('',#170,#152,#178,.T.);
#178 = LINE('',#179,#180);
#179 = CARTESIAN_POINT('',(79.50000001,40.,16.));
#180 = VECTOR('',#181,1.);
#181 = DIRECTION('',(0.,1.,0.));
#182 = FACE_BOUND('',#183,.T.);
#183 = EDGE_LOOP('',(#184,#194,#202,#210));
#184 = ORIENTED_EDGE('',*,*,#185,.T.);
#185 = EDGE_CURVE('',#186,#188,#190,.T.);
#186 = VERTEX_POINT('',#187);
#187 = CARTESIAN_POINT('',(29.17500001,28.5,16.));
#188 = VERTEX_POINT('',#189);
#189 = CARTESIAN_POINT('',(14.67500001,28.5,16.));
#190 = LINE('',#191,#192);
#191 = CARTESIAN_POINT('',(29.17500001,28.5,16.));
#192 = VECTOR('',#193,1.);
#193 = DIRECTION('',(-1.,-0.,0.));
#194 = ORIENTED_EDGE('',*,*,#195,.T.);
#195 = EDGE_CURVE('',#188,#196,#198,.T.);
#196 = VERTEX_POINT('',#197);
#197 = CARTESIAN_POINT('',(14.675,14.,16.));
#198 = LINE('',#199,#200);
#199 = CARTESIAN_POINT('',(14.67500001,28.5,16.));
#200 = VECTOR('',#201,1.);
#201 = DIRECTION('',(-0.,-1.,0.));
#202 = ORIENTED_EDGE('',*,*,#203,.T.);
#203 = EDGE_CURVE('',#196,#204,#206,.T.);
#204 = VERTEX_POINT('',#205);
#205 = CARTESIAN_POINT('',(29.17500001,14.,16.));
#206 = LINE('',#207,#208);
#207 = CARTESIAN_POINT('',(14.675,14.,16.));
#208 = VECTOR('',#209,1.);
#209 = DIRECTION('',(1.,-0.,0.));
#210 = ORIENTED_EDGE('',*,*,#211,.T.);
#211 = EDGE_CURVE('',#204,#186,#212,.T.);
#212 = LINE('',#213,#214);
#213 = CARTESIAN_POINT('',(29.17500001,14.,16.));
#214 = VECTOR('',#215,1.);
#215 = DIRECTION('',(0.,1.,0.));
#216 = FACE_BOUND('',#217,.T.);
#217 = EDGE_LOOP('',(#218,#228,#236,#244));
#218 = ORIENTED_EDGE('',*,*,#219,.T.);
#219 = EDGE_CURVE('',#220,#222,#224,.T.);
#220 = VERTEX_POINT('',#221);
#221 = CARTESIAN_POINT('',(48.22500001,28.5,16.));
#222 = VERTEX_POINT('',#223);
#223 = CARTESIAN_POINT('',(33.72500001,28.5,16.));
#224 = LINE('',#225,#226);
#225 = CARTESIAN_POINT('',(48.22500001,28.5,16.));
#226 = VECTOR('',#227,1.);
#227 = DIRECTION('',(-1.,-0.,0.));
#228 = ORIENTED_EDGE('',*,*,#229,.T.);
#229 = EDGE_CURVE('',#222,#230,#232,.T.);
#230 = VERTEX_POINT('',#231);
#231 = CARTESIAN_POINT('',(33.725,14.,16.));
#232 = LINE('',#233,#234);
#233 = CARTESIAN_POINT('',(33.72500001,28.5,16.));
#234 = VECTOR('',#235,1.);
#235 = DIRECTION('',(-0.,-1.,0.));
#236 = ORIENTED_EDGE('',*,*,#237,.T.);
#237 = EDGE_CURVE('',#230,#238,#240,.T.);
#238 = VERTEX_POINT('',#239);
#239 = CARTESIAN_POINT('',(48.22500001,14.,16.));
#240 = LINE('',#241,#242);
#241 = CARTESIAN_POINT('',(33.725,14.,16.));
#242 = VECTOR('',#243,1.);
#243 = DIRECTION('',(1.,-0.,0.));
#244 = ORIENTED_EDGE('',*,*,#245,.T.);
#245 = EDGE_CURVE('',#238,#220,#246,.T.);
#246 = LINE('',#247,#248);
#247 = CARTESIAN_POINT('',(48.22500001,14.,16.));
#248 = VECTOR('',#249,1.);
#249 = DIRECTION('',(0.,1.,0.));
#250 = FACE_BOUND('',#251,.T.);
#251 = EDGE_LOOP('',(#252,#262,#270,#278));
#252 = ORIENTED_EDGE('',*,*,#253,.T.);
#253 = EDGE_CURVE('',#254,#256,#258,.T.);
#254 = VERTEX_POINT('',#255);
#255 = CARTESIAN_POINT('',(67.27500001,28.5,16.));
#256 = VERTEX_POINT('',#257);
#257 = CARTESIAN_POINT('',(52.77500001,28.5,16.));
#258 = LINE('',#259,#260);
#259 = CARTESIAN_POINT('',(67.27500001,28.5,16.));
#260 = VECTOR('',#261,1.);
#261 = DIRECTION('',(-1.,-0.,0.));
#262 = ORIENTED_EDGE('',*,*,#263,.T.);
#263 = EDGE_CURVE('',#256,#264,#266,.T.);
#264 = VERTEX_POINT('',#265);
#265 = CARTESIAN_POINT('',(52.775,14.,16.));
#266 = LINE('',#267,#268);
#267 = CARTESIAN_POINT('',(52.77500001,28.5,16.));
#268 = VECTOR('',#269,1.);
#269 = DIRECTION('',(-0.,-1.,0.));
#270 = ORIENTED_EDGE('',*,*,#271,.T.);
#271 = EDGE_CURVE('',#264,#272,#274,.T.);
#272 = VERTEX_POINT('',#273);
#273 = CARTESIAN_POINT('',(67.27500001,14.,16.));
#274 = LINE('',#275,#276);
#275 = CARTESIAN_POINT('',(52.775,14.,16.));
#276 = VECTOR('',#277,1.);
#277 = DIRECTION('',(1.,-0.,0.));
#278 = ORIENTED_EDGE('',*,*,#279,.T.);
#279 = EDGE_CURVE('',#272,#254,#280,.T.);
#280 = LINE('',#281,#282);
#281 = CARTESIAN_POINT('',(67.27500001,14.,16.));
#282 = VECTOR('',#283,1.);
#283 = DIRECTION('',(0.,1.,0.));
#284 = FACE_BOUND('',#285,.T.);
#285 = EDGE_LOOP('',(#286,#296,#304,#312));
#286 = ORIENTED_EDGE('',*,*,#287,.T.);
#287 = EDGE_CURVE('',#288,#290,#292,.T.);
#288 = VERTEX_POINT('',#289);
#289 = CARTESIAN_POINT('',(86.32500001,28.5,16.));
#290 = VERTEX_POINT('',#291);
#291 = CARTESIAN_POINT('',(71.82500001,28.5,16.));
#292 = LINE('',#293,#294);
#293 = CARTESIAN_POINT('',(86.32500001,28.5,16.));
#294 = VECTOR('',#295,1.);
#295 = DIRECTION('',(-1.,-0.,0.));
#296 = ORIENTED_EDGE('',*,*,#297,.T.);
#297 = EDGE_CURVE('',#290,#298,#300,.T.);
#298 = VERTEX_POINT('',#299);
#299 = CARTESIAN_POINT('',(71.825,14.,16.));
#300 = LINE('',#301,#302);
#301 = CARTESIAN_POINT('',(71.82500001,28.5,16.));
#302 = VECTOR('',#303,1.);
#303 = DIRECTION('',(-0.,-1.,0.));
#304 = ORIENTED_EDGE('',*,*,#305,.T.);
#305 = EDGE_CURVE('',#298,#306,#308,.T.);
#306 = VERTEX_POINT('',#307);
#307 = CARTESIAN_POINT('',(86.32500001,14.,16.));
#308 = LINE('',#309,#310);
#309 = CARTESIAN_POINT('',(71.825,14.,16.));
#310 = VECTOR('',#311,1.);
#311 = DIRECTION('',(1.,-0.,0.));
#312 = ORIENTED_EDGE('',*,*,#313,.T.);
#313 = EDGE_CURVE('',#306,#288,#314,.T.);
#314 = LINE('',#315,#316);
#315 = CARTESIAN_POINT('',(86.32500001,14.,16.));
#316 = VECTOR('',#317,1.);
#317 = DIRECTION('',(0.,1.,0.));
#318 = FACE_BOUND('',#319,.T.);
#319 = EDGE_LOOP('',(#320,#331,#340,#349));
#320 = ORIENTED_EDGE('',*,*,#321,.T.);
#321 = EDGE_CURVE('',#322,#324,#326,.T.);
#322 = VERTEX_POINT('',#323);
#323 = CARTESIAN_POINT('',(5.,37.2,16.));
#324 = VERTEX_POINT('',#325);
#325 = CARTESIAN_POINT('',(3.3,35.5,16.));
#326 = CIRCLE('',#327,1.7);
#327 = AXIS2_PLACEMENT_3D('',#328,#329,#330);
#328 = CARTESIAN_POINT('',(5.,35.5,16.));
#329 = DIRECTION('',(0.,-0.,1.));
#330 = DIRECTION('',(0.,1.,0.));
#331 = ORIENTED_EDGE('',*,*,#332,.T.);
#332 = EDGE_CURVE('',#324,#333,#335,.T.);
#333 = VERTEX_POINT('',#334);
#334 = CARTESIAN_POINT('',(5.,33.8,16.));
#335 = CIRCLE('',#336,1.7);
#336 = AXIS2_PLACEMENT_3D('',#337,#338,#339);
#337 = CARTESIAN_POINT('',(5.,35.5,16.));
#338 = DIRECTION('',(0.,0.,1.));
#339 = DIRECTION('',(-1.,0.,0.));
#340 = ORIENTED_EDGE('',*,*,#341,.T.);
#341 = EDGE_CURVE('',#333,#342,#344,.T.);
#342 = VERTEX_POINT('',#343);
#343 = CARTESIAN_POINT('',(6.7,35.5,16.));
#344 = CIRCLE('',#345,1.7);
#345 = AXIS2_PLACEMENT_3D('',#346,#347,#348);
#346 = CARTESIAN_POINT('',(5.,35.5,16.));
#347 = DIRECTION('',(-0.,0.,1.));
#348 = DIRECTION('',(0.,-1.,0.));
#349 = ORIENTED_EDGE('',*,*,#350,.T.);
#350 = EDGE_CURVE('',#342,#322,#351,.T.);
#351 = CIRCLE('',#352,1.7);
#352 = AXIS2_PLACEMENT_3D('',#353,#354,#355);
#353 = CARTESIAN_POINT('',(5.,35.5,16.));
#354 = DIRECTION('',(0.,-0.,1.));
#355 = DIRECTION('',(1.,0.,0.));
#356 = FACE_BOUND('',#357,.T.);
#357 = EDGE_LOOP('',(#358,#369,#378,#387));
#358 = ORIENTED_EDGE('',*,*,#359,.T.);
#359 = EDGE_CURVE('',#360,#362,#364,.T.);
#360 = VERTEX_POINT('',#361);
#361 = CARTESIAN_POINT('',(96.,37.2,16.));
#362 = VERTEX_POINT('',#363);
#363 = CARTESIAN_POINT('',(94.3,35.5,16.));
#364 = CIRCLE('',#365,1.7);
#365 = AXIS2_PLACEMENT_3D('',#366,#367,#368);
#366 = CARTESIAN_POINT('',(96.,35.5,16.));
#367 = DIRECTION('',(0.,0.,1.));
#368 = DIRECTION('',(-0.,1.,0.));
#369 = ORIENTED_EDGE('',*,*,#370,.T.);
#370 = EDGE_CURVE('',#362,#371,#373,.T.);
#371 = VERTEX_POINT('',#372);
#372 = CARTESIAN_POINT('',(96.,33.8,16.));
#373 = CIRCLE('',#374,1.7);
#374 = AXIS2_PLACEMENT_3D('',#375,#376,#377);
#375 = CARTESIAN_POINT('',(96.,35.5,16.));
#376 = DIRECTION('',(0.,0.,1.));
#377 = DIRECTION('',(-1.,-0.,0.));
#378 = ORIENTED_EDGE('',*,*,#379,.T.);
#379 = EDGE_CURVE('',#371,#380,#382,.T.);
#380 = VERTEX_POINT('',#381);
#381 = CARTESIAN_POINT('',(97.7,35.5,16.));
#382 = CIRCLE('',#383,1.7);
#383 = AXIS2_PLACEMENT_3D('',#384,#385,#386);
#384 = CARTESIAN_POINT('',(96.,35.5,16.));
#385 = DIRECTION('',(0.,0.,1.));
#386 = DIRECTION('',(0.,-1.,0.));
#387 = ORIENTED_EDGE('',*,*,#388,.T.);
#388 = EDGE_CURVE('',#380,#360,#389,.T.);
#389 = CIRCLE('',#390,1.7);
#390 = AXIS2_PLACEMENT_3D('',#391,#392,#393);
#391 = CARTESIAN_POINT('',(96.,35.5,16.));
#392 = DIRECTION('',(0.,-0.,1.));
#393 = DIRECTION('',(1.,0.,0.));
#394 = PLANE('',#395);
#395 = AXIS2_PLACEMENT_3D('',#396,#397,#398);
#396 = CARTESIAN_POINT('',(0.,0.,16.));
#397 = DIRECTION('',(0.,-0.,1.));
#398 = DIRECTION('',(1.,0.,0.));
#399 = ADVANCED_FACE('',(#400,#406,#440,#474,#508,#542,#576,#614),#652,
  .T.);
#400 = FACE_BOUND('',#401,.T.);
#401 = EDGE_LOOP('',(#402,#403,#404,#405));
#402 = ORIENTED_EDGE('',*,*,#39,.T.);
#403 = ORIENTED_EDGE('',*,*,#77,.T.);
#404 = ORIENTED_EDGE('',*,*,#108,.T.);
#405 = ORIENTED_EDGE('',*,*,#130,.T.);
#406 = FACE_BOUND('',#407,.T.);
#407 = EDGE_LOOP('',(#408,#418,#426,#434));
#408 = ORIENTED_EDGE('',*,*,#409,.F.);
#409 = EDGE_CURVE('',#410,#412,#414,.T.);
#410 = VERTEX_POINT('',#411);
#411 = CARTESIAN_POINT('',(79.50000001,40.,18.5));
#412 = VERTEX_POINT('',#413);
#413 = CARTESIAN_POINT('',(79.50000001,61.,18.5));
#414 = LINE('',#415,#416);
#415 = CARTESIAN_POINT('',(79.50000001,40.,18.5));
#416 = VECTOR('',#417,1.);
#417 = DIRECTION('',(0.,1.,0.));
#418 = ORIENTED_EDGE('',*,*,#419,.F.);
#419 = EDGE_CURVE('',#420,#410,#422,.T.);
#420 = VERTEX_POINT('',#421);
#421 = CARTESIAN_POINT('',(21.5,40.,18.5));
#422 = LINE('',#423,#424);
#423 = CARTESIAN_POINT('',(21.5,40.,18.5));
#424 = VECTOR('',#425,1.);
#425 = DIRECTION('',(1.,-0.,0.));
#426 = ORIENTED_EDGE('',*,*,#427,.F.);
#427 = EDGE_CURVE('',#428,#420,#430,.T.);
#428 = VERTEX_POINT('',#429);
#429 = CARTESIAN_POINT('',(21.50000001,61.,18.5));
#430 = LINE('',#431,#432);
#431 = CARTESIAN_POINT('',(21.50000001,61.,18.5));
#432 = VECTOR('',#433,1.);
#433 = DIRECTION('',(-0.,-1.,0.));
#434 = ORIENTED_EDGE('',*,*,#435,.F.);
#435 = EDGE_CURVE('',#412,#428,#436,.T.);
#436 = LINE('',#437,#438);
#437 = CARTESIAN_POINT('',(79.50000001,61.,18.5));
#438 = VECTOR('',#439,1.);
#439 = DIRECTION('',(-1.,-0.,0.));
#440 = FACE_BOUND('',#441,.T.);
#441 = EDGE_LOOP('',(#442,#452,#460,#468));
#442 = ORIENTED_EDGE('',*,*,#443,.F.);
#443 = EDGE_CURVE('',#444,#446,#448,.T.);
#444 = VERTEX_POINT('',#445);
#445 = CARTESIAN_POINT('',(29.17500001,14.,18.5));
#446 = VERTEX_POINT('',#447);
#447 = CARTESIAN_POINT('',(29.17500001,28.5,18.5));
#448 = LINE('',#449,#450);
#449 = CARTESIAN_POINT('',(29.17500001,14.,18.5));
#450 = VECTOR('',#451,1.);
#451 = DIRECTION('',(0.,1.,0.));
#452 = ORIENTED_EDGE('',*,*,#453,.F.);
#453 = EDGE_CURVE('',#454,#444,#456,.T.);
#454 = VERTEX_POINT('',#455);
#455 = CARTESIAN_POINT('',(14.675,14.,18.5));
#456 = LINE('',#457,#458);
#457 = CARTESIAN_POINT('',(14.675,14.,18.5));
#458 = VECTOR('',#459,1.);
#459 = DIRECTION('',(1.,-0.,0.));
#460 = ORIENTED_EDGE('',*,*,#461,.F.);
#461 = EDGE_CURVE('',#462,#454,#464,.T.);
#462 = VERTEX_POINT('',#463);
#463 = CARTESIAN_POINT('',(14.67500001,28.5,18.5));
#464 = LINE('',#465,#466);
#465 = CARTESIAN_POINT('',(14.67500001,28.5,18.5));
#466 = VECTOR('',#467,1.);
#467 = DIRECTION('',(-0.,-1.,0.));
#468 = ORIENTED_EDGE('',*,*,#469,.F.);
#469 = EDGE_CURVE('',#446,#462,#470,.T.);
#470 = LINE('',#471,#472);
#471 = CARTESIAN_POINT('',(29.17500001,28.5,18.5));
#472 = VECTOR('',#473,1.);
#473 = DIRECTION('',(-1.,-0.,0.));
#474 = FACE_BOUND('',#475,.T.);
#475 = EDGE_LOOP('',(#476,#486,#494,#502));
#476 = ORIENTED_EDGE('',*,*,#477,.F.);
#477 = EDGE_CURVE('',#478,#480,#482,.T.);
#478 = VERTEX_POINT('',#479);
#479 = CARTESIAN_POINT('',(48.22500001,14.,18.5));
#480 = VERTEX_POINT('',#481);
#481 = CARTESIAN_POINT('',(48.22500001,28.5,18.5));
#482 = LINE('',#483,#484);
#483 = CARTESIAN_POINT('',(48.22500001,14.,18.5));
#484 = VECTOR('',#485,1.);
#485 = DIRECTION('',(0.,1.,0.));
#486 = ORIENTED_EDGE('',*,*,#487,.F.);
#487 = EDGE_CURVE('',#488,#478,#490,.T.);
#488 = VERTEX_POINT('',#489);
#489 = CARTESIAN_POINT('',(33.725,14.,18.5));
#490 = LINE('',#491,#492);
#491 = CARTESIAN_POINT('',(33.725,14.,18.5));
#492 = VECTOR('',#493,1.);
#493 = DIRECTION('',(1.,-0.,0.));
#494 = ORIENTED_EDGE('',*,*,#495,.F.);
#495 = EDGE_CURVE('',#496,#488,#498,.T.);
#496 = VERTEX_POINT('',#497);
#497 = CARTESIAN_POINT('',(33.72500001,28.5,18.5));
#498 = LINE('',#499,#500);
#499 = CARTESIAN_POINT('',(33.72500001,28.5,18.5));
#500 = VECTOR('',#501,1.);
#501 = DIRECTION('',(-0.,-1.,0.));
#502 = ORIENTED_EDGE('',*,*,#503,.F.);
#503 = EDGE_CURVE('',#480,#496,#504,.T.);
#504 = LINE('',#505,#506);
#505 = CARTESIAN_POINT('',(48.22500001,28.5,18.5));
#506 = VECTOR('',#507,1.);
#507 = DIRECTION('',(-1.,-0.,0.));
#508 = FACE_BOUND('',#509,.T.);
#509 = EDGE_LOOP('',(#510,#520,#528,#536));
#510 = ORIENTED_EDGE('',*,*,#511,.F.);
#511 = EDGE_CURVE('',#512,#514,#516,.T.);
#512 = VERTEX_POINT('',#513);
#513 = CARTESIAN_POINT('',(67.27500001,14.,18.5));
#514 = VERTEX_POINT('',#515);
#515 = CARTESIAN_POINT('',(67.27500001,28.5,18.5));
#516 = LINE('',#517,#518);
#517 = CARTESIAN_POINT('',(67.27500001,14.,18.5));
#518 = VECTOR('',#519,1.);
#519 = DIRECTION('',(0.,1.,0.));
#520 = ORIENTED_EDGE('',*,*,#521,.F.);
#521 = EDGE_CURVE('',#522,#512,#524,.T.);
#522 = VERTEX_POINT('',#523);
#523 = CARTESIAN_POINT('',(52.775,14.,18.5));
#524 = LINE('',#525,#526);
#525 = CARTESIAN_POINT('',(52.775,14.,18.5));
#526 = VECTOR('',#527,1.);
#527 = DIRECTION('',(1.,-0.,0.));
#528 = ORIENTED_EDGE('',*,*,#529,.F.);
#529 = EDGE_CURVE('',#530,#522,#532,.T.);
#530 = VERTEX_POINT('',#531);
#531 = CARTESIAN_POINT('',(52.77500001,28.5,18.5));
#532 = LINE('',#533,#534);
#533 = CARTESIAN_POINT('',(52.77500001,28.5,18.5));
#534 = VECTOR('',#535,1.);
#535 = DIRECTION('',(-0.,-1.,0.));
#536 = ORIENTED_EDGE('',*,*,#537,.F.);
#537 = EDGE_CURVE('',#514,#530,#538,.T.);
#538 = LINE('',#539,#540);
#539 = CARTESIAN_POINT('',(67.27500001,28.5,18.5));
#540 = VECTOR('',#541,1.);
#541 = DIRECTION('',(-1.,-0.,0.));
#542 = FACE_BOUND('',#543,.T.);
#543 = EDGE_LOOP('',(#544,#554,#562,#570));
#544 = ORIENTED_EDGE('',*,*,#545,.F.);
#545 = EDGE_CURVE('',#546,#548,#550,.T.);
#546 = VERTEX_POINT('',#547);
#547 = CARTESIAN_POINT('',(86.32500001,14.,18.5));
#548 = VERTEX_POINT('',#549);
#549 = CARTESIAN_POINT('',(86.32500001,28.5,18.5));
#550 = LINE('',#551,#552);
#551 = CARTESIAN_POINT('',(86.32500001,14.,18.5));
#552 = VECTOR('',#553,1.);
#553 = DIRECTION('',(0.,1.,0.));
#554 = ORIENTED_EDGE('',*,*,#555,.F.);
#555 = EDGE_CURVE('',#556,#546,#558,.T.);
#556 = VERTEX_POINT('',#557);
#557 = CARTESIAN_POINT('',(71.825,14.,18.5));
#558 = LINE('',#559,#560);
#559 = CARTESIAN_POINT('',(71.825,14.,18.5));
#560 = VECTOR('',#561,1.);
#561 = DIRECTION('',(1.,-0.,0.));
#562 = ORIENTED_EDGE('',*,*,#563,.F.);
#563 = EDGE_CURVE('',#564,#556,#566,.T.);
#564 = VERTEX_POINT('',#565);
#565 = CARTESIAN_POINT('',(71.82500001,28.5,18.5));
#566 = LINE('',#567,#568);
#567 = CARTESIAN_POINT('',(71.82500001,28.5,18.5));
#568 = VECTOR('',#569,1.);
#569 = DIRECTION('',(-0.,-1.,0.));
#570 = ORIENTED_EDGE('',*,*,#571,.F.);
#571 = EDGE_CURVE('',#548,#564,#572,.T.);
#572 = LINE('',#573,#574);
#573 = CARTESIAN_POINT('',(86.32500001,28.5,18.5));
#574 = VECTOR('',#575,1.);
#575 = DIRECTION('',(-1.,-0.,0.));
#576 = FACE_BOUND('',#577,.T.);
#577 = EDGE_LOOP('',(#578,#589,#598,#607));
#578 = ORIENTED_EDGE('',*,*,#579,.F.);
#579 = EDGE_CURVE('',#580,#582,#584,.T.);
#580 = VERTEX_POINT('',#581);
#581 = CARTESIAN_POINT('',(6.7,35.5,18.5));
#582 = VERTEX_POINT('',#583);
#583 = CARTESIAN_POINT('',(4.99999998,37.2,18.5));
#584 = CIRCLE('',#585,1.7);
#585 = AXIS2_PLACEMENT_3D('',#586,#587,#588);
#586 = CARTESIAN_POINT('',(5.,35.5,18.5));
#587 = DIRECTION('',(0.,-0.,1.));
#588 = DIRECTION('',(1.,0.,0.));
#589 = ORIENTED_EDGE('',*,*,#590,.T.);
#590 = EDGE_CURVE('',#580,#591,#593,.T.);
#591 = VERTEX_POINT('',#592);
#592 = CARTESIAN_POINT('',(5.00000002,33.8,18.5));
#593 = CIRCLE('',#594,1.7);
#594 = AXIS2_PLACEMENT_3D('',#595,#596,#597);
#595 = CARTESIAN_POINT('',(5.,35.5,18.5));
#596 = DIRECTION('',(0.,0.,-1.));
#597 = DIRECTION('',(1.,0.,0.));
#598 = ORIENTED_EDGE('',*,*,#599,.T.);
#599 = EDGE_CURVE('',#591,#600,#602,.T.);
#600 = VERTEX_POINT('',#601);
#601 = CARTESIAN_POINT('',(3.3,35.5,18.5));
#602 = CIRCLE('',#603,1.7);
#603 = AXIS2_PLACEMENT_3D('',#604,#605,#606);
#604 = CARTESIAN_POINT('',(5.,35.5,18.5));
#605 = DIRECTION('',(0.,-0.,-1.));
#606 = DIRECTION('',(1.E-08,-1.,0.));
#607 = ORIENTED_EDGE('',*,*,#608,.F.);
#608 = EDGE_CURVE('',#582,#600,#609,.T.);
#609 = CIRCLE('',#610,1.7);
#610 = AXIS2_PLACEMENT_3D('',#611,#612,#613);
#611 = CARTESIAN_POINT('',(5.,35.5,18.5));
#612 = DIRECTION('',(0.,0.,1.));
#613 = DIRECTION('',(-1.E-08,1.,0.));
#614 = FACE_BOUND('',#615,.T.);
#615 = EDGE_LOOP('',(#616,#627,#636,#645));
#616 = ORIENTED_EDGE('',*,*,#617,.F.);
#617 = EDGE_CURVE('',#618,#620,#622,.T.);
#618 = VERTEX_POINT('',#619);
#619 = CARTESIAN_POINT('',(97.7,35.5,18.5));
#620 = VERTEX_POINT('',#621);
#621 = CARTESIAN_POINT('',(95.99999998,37.2,18.5));
#622 = CIRCLE('',#623,1.7);
#623 = AXIS2_PLACEMENT_3D('',#624,#625,#626);
#624 = CARTESIAN_POINT('',(96.,35.5,18.5));
#625 = DIRECTION('',(0.,-0.,1.));
#626 = DIRECTION('',(1.,0.,0.));
#627 = ORIENTED_EDGE('',*,*,#628,.T.);
#628 = EDGE_CURVE('',#618,#629,#631,.T.);
#629 = VERTEX_POINT('',#630);
#630 = CARTESIAN_POINT('',(96.00000002,33.8,18.5));
#631 = CIRCLE('',#632,1.7);
#632 = AXIS2_PLACEMENT_3D('',#633,#634,#635);
#633 = CARTESIAN_POINT('',(96.,35.5,18.5));
#634 = DIRECTION('',(0.,0.,-1.));
#635 = DIRECTION('',(1.,0.,0.));
#636 = ORIENTED_EDGE('',*,*,#637,.T.);
#637 = EDGE_CURVE('',#629,#638,#640,.T.);
#638 = VERTEX_POINT('',#639);
#639 = CARTESIAN_POINT('',(94.3,35.5,18.5));
#640 = CIRCLE('',#641,1.7);
#641 = AXIS2_PLACEMENT_3D('',#642,#643,#644);
#642 = CARTESIAN_POINT('',(96.,35.5,18.5));
#643 = DIRECTION('',(0.,-0.,-1.));
#644 = DIRECTION('',(1.E-08,-1.,0.));
#645 = ORIENTED_EDGE('',*,*,#646,.F.);
#646 = EDGE_CURVE('',#620,#638,#647,.T.);
#647 = CIRCLE('',#648,1.7);
#648 = AXIS2_PLACEMENT_3D('',#649,#650,#651);
#649 = CARTESIAN_POINT('',(96.,35.5,18.5));
#650 = DIRECTION('',(0.,0.,1.));
#651 = DIRECTION('',(-1.E-08,1.,0.));
#652 = PLANE('',#653);
#653 = AXIS2_PLACEMENT_3D('',#654,#655,#656);
#654 = CARTESIAN_POINT('',(0.,0.,18.5));
#655 = DIRECTION('',(0.,-0.,1.));
#656 = DIRECTION('',(1.,0.,0.));
#657 = ADVANCED_FACE('',(#658),#674,.F.);
#658 = FACE_BOUND('',#659,.T.);
#659 = EDGE_LOOP('',(#660,#666,#667,#673));
#660 = ORIENTED_EDGE('',*,*,#661,.T.);
#661 = EDGE_CURVE('',#170,#410,#662,.T.);
#662 = LINE('',#663,#664);
#663 = CARTESIAN_POINT('',(79.50000001,40.,16.));
#664 = VECTOR('',#665,1.);
#665 = DIRECTION('',(0.,-0.,1.));
#666 = ORIENTED_EDGE('',*,*,#409,.T.);
#667 = ORIENTED_EDGE('',*,*,#668,.F.);
#668 = EDGE_CURVE('',#152,#412,#669,.T.);
#669 = LINE('',#670,#671);
#670 = CARTESIAN_POINT('',(79.50000001,61.,16.));
#671 = VECTOR('',#672,1.);
#672 = DIRECTION('',(0.,-0.,1.));
#673 = ORIENTED_EDGE('',*,*,#177,.F.);
#674 = PLANE('',#675);
#675 = AXIS2_PLACEMENT_3D('',#676,#677,#678);
#676 = CARTESIAN_POINT('',(79.50000001,50.5,17.75));
#677 = DIRECTION('',(1.,-0.,0.));
#678 = DIRECTION('',(-0.,0.,1.));
#679 = ADVANCED_FACE('',(#680),#691,.F.);
#680 = FACE_BOUND('',#681,.T.);
#681 = EDGE_LOOP('',(#682,#683,#684,#690));
#682 = ORIENTED_EDGE('',*,*,#668,.T.);
#683 = ORIENTED_EDGE('',*,*,#435,.T.);
#684 = ORIENTED_EDGE('',*,*,#685,.F.);
#685 = EDGE_CURVE('',#154,#428,#686,.T.);
#686 = LINE('',#687,#688);
#687 = CARTESIAN_POINT('',(21.50000001,61.,16.));
#688 = VECTOR('',#689,1.);
#689 = DIRECTION('',(0.,-0.,1.));
#690 = ORIENTED_EDGE('',*,*,#151,.F.);
#691 = PLANE('',#692);
#692 = AXIS2_PLACEMENT_3D('',#693,#694,#695);
#693 = CARTESIAN_POINT('',(50.50000001,61.,17.75));
#694 = DIRECTION('',(0.,1.,-0.));
#695 = DIRECTION('',(0.,0.,1.));
#696 = ADVANCED_FACE('',(#697),#708,.F.);
#697 = FACE_BOUND('',#698,.T.);
#698 = EDGE_LOOP('',(#699,#700,#701,#707));
#699 = ORIENTED_EDGE('',*,*,#685,.T.);
#700 = ORIENTED_EDGE('',*,*,#427,.T.);
#701 = ORIENTED_EDGE('',*,*,#702,.F.);
#702 = EDGE_CURVE('',#162,#420,#703,.T.);
#703 = LINE('',#704,#705);
#704 = CARTESIAN_POINT('',(21.5,40.,16.));
#705 = VECTOR('',#706,1.);
#706 = DIRECTION('',(0.,-0.,1.));
#707 = ORIENTED_EDGE('',*,*,#161,.F.);
#708 = PLANE('',#709);
#709 = AXIS2_PLACEMENT_3D('',#710,#711,#712);
#710 = CARTESIAN_POINT('',(21.50000001,50.5,17.75));
#711 = DIRECTION('',(-1.,0.,0.));
#712 = DIRECTION('',(0.,0.,-1.));
#713 = ADVANCED_FACE('',(#714),#720,.F.);
#714 = FACE_BOUND('',#715,.T.);
#715 = EDGE_LOOP('',(#716,#717,#718,#719));
#716 = ORIENTED_EDGE('',*,*,#702,.T.);
#717 = ORIENTED_EDGE('',*,*,#419,.T.);
#718 = ORIENTED_EDGE('',*,*,#661,.F.);
#719 = ORIENTED_EDGE('',*,*,#169,.F.);
#720 = PLANE('',#721);
#721 = AXIS2_PLACEMENT_3D('',#722,#723,#724);
#722 = CARTESIAN_POINT('',(50.5,40.,17.75));
#723 = DIRECTION('',(0.,-1.,0.));
#724 = DIRECTION('',(0.,-0.,-1.));
#725 = ADVANCED_FACE('',(#726),#742,.F.);
#726 = FACE_BOUND('',#727,.T.);
#727 = EDGE_LOOP('',(#728,#734,#735,#741));
#728 = ORIENTED_EDGE('',*,*,#729,.T.);
#729 = EDGE_CURVE('',#204,#444,#730,.T.);
#730 = LINE('',#731,#732);
#731 = CARTESIAN_POINT('',(29.17500001,14.,16.));
#732 = VECTOR('',#733,1.);
#733 = DIRECTION('',(0.,-0.,1.));
#734 = ORIENTED_EDGE('',*,*,#443,.T.);
#735 = ORIENTED_EDGE('',*,*,#736,.F.);
#736 = EDGE_CURVE('',#186,#446,#737,.T.);
#737 = LINE('',#738,#739);
#738 = CARTESIAN_POINT('',(29.17500001,28.5,16.));
#739 = VECTOR('',#740,1.);
#740 = DIRECTION('',(0.,-0.,1.));
#741 = ORIENTED_EDGE('',*,*,#211,.F.);
#742 = PLANE('',#743);
#743 = AXIS2_PLACEMENT_3D('',#744,#745,#746);
#744 = CARTESIAN_POINT('',(29.17500001,21.25,17.75));
#745 = DIRECTION('',(1.,-0.,0.));
#746 = DIRECTION('',(-0.,0.,1.));
#747 = ADVANCED_FACE('',(#748),#759,.F.);
#748 = FACE_BOUND('',#749,.T.);
#749 = EDGE_LOOP('',(#750,#751,#752,#758));
#750 = ORIENTED_EDGE('',*,*,#736,.T.);
#751 = ORIENTED_EDGE('',*,*,#469,.T.);
#752 = ORIENTED_EDGE('',*,*,#753,.F.);
#753 = EDGE_CURVE('',#188,#462,#754,.T.);
#754 = LINE('',#755,#756);
#755 = CARTESIAN_POINT('',(14.67500001,28.5,16.));
#756 = VECTOR('',#757,1.);
#757 = DIRECTION('',(0.,-0.,1.));
#758 = ORIENTED_EDGE('',*,*,#185,.F.);
#759 = PLANE('',#760);
#760 = AXIS2_PLACEMENT_3D('',#761,#762,#763);
#761 = CARTESIAN_POINT('',(21.92500001,28.5,17.75));
#762 = DIRECTION('',(0.,1.,-0.));
#763 = DIRECTION('',(0.,0.,1.));
#764 = ADVANCED_FACE('',(#765),#776,.F.);
#765 = FACE_BOUND('',#766,.T.);
#766 = EDGE_LOOP('',(#767,#768,#769,#775));
#767 = ORIENTED_EDGE('',*,*,#753,.T.);
#768 = ORIENTED_EDGE('',*,*,#461,.T.);
#769 = ORIENTED_EDGE('',*,*,#770,.F.);
#770 = EDGE_CURVE('',#196,#454,#771,.T.);
#771 = LINE('',#772,#773);
#772 = CARTESIAN_POINT('',(14.675,14.,16.));
#773 = VECTOR('',#774,1.);
#774 = DIRECTION('',(-0.,-0.,1.));
#775 = ORIENTED_EDGE('',*,*,#195,.F.);
#776 = PLANE('',#777);
#777 = AXIS2_PLACEMENT_3D('',#778,#779,#780);
#778 = CARTESIAN_POINT('',(14.67500001,21.25,17.75));
#779 = DIRECTION('',(-1.,0.,0.));
#780 = DIRECTION('',(0.,0.,-1.));
#781 = ADVANCED_FACE('',(#782),#788,.F.);
#782 = FACE_BOUND('',#783,.T.);
#783 = EDGE_LOOP('',(#784,#785,#786,#787));
#784 = ORIENTED_EDGE('',*,*,#770,.T.);
#785 = ORIENTED_EDGE('',*,*,#453,.T.);
#786 = ORIENTED_EDGE('',*,*,#729,.F.);
#787 = ORIENTED_EDGE('',*,*,#203,.F.);
#788 = PLANE('',#789);
#789 = AXIS2_PLACEMENT_3D('',#790,#791,#792);
#790 = CARTESIAN_POINT('',(21.925,14.,17.75));
#791 = DIRECTION('',(0.,-1.,0.));
#792 = DIRECTION('',(0.,-0.,-1.));
#793 = ADVANCED_FACE('',(#794),#810,.F.);
#794 = FACE_BOUND('',#795,.T.);
#795 = EDGE_LOOP('',(#796,#802,#803,#809));
#796 = ORIENTED_EDGE('',*,*,#797,.T.);
#797 = EDGE_CURVE('',#238,#478,#798,.T.);
#798 = LINE('',#799,#800);
#799 = CARTESIAN_POINT('',(48.22500001,14.,16.));
#800 = VECTOR('',#801,1.);
#801 = DIRECTION('',(0.,-0.,1.));
#802 = ORIENTED_EDGE('',*,*,#477,.T.);
#803 = ORIENTED_EDGE('',*,*,#804,.F.);
#804 = EDGE_CURVE('',#220,#480,#805,.T.);
#805 = LINE('',#806,#807);
#806 = CARTESIAN_POINT('',(48.22500001,28.5,16.));
#807 = VECTOR('',#808,1.);
#808 = DIRECTION('',(0.,-0.,1.));
#809 = ORIENTED_EDGE('',*,*,#245,.F.);
#810 = PLANE('',#811);
#811 = AXIS2_PLACEMENT_3D('',#812,#813,#814);
#812 = CARTESIAN_POINT('',(48.22500001,21.25,17.75));
#813 = DIRECTION('',(1.,-0.,0.));
#814 = DIRECTION('',(-0.,0.,1.));
#815 = ADVANCED_FACE('',(#816),#827,.F.);
#816 = FACE_BOUND('',#817,.T.);
#817 = EDGE_LOOP('',(#818,#819,#820,#826));
#818 = ORIENTED_EDGE('',*,*,#804,.T.);
#819 = ORIENTED_EDGE('',*,*,#503,.T.);
#820 = ORIENTED_EDGE('',*,*,#821,.F.);
#821 = EDGE_CURVE('',#222,#496,#822,.T.);
#822 = LINE('',#823,#824);
#823 = CARTESIAN_POINT('',(33.72500001,28.5,16.));
#824 = VECTOR('',#825,1.);
#825 = DIRECTION('',(0.,-0.,1.));
#826 = ORIENTED_EDGE('',*,*,#219,.F.);
#827 = PLANE('',#828);
#828 = AXIS2_PLACEMENT_3D('',#829,#830,#831);
#829 = CARTESIAN_POINT('',(40.97500001,28.5,17.75));
#830 = DIRECTION('',(0.,1.,-0.));
#831 = DIRECTION('',(0.,0.,1.));
#832 = ADVANCED_FACE('',(#833),#844,.F.);
#833 = FACE_BOUND('',#834,.T.);
#834 = EDGE_LOOP('',(#835,#836,#837,#843));
#835 = ORIENTED_EDGE('',*,*,#821,.T.);
#836 = ORIENTED_EDGE('',*,*,#495,.T.);
#837 = ORIENTED_EDGE('',*,*,#838,.F.);
#838 = EDGE_CURVE('',#230,#488,#839,.T.);
#839 = LINE('',#840,#841);
#840 = CARTESIAN_POINT('',(33.725,14.,16.));
#841 = VECTOR('',#842,1.);
#842 = DIRECTION('',(0.,-0.,1.));
#843 = ORIENTED_EDGE('',*,*,#229,.F.);
#844 = PLANE('',#845);
#845 = AXIS2_PLACEMENT_3D('',#846,#847,#848);
#846 = CARTESIAN_POINT('',(33.72500001,21.25,17.75));
#847 = DIRECTION('',(-1.,0.,0.));
#848 = DIRECTION('',(0.,0.,-1.));
#849 = ADVANCED_FACE('',(#850),#856,.F.);
#850 = FACE_BOUND('',#851,.T.);
#851 = EDGE_LOOP('',(#852,#853,#854,#855));
#852 = ORIENTED_EDGE('',*,*,#838,.T.);
#853 = ORIENTED_EDGE('',*,*,#487,.T.);
#854 = ORIENTED_EDGE('',*,*,#797,.F.);
#855 = ORIENTED_EDGE('',*,*,#237,.F.);
#856 = PLANE('',#857);
#857 = AXIS2_PLACEMENT_3D('',#858,#859,#860);
#858 = CARTESIAN_POINT('',(40.975,14.,17.75));
#859 = DIRECTION('',(0.,-1.,0.));
#860 = DIRECTION('',(0.,-0.,-1.));
#861 = ADVANCED_FACE('',(#862),#878,.F.);
#862 = FACE_BOUND('',#863,.T.);
#863 = EDGE_LOOP('',(#864,#870,#871,#877));
#864 = ORIENTED_EDGE('',*,*,#865,.T.);
#865 = EDGE_CURVE('',#272,#512,#866,.T.);
#866 = LINE('',#867,#868);
#867 = CARTESIAN_POINT('',(67.27500001,14.,16.));
#868 = VECTOR('',#869,1.);
#869 = DIRECTION('',(0.,-0.,1.));
#870 = ORIENTED_EDGE('',*,*,#511,.T.);
#871 = ORIENTED_EDGE('',*,*,#872,.F.);
#872 = EDGE_CURVE('',#254,#514,#873,.T.);
#873 = LINE('',#874,#875);
#874 = CARTESIAN_POINT('',(67.27500001,28.5,16.));
#875 = VECTOR('',#876,1.);
#876 = DIRECTION('',(0.,-0.,1.));
#877 = ORIENTED_EDGE('',*,*,#279,.F.);
#878 = PLANE('',#879);
#879 = AXIS2_PLACEMENT_3D('',#880,#881,#882);
#880 = CARTESIAN_POINT('',(67.27500001,21.25,17.75));
#881 = DIRECTION('',(1.,-0.,0.));
#882 = DIRECTION('',(-0.,0.,1.));
#883 = ADVANCED_FACE('',(#884),#895,.F.);
#884 = FACE_BOUND('',#885,.T.);
#885 = EDGE_LOOP('',(#886,#887,#888,#894));
#886 = ORIENTED_EDGE('',*,*,#872,.T.);
#887 = ORIENTED_EDGE('',*,*,#537,.T.);
#888 = ORIENTED_EDGE('',*,*,#889,.F.);
#889 = EDGE_CURVE('',#256,#530,#890,.T.);
#890 = LINE('',#891,#892);
#891 = CARTESIAN_POINT('',(52.77500001,28.5,16.));
#892 = VECTOR('',#893,1.);
#893 = DIRECTION('',(0.,-0.,1.));
#894 = ORIENTED_EDGE('',*,*,#253,.F.);
#895 = PLANE('',#896);
#896 = AXIS2_PLACEMENT_3D('',#897,#898,#899);
#897 = CARTESIAN_POINT('',(60.02500001,28.5,17.75));
#898 = DIRECTION('',(0.,1.,-0.));
#899 = DIRECTION('',(0.,0.,1.));
#900 = ADVANCED_FACE('',(#901),#912,.F.);
#901 = FACE_BOUND('',#902,.T.);
#902 = EDGE_LOOP('',(#903,#904,#905,#911));
#903 = ORIENTED_EDGE('',*,*,#889,.T.);
#904 = ORIENTED_EDGE('',*,*,#529,.T.);
#905 = ORIENTED_EDGE('',*,*,#906,.F.);
#906 = EDGE_CURVE('',#264,#522,#907,.T.);
#907 = LINE('',#908,#909);
#908 = CARTESIAN_POINT('',(52.775,14.,16.));
#909 = VECTOR('',#910,1.);
#910 = DIRECTION('',(0.,-0.,1.));
#911 = ORIENTED_EDGE('',*,*,#263,.F.);
#912 = PLANE('',#913);
#913 = AXIS2_PLACEMENT_3D('',#914,#915,#916);
#914 = CARTESIAN_POINT('',(52.77500001,21.25,17.75));
#915 = DIRECTION('',(-1.,0.,0.));
#916 = DIRECTION('',(0.,0.,-1.));
#917 = ADVANCED_FACE('',(#918),#924,.F.);
#918 = FACE_BOUND('',#919,.T.);
#919 = EDGE_LOOP('',(#920,#921,#922,#923));
#920 = ORIENTED_EDGE('',*,*,#906,.T.);
#921 = ORIENTED_EDGE('',*,*,#521,.T.);
#922 = ORIENTED_EDGE('',*,*,#865,.F.);
#923 = ORIENTED_EDGE('',*,*,#271,.F.);
#924 = PLANE('',#925);
#925 = AXIS2_PLACEMENT_3D('',#926,#927,#928);
#926 = CARTESIAN_POINT('',(60.025,14.,17.75));
#927 = DIRECTION('',(0.,-1.,0.));
#928 = DIRECTION('',(0.,-0.,-1.));
#929 = ADVANCED_FACE('',(#930),#946,.F.);
#930 = FACE_BOUND('',#931,.T.);
#931 = EDGE_LOOP('',(#932,#938,#939,#945));
#932 = ORIENTED_EDGE('',*,*,#933,.T.);
#933 = EDGE_CURVE('',#306,#546,#934,.T.);
#934 = LINE('',#935,#936);
#935 = CARTESIAN_POINT('',(86.32500001,14.,16.));
#936 = VECTOR('',#937,1.);
#937 = DIRECTION('',(0.,-0.,1.));
#938 = ORIENTED_EDGE('',*,*,#545,.T.);
#939 = ORIENTED_EDGE('',*,*,#940,.F.);
#940 = EDGE_CURVE('',#288,#548,#941,.T.);
#941 = LINE('',#942,#943);
#942 = CARTESIAN_POINT('',(86.32500001,28.5,16.));
#943 = VECTOR('',#944,1.);
#944 = DIRECTION('',(0.,-0.,1.));
#945 = ORIENTED_EDGE('',*,*,#313,.F.);
#946 = PLANE('',#947);
#947 = AXIS2_PLACEMENT_3D('',#948,#949,#950);
#948 = CARTESIAN_POINT('',(86.32500001,21.25,17.75));
#949 = DIRECTION('',(1.,-0.,0.));
#950 = DIRECTION('',(-0.,0.,1.));
#951 = ADVANCED_FACE('',(#952),#963,.F.);
#952 = FACE_BOUND('',#953,.T.);
#953 = EDGE_LOOP('',(#954,#955,#956,#962));
#954 = ORIENTED_EDGE('',*,*,#940,.T.);
#955 = ORIENTED_EDGE('',*,*,#571,.T.);
#956 = ORIENTED_EDGE('',*,*,#957,.F.);
#957 = EDGE_CURVE('',#290,#564,#958,.T.);
#958 = LINE('',#959,#960);
#959 = CARTESIAN_POINT('',(71.82500001,28.5,16.));
#960 = VECTOR('',#961,1.);
#961 = DIRECTION('',(0.,-0.,1.));
#962 = ORIENTED_EDGE('',*,*,#287,.F.);
#963 = PLANE('',#964);
#964 = AXIS2_PLACEMENT_3D('',#965,#966,#967);
#965 = CARTESIAN_POINT('',(79.07500001,28.5,17.75));
#966 = DIRECTION('',(0.,1.,-0.));
#967 = DIRECTION('',(0.,0.,1.));
#968 = ADVANCED_FACE('',(#969),#980,.F.);
#969 = FACE_BOUND('',#970,.T.);
#970 = EDGE_LOOP('',(#971,#972,#973,#979));
#971 = ORIENTED_EDGE('',*,*,#957,.T.);
#972 = ORIENTED_EDGE('',*,*,#563,.T.);
#973 = ORIENTED_EDGE('',*,*,#974,.F.);
#974 = EDGE_CURVE('',#298,#556,#975,.T.);
#975 = LINE('',#976,#977);
#976 = CARTESIAN_POINT('',(71.825,14.,16.));
#977 = VECTOR('',#978,1.);
#978 = DIRECTION('',(0.,-0.,1.));
#979 = ORIENTED_EDGE('',*,*,#297,.F.);
#980 = PLANE('',#981);
#981 = AXIS2_PLACEMENT_3D('',#982,#983,#984);
#982 = CARTESIAN_POINT('',(71.82500001,21.25,17.75));
#983 = DIRECTION('',(-1.,0.,0.));
#984 = DIRECTION('',(0.,0.,-1.));
#985 = ADVANCED_FACE('',(#986),#992,.F.);
#986 = FACE_BOUND('',#987,.T.);
#987 = EDGE_LOOP('',(#988,#989,#990,#991));
#988 = ORIENTED_EDGE('',*,*,#974,.T.);
#989 = ORIENTED_EDGE('',*,*,#555,.T.);
#990 = ORIENTED_EDGE('',*,*,#933,.F.);
#991 = ORIENTED_EDGE('',*,*,#305,.F.);
#992 = PLANE('',#993);
#993 = AXIS2_PLACEMENT_3D('',#994,#995,#996);
#994 = CARTESIAN_POINT('',(79.075,14.,17.75));
#995 = DIRECTION('',(0.,-1.,0.));
#996 = DIRECTION('',(0.,-0.,-1.));
#997 = ADVANCED_FACE('',(#998),#1016,.F.);
#998 = FACE_BOUND('',#999,.F.);
#999 = EDGE_LOOP('',(#1000,#1006,#1007,#1008,#1014,#1015));
#1000 = ORIENTED_EDGE('',*,*,#1001,.T.);
#1001 = EDGE_CURVE('',#324,#600,#1002,.T.);
#1002 = LINE('',#1003,#1004);
#1003 = CARTESIAN_POINT('',(3.3,35.5,16.));
#1004 = VECTOR('',#1005,1.);
#1005 = DIRECTION('',(0.,-0.,1.));
#1006 = ORIENTED_EDGE('',*,*,#608,.F.);
#1007 = ORIENTED_EDGE('',*,*,#579,.F.);
#1008 = ORIENTED_EDGE('',*,*,#1009,.F.);
#1009 = EDGE_CURVE('',#342,#580,#1010,.T.);
#1010 = LINE('',#1011,#1012);
#1011 = CARTESIAN_POINT('',(6.7,35.5,16.));
#1012 = VECTOR('',#1013,1.);
#1013 = DIRECTION('',(0.,-0.,1.));
#1014 = ORIENTED_EDGE('',*,*,#350,.T.);
#1015 = ORIENTED_EDGE('',*,*,#321,.T.);
#1016 = CYLINDRICAL_SURFACE('',#1017,1.7);
#1017 = AXIS2_PLACEMENT_3D('',#1018,#1019,#1020);
#1018 = CARTESIAN_POINT('',(5.,35.5,17.75));
#1019 = DIRECTION('',(0.,-0.,1.));
#1020 = DIRECTION('',(1.,0.,0.));
#1021 = ADVANCED_FACE('',(#1022),#1030,.F.);
#1022 = FACE_BOUND('',#1023,.F.);
#1023 = EDGE_LOOP('',(#1024,#1025,#1026,#1027,#1028,#1029));
#1024 = ORIENTED_EDGE('',*,*,#1001,.F.);
#1025 = ORIENTED_EDGE('',*,*,#332,.T.);
#1026 = ORIENTED_EDGE('',*,*,#341,.T.);
#1027 = ORIENTED_EDGE('',*,*,#1009,.T.);
#1028 = ORIENTED_EDGE('',*,*,#590,.T.);
#1029 = ORIENTED_EDGE('',*,*,#599,.T.);
#1030 = CYLINDRICAL_SURFACE('',#1031,1.7);
#1031 = AXIS2_PLACEMENT_3D('',#1032,#1033,#1034);
#1032 = CARTESIAN_POINT('',(5.,35.5,17.75));
#1033 = DIRECTION('',(0.,-0.,1.));
#1034 = DIRECTION('',(1.,0.,0.));
#1035 = ADVANCED_FACE('',(#1036),#1054,.F.);
#1036 = FACE_BOUND('',#1037,.F.);
#1037 = EDGE_LOOP('',(#1038,#1044,#1045,#1046,#1052,#1053));
#1038 = ORIENTED_EDGE('',*,*,#1039,.T.);
#1039 = EDGE_CURVE('',#362,#638,#1040,.T.);
#1040 = LINE('',#1041,#1042);
#1041 = CARTESIAN_POINT('',(94.3,35.5,16.));
#1042 = VECTOR('',#1043,1.);
#1043 = DIRECTION('',(0.,-0.,1.));
#1044 = ORIENTED_EDGE('',*,*,#646,.F.);
#1045 = ORIENTED_EDGE('',*,*,#617,.F.);
#1046 = ORIENTED_EDGE('',*,*,#1047,.F.);
#1047 = EDGE_CURVE('',#380,#618,#1048,.T.);
#1048 = LINE('',#1049,#1050);
#1049 = CARTESIAN_POINT('',(97.7,35.5,16.));
#1050 = VECTOR('',#1051,1.);
#1051 = DIRECTION('',(0.,-0.,1.));
#1052 = ORIENTED_EDGE('',*,*,#388,.T.);
#1053 = ORIENTED_EDGE('',*,*,#359,.T.);
#1054 = CYLINDRICAL_SURFACE('',#1055,1.7);
#1055 = AXIS2_PLACEMENT_3D('',#1056,#1057,#1058);
#1056 = CARTESIAN_POINT('',(96.,35.5,17.75));
#1057 = DIRECTION('',(-0.,-0.,1.));
#1058 = DIRECTION('',(1.,0.,0.));
#1059 = ADVANCED_FACE('',(#1060),#1068,.F.);
#1060 = FACE_BOUND('',#1061,.F.);
#1061 = EDGE_LOOP('',(#1062,#1063,#1064,#1065,#1066,#1067));
#1062 = ORIENTED_EDGE('',*,*,#1039,.F.);
#1063 = ORIENTED_EDGE('',*,*,#370,.T.);
#1064 = ORIENTED_EDGE('',*,*,#379,.T.);
#1065 = ORIENTED_EDGE('',*,*,#1047,.T.);
#1066 = ORIENTED_EDGE('',*,*,#628,.T.);
#1067 = ORIENTED_EDGE('',*,*,#637,.T.);
#1068 = CYLINDRICAL_SURFACE('',#1069,1.7);
#1069 = AXIS2_PLACEMENT_3D('',#1070,#1071,#1072);
#1070 = CARTESIAN_POINT('',(96.,35.5,17.75));
#1071 = DIRECTION('',(-0.,-0.,1.));
#1072 = DIRECTION('',(1.,0.,0.));
#1073 = ( GEOMETRIC_REPRESENTATION_CONTEXT(3) 
GLOBAL_UNCERTAINTY_ASSIGNED_CONTEXT((#1077)) 
GLOBAL_UNIT_ASSIGNED_CONTEXT((#1074,#1075,#1076)) REPRESENTATION_CONTEXT
('Context #1','3D Context with UNIT and UNCERTAINTY') );
#1074 = ( LENGTH_UNIT() NAMED_UNIT(*) SI_UNIT(.MILLI.,.METRE.) );
#1075 = ( NAMED_UNIT(*) PLANE_ANGLE_UNIT() SI_UNIT($,.RADIAN.) );
#1076 = ( NAMED_UNIT(*) SI_UNIT($,.STERADIAN.) SOLID_ANGLE_UNIT() );
#1077 = UNCERTAINTY_MEASURE_WITH_UNIT(LENGTH_MEASURE(1.E-07),#1074,
  'distance_accuracy_value','confusion accuracy');
#1078 = PRODUCT_RELATED_PRODUCT_CATEGORY('part',$,(#7));
#1079 = MECHANICAL_DESIGN_GEOMETRIC_PRESENTATION_REPRESENTATION('',(
    #1080),#1073);
#1080 = STYLED_ITEM('color',(#1081),#15);
#1081 = PRESENTATION_STYLE_ASSIGNMENT((#1082,#1088));
#1082 = SURFACE_STYLE_USAGE(.BOTH.,#1083);
#1083 = SURFACE_SIDE_STYLE('',(#1084));
#1084 = SURFACE_STYLE_FILL_AREA(#1085);
#1085 = FILL_AREA_STYLE('',(#1086));
#1086 = FILL_AREA_STYLE_COLOUR('',#1087);
#1087 = COLOUR_RGB('',0.899999968064,0.899999968064,0.899999968064);
#1088 = CURVE_STYLE('',#1089,POSITIVE_LENGTH_MEASURE(0.1),#1090);
#1089 = DRAUGHTING_PRE_DEFINED_CURVE_FONT('continuous');
#1090 = COLOUR_RGB('',9.803921802644E-02,9.803921802644E-02,
  9.803921802644E-02);
ENDSEC;
END-ISO-10303-21;
